SplineFontDB: 3.0
FontName: Vaigai-Regular
FullName: Vaigai
FamilyName: Vaigai
Weight: Book
Copyright: Copyright (c) 1995-2015, NLCI (http://www.nlci.in/fonts/) Derived from SAU Vaigai Normal by ttfbuilder v0.33
Version: 1.0 Thu Aug 08 15:05:52 1996
ItalicAngle: 0
UnderlinePosition: -260
UnderlineWidth: 20
Ascent: 800
Descent: 200
InvalidEm: 0
sfntRevision: 0x00010000
LayerCount: 2
Layer: 0 0 "Back" 1
Layer: 1 0 "Fore" 0
XUID: [1021 314 -1748299749 4567765]
StyleMap: 0x0040
FSType: 0
OS2Version: 1
OS2_WeightWidthSlopeOnly: 0
OS2_UseTypoMetrics: 0
CreationTime: 1547921071
ModificationTime: 1550014669
PfmFamily: 17
TTFWeight: 400
TTFWidth: 5
LineGap: 0
VLineGap: 0
Panose: 2 0 0 3 0 0 0 0 0 0
OS2TypoAscent: 1068
OS2TypoAOffset: 0
OS2TypoDescent: -359
OS2TypoDOffset: 0
OS2TypoLinegap: 0
OS2WinAscent: 1068
OS2WinAOffset: 0
OS2WinDescent: 359
OS2WinDOffset: 0
HheadAscent: 1068
HheadAOffset: 0
HheadDescent: -359
HheadDOffset: 0
OS2SubXSize: 700
OS2SubYSize: 650
OS2SubXOff: 0
OS2SubYOff: 143
OS2SupXSize: 700
OS2SupYSize: 650
OS2SupXOff: 0
OS2SupYOff: 453
OS2StrikeYSize: 50
OS2StrikeYPos: 259
OS2Vendor: 'Alts'
OS2CodePages: 20000001.00000000
OS2UnicodeRanges: a01080ff.520021cb.08000028.00000000
Lookup: 260 0 0 "_holdAnchorsbase" { "_someAnchorsbase"  } []
DEI: 91125
ShortTable: maxp 16
  1
  0
  243
  171
  12
  279
  16
  1
  0
  0
  0
  0
  3
  0
  3
  2
EndShort

StartChar: .notdef
Encoding: 0 -1 0
Width: 500
Flags: HW
LayerCount: 2
Fore
SplineSet
31 0 m 1
 31 750 l 1
 469 750 l 1
 469 0 l 1
 31 0 l 1
438 31 m 1
 438 719 l 1
 62 719 l 1
 62 31 l 1
 438 31 l 1
EndSplineSet
EndChar

StartChar: exclam.taml
Encoding: 4 -1 4
Width: 320
Flags: HW
LayerCount: 2
Fore
SplineSet
178 450 m 0
 206.666666667 450 221 425.666666667 221 377 c 1
 211.666666667 310.333333333 202.666666667 242.333333333 194 173 c 0
 190.666666667 147 186.666666667 112.666666667 182 70 c 1
 175 70 l 1
 169.666666667 112 165.666666667 146 163 172 c 0
 155 237.333333333 146 305.666666667 136 377 c 0
 135.333333333 381 135 386.666666667 135 394 c 0
 135 410 138.666666667 423.333333333 146 434 c 128
 153.333333333 444.666666667 164 450 178 450 c 0
177 8 m 0
 189 8 198.833333333 4.16666666667 206.5 -3.5 c 128
 214.166666667 -11.1666666667 218 -20.6666666667 218 -32 c 0
 218 -44 214.166666667 -54.1666666667 206.5 -62.5 c 128
 198.833333333 -70.8333333333 189.333333333 -75 178 -75 c 256
 166.666666667 -75 157 -71 149 -63 c 128
 141 -55 137 -44.6666666667 137 -32 c 0
 137 -20.6666666667 140.833333333 -11.1666666667 148.5 -3.5 c 128
 156.166666667 4.16666666667 165.666666667 8 177 8 c 0
EndSplineSet
EndChar

StartChar: quoteleft.taml
Encoding: 5 -1 5
Width: 250
Flags: HW
LayerCount: 2
Fore
SplineSet
177 648 m 1
 145 637.333333333 119.333333333 619 100 593 c 0
 84 571.666666667 76 553 76 537 c 0
 76 532.333333333 77.3333333333 529 80 527 c 128
 82.6666666667 525 86.3333333333 524 91 524 c 256
 95.6666666667 524 102.833333333 527.166666667 112.5 533.5 c 128
 122.166666667 539.833333333 130 543 136 543 c 0
 143.333333333 543 149.666666667 541 155 537 c 0
 175 523 185 504 185 480 c 0
 185 467.333333333 181.666666667 456.333333333 175 447 c 0
 169.666666667 437.666666667 162.333333333 431 153 427 c 128
 143.666666667 423 133.333333333 421 122 421 c 0
 114.666666667 421 105 421.666666667 93 423 c 128
 81 424.333333333 69.3333333333 434.666666667 58 454 c 128
 46.6666666667 473.333333333 41 494.333333333 41 517 c 0
 41 526.333333333 41.6666666667 533.333333333 43 538 c 0
 52.3333333333 586 77.3333333333 623.333333333 118 650 c 0
 131.333333333 658.666666667 151 667.666666667 177 677 c 1
 177 648 l 1
EndSplineSet
EndChar

StartChar: u20A8
Encoding: 6 8360 6
Width: 800
Flags: HW
LayerCount: 2
Fore
SplineSet
696 86 m 0
 696 60 686.166666667 38.1666666667 666.5 20.5 c 128
 646.833333333 2.83333333333 624 -6 598 -6 c 0
 586 -6 570.333333333 -4 551 0 c 128
 531.666666667 4 519.666666667 6 515 6 c 0
 507.666666667 6 502.666666667 3.66666666667 500 -1 c 1
 500 100 l 1
 510 64.6666666667 523.666666667 39.6666666667 541 25 c 0
 555.666666667 12.3333333333 575 6 599 6 c 0
 613.666666667 6 627 11.6666666667 639 23 c 128
 651 34.3333333333 657 46 657 58 c 0
 657 75.3333333333 648.666666667 90.6666666667 632 104 c 0
 621.333333333 112.666666667 602.333333333 123.666666667 575 137 c 0
 546.333333333 152.333333333 528 163.666666667 520 171 c 0
 506 183.666666667 499 201.333333333 499 224 c 0
 499 249.333333333 506.833333333 269.5 522.5 284.5 c 128
 538.166666667 299.5 558.666666667 307 584 307 c 0
 596 307 609.833333333 305.5 625.5 302.5 c 128
 641.166666667 299.5 649.666666667 298 651 298 c 0
 658.333333333 298 663.333333333 301 666 307 c 1
 676 307 l 1
 676 213 l 1
 667 213 l 1
 660.333333333 245 650.333333333 267.166666667 637 279.5 c 128
 623.666666667 291.833333333 605.333333333 298 582 298 c 0
 568 298 555.5 293.833333333 544.5 285.5 c 128
 533.5 277.166666667 528 266.333333333 528 253 c 0
 528 237.666666667 533 225 543 215 c 0
 551 207 575.666666667 193 617 173 c 0
 643 159 661 147.666666667 671 139 c 0
 687.666666667 123.666666667 696 106 696 86 c 0
447 4 m 1
 332 4 l 1
 180 216 l 1
 129 214 l 1
 127 80 l 2
 127 50 131 31 139 23 c 0
 144.333333333 17.6666666667 157 15 177 15 c 2
 192 15 l 1
 192 4 l 1
 9 4 l 1
 9 15 l 1
 19 15 l 2
 39 15 52 17.6666666667 58 23 c 0
 68 31.6666666667 73 50.6666666667 73 80 c 2
 73 374 l 2
 73 401.333333333 69 418.166666667 61 424.5 c 128
 53 430.833333333 39 434 19 434 c 2
 7 433 l 1
 7 446 l 1
 165 446 l 2
 228.333333333 446 275 438.166666667 305 422.5 c 128
 335 406.833333333 350 378.333333333 350 337 c 0
 350 310.333333333 341.666666667 287.666666667 325 269 c 0
 305.666666667 247 276.333333333 231.333333333 237 222 c 1
 268.333333333 180 291.666666667 148.666666667 307 128 c 0
 355.666666667 64 383 30.1666666667 389 26.5 c 128
 395 22.8333333333 404 19.8333333333 416 17.5 c 128
 428 15.1666666667 438.333333333 13.3333333333 447 12 c 1
 447 4 l 1
285 326 m 0
 285 353.333333333 277.333333333 375.666666667 262 393 c 0
 242.666666667 415 213.666666667 426 175 426 c 0
 162 426 162 426 149 426 c 0
 139.666666667 424 133 422.666666667 129 422 c 1
 129 232 l 1
 135 231.333333333 143.333333333 231 154 231 c 0
 192.666666667 231 224.166666667 240.166666667 248.5 258.5 c 128
 272.833333333 276.833333333 285 299.333333333 285 326 c 0
EndSplineSet
EndChar

StartChar: percent.taml
Encoding: 7 -1 7
Width: 581
Flags: HW
LayerCount: 2
Fore
SplineSet
499 157 m 0
 499 109 487.666666667 72 465 46 c 0
 446.333333333 24.6666666667 424 14 398 14 c 0
 371.333333333 14 351 24.3333333333 337 45 c 128
 323 65.6666666667 316 95.6666666667 316 135 c 0
 316 187 328 226.333333333 352 253 c 0
 370 273 390.666666667 283 414 283 c 0
 436 283 454 275.666666667 468 261 c 0
 488.666666667 239 499 204.333333333 499 157 c 0
426 504 m 1
 138 12 l 1
 98 12 l 1
 385 504 l 1
 426 504 l 1
212 383 m 0
 212 331 200 291.666666667 176 265 c 0
 158 245 137.333333333 235 114 235 c 0
 92 235 74 242.333333333 60 257 c 0
 39.3333333333 279 29 313.666666667 29 361 c 0
 29 409 40.3333333333 446 63 472 c 0
 81.6666666667 493.333333333 104 504 130 504 c 0
 156.666666667 504 177 493.666666667 191 473 c 128
 205 452.333333333 212 422.333333333 212 383 c 0
459 119 m 0
 459 159 452.5 188 439.5 206 c 128
 426.5 224 410 233 390 233 c 0
 367.333333333 233 356 216.333333333 356 183 c 0
 356 143 362.333333333 113.166666667 375 93.5 c 128
 387.666666667 73.8333333333 405 64 427 64 c 0
 448.333333333 64 459 82.3333333333 459 119 c 0
172 335 m 0
 172 375 165.666666667 404.833333333 153 424.5 c 128
 140.333333333 444.166666667 123 454 101 454 c 0
 79.6666666667 454 69 435.666666667 69 399 c 0
 69 359 76 329.333333333 90 310 c 0
 102 293.333333333 118 285 138 285 c 0
 160.666666667 285 172 301.666666667 172 335 c 0
EndSplineSet
EndChar

StartChar: ampersand.taml
Encoding: 8 -1 8
Width: 505
Flags: HW
LayerCount: 2
Fore
SplineSet
331 286 m 1
 463 286 l 1
 463 274 l 1
 447 274 433.333333333 270 422 262 c 0
 416.666666667 257.333333333 411 250.5 405 241.5 c 128
 399 232.5 391.333333333 219.333333333 382 202 c 0
 365.333333333 170 344.333333333 138.333333333 319 107 c 1
 326.333333333 98.3333333333 335 89.6666666667 345 81 c 128
 355 72.3333333333 363.333333333 65.6666666667 370 61 c 0
 385.333333333 52.3333333333 400 48 414 48 c 0
 445.333333333 48 464.666666667 63.6666666667 472 95 c 1
 485 86 l 1
 469 28 437 -1 389 -1 c 0
 372.333333333 -1 354 3.66666666667 334 13 c 0
 324.666666667 18.3333333333 315.5 24.6666666667 306.5 32 c 128
 297.5 39.3333333333 287 49 275 61 c 1
 252.333333333 41 228.5 25.5 203.5 14.5 c 128
 178.5 3.5 155.666666667 -2 135 -2 c 0
 104.333333333 -2 78.1666666667 7.5 56.5 26.5 c 128
 34.8333333333 45.5 24 68.6666666667 24 96 c 0
 24 119.333333333 33.1666666667 144 51.5 170 c 128
 69.8333333333 196 104.333333333 222.333333333 155 249 c 1
 137.666666667 288.333333333 129 320 129 344 c 0
 129 375.333333333 139.5 400.5 160.5 419.5 c 128
 181.5 438.5 208 448 240 448 c 0
 264 448 284.166666667 440.833333333 300.5 426.5 c 128
 316.833333333 412.166666667 325 394 325 372 c 256
 325 350 317.333333333 330.333333333 302 313 c 128
 286.666666667 295.666666667 259.333333333 277 220 257 c 1
 234 232.333333333 248 209 262 187 c 128
 276 165 290.333333333 144.666666667 305 126 c 1
 341.666666667 170.666666667 360 208 360 238 c 0
 360 247.333333333 357.833333333 255.333333333 353.5 262 c 128
 349.166666667 268.666666667 341.666666667 272.666666667 331 274 c 1
 331 286 l 1
210 278 m 1
 262 303.333333333 288 335 288 373 c 0
 288 387 283.333333333 399.333333333 274 410 c 128
 264.666666667 420.666666667 253 426 239 426 c 0
 222.333333333 426 209 420 199 408 c 128
 189 396 184 383 184 369 c 0
 184 357 185.5 345 188.5 333 c 128
 191.5 321 198.666666667 302.666666667 210 278 c 1
258 79 m 1
 229.333333333 119.666666667 210 148 200 164 c 0
 192.666666667 176 181 197.333333333 165 228 c 1
 139 212 120 196 108 180 c 0
 96 162 90 143.333333333 90 124 c 0
 90 101.333333333 97 81 111 63 c 0
 119 54.3333333333 127.5 47.5 136.5 42.5 c 128
 145.5 37.5 155.666666667 35 167 35 c 0
 179.666666667 35 193.5 38.5 208.5 45.5 c 128
 223.5 52.5 240 63.6666666667 258 79 c 1
EndSplineSet
EndChar

StartChar: quoteright.taml
Encoding: 9 -1 9
Width: 250
Flags: HW
LayerCount: 2
Fore
SplineSet
150 550 m 0
 140.666666667 502 115.666666667 464.666666667 75 438 c 0
 61.6666666667 429.333333333 42 420.333333333 16 411 c 1
 16 440 l 1
 48 450.666666667 73.6666666667 469 93 495 c 0
 109 516.333333333 117 535 117 551 c 0
 117 555.666666667 115.666666667 559 113 561 c 128
 110.333333333 563 106.666666667 564 102 564 c 256
 97.3333333333 564 90.1666666667 560.833333333 80.5 554.5 c 128
 70.8333333333 548.166666667 63 545 57 545 c 0
 49.6666666667 545 43.3333333333 547 38 551 c 0
 18 565 8 584 8 608 c 0
 8 620.666666667 11.3333333333 631.666666667 18 641 c 0
 23.3333333333 650.333333333 30.6666666667 657 40 661 c 128
 49.3333333333 665 59.6666666667 667 71 667 c 0
 78.3333333333 667 88 666.333333333 100 665 c 128
 112 663.666666667 123.666666667 653.333333333 135 634 c 128
 146.333333333 614.666666667 152 593.666666667 152 571 c 0
 152 561.666666667 151.333333333 554.666666667 150 550 c 0
EndSplineSet
EndChar

StartChar: parenleft.taml
Encoding: 10 -1 10
Width: 280
Flags: HW
LayerCount: 2
Fore
SplineSet
301 -246 m 1
 295 -253 l 1
 214.333333333 -207.666666667 152.666666667 -144.666666667 110 -64 c 0
 70 12 50 96.3333333333 50 189 c 0
 50 283.666666667 69.6666666667 368.333333333 109 443 c 0
 151 523 213 586 295 632 c 1
 301 626 l 1
 245 581.333333333 202 520.166666667 172 442.5 c 128
 142 364.833333333 127 281 127 191 c 0
 127 103 141.833333333 20 171.5 -58 c 128
 201.166666667 -136 244.333333333 -198.666666667 301 -246 c 1
EndSplineSet
EndChar

StartChar: parenright.taml
Encoding: 11 -1 11
Width: 280
Flags: HW
LayerCount: 2
Fore
SplineSet
190 189 m 0
 190 95 170.333333333 10.6666666667 131 -64 c 0
 89 -144 27 -207 -55 -253 c 1
 -61 -246 l 1
 -5 -199.333333333 38.3333333333 -135.333333333 69 -54 c 0
 97.6666666667 22 112 103.666666667 112 191 c 0
 112 281.666666667 97.6666666667 364.333333333 69 439 c 0
 38.3333333333 519 -5 581.333333333 -61 626 c 1
 -55 632 l 1
 25.6666666667 586.666666667 87.3333333333 523.666666667 130 443 c 0
 170 367 190 282.333333333 190 189 c 0
EndSplineSet
EndChar

StartChar: asterisk.taml
Encoding: 12 -1 12
Width: 600
Flags: HW
LayerCount: 2
Fore
SplineSet
293 401 m 1
 279.666666667 393 266.333333333 382.333333333 253 369 c 0
 237 353 221.333333333 337 206 321 c 0
 199.333333333 315.666666667 192 313 184 313 c 0
 172.666666667 313 164 318 158 328 c 0
 155.333333333 331.333333333 154 336.333333333 154 343 c 0
 154 359 159 368.5 169 371.5 c 128
 179 374.5 202 381 238 391 c 0
 258 396.333333333 274.333333333 402.666666667 287 410 c 1
 275.666666667 415.333333333 263.666666667 420 251 424 c 0
 225.666666667 430.666666667 200.333333333 437.666666667 175 445 c 0
 161.666666667 451 155 461.333333333 155 476 c 0
 155 482 156 487 158 491 c 0
 165.333333333 501 175 506 187 506 c 0
 195 506 201.333333333 503.666666667 206 499 c 0
 229.333333333 474.333333333 245 458 253 450 c 0
 265.666666667 437.333333333 279 426.333333333 293 417 c 1
 293 433.666666667 289.5 453.833333333 282.5 477.5 c 128
 275.5 501.166666667 270.666666667 520.333333333 268 535 c 0
 268 545.666666667 271 554.333333333 277 561 c 128
 283 567.666666667 290.333333333 571 299 571 c 256
 307.666666667 571 314.666666667 567.666666667 320 561 c 128
 325.333333333 554.333333333 328 545.333333333 328 534 c 1
 318.666666667 500.666666667 312.666666667 478.666666667 310 468 c 0
 305.333333333 450.666666667 303 434.333333333 303 419 c 1
 316.333333333 427 330 438 344 452 c 0
 372.666666667 480.666666667 388.833333333 496.5 392.5 499.5 c 128
 396.166666667 502.5 401.666666667 504 409 504 c 0
 421 504 430.666666667 499.333333333 438 490 c 0
 440 484.666666667 441 479.666666667 441 475 c 0
 441 458.333333333 434.333333333 448.333333333 421 445 c 0
 419 444.333333333 397.333333333 438.666666667 356 428 c 0
 338.666666667 423.333333333 322.666666667 417.333333333 308 410 c 1
 321.333333333 402.666666667 338 396.166666667 358 390.5 c 128
 378 384.833333333 399 379 421 373 c 0
 434.333333333 369.666666667 441 360 441 344 c 0
 441 338.666666667 440 334 438 330 c 0
 431.333333333 319.333333333 421.666666667 314 409 314 c 0
 402.333333333 314 396.666666667 316.333333333 392 321 c 0
 382 329.666666667 366 344.666666667 344 366 c 0
 329.333333333 380.666666667 315.666666667 391.666666667 303 399 c 1
 303 381.666666667 306.333333333 361 313 337 c 0
 317.666666667 319 322.666666667 301.333333333 328 284 c 1
 328 273.333333333 325.166666667 264.5 319.5 257.5 c 128
 313.833333333 250.5 307 247 299 247 c 256
 291 247 283.833333333 250.5 277.5 257.5 c 128
 271.166666667 264.5 268 273.333333333 268 284 c 0
 271.333333333 302 276.333333333 322.5 283 345.5 c 128
 289.666666667 368.5 293 387 293 401 c 1
EndSplineSet
EndChar

StartChar: plus.taml
Encoding: 13 -1 13
Width: 420
Flags: HW
LayerCount: 2
Fore
SplineSet
176 259 m 1
 176 334 l 1
 244 334 l 1
 244 259 l 1
 319 259 l 1
 319 191 l 1
 244 191 l 1
 244 116 l 1
 176 116 l 1
 176 191 l 1
 101 191 l 1
 101 259 l 1
 176 259 l 1
EndSplineSet
EndChar

StartChar: comma.taml
Encoding: 14 -1 14
Width: 220
Flags: HW
LayerCount: 2
Fore
SplineSet
154 34 m 0
 154 -4 140.666666667 -37 114 -65 c 0
 79.3333333333 -101.666666667 49 -120 23 -120 c 1
 23 -93 l 1
 34.3333333333 -93 52 -82.6666666667 76 -62 c 0
 104.666666667 -37.3333333333 119 -12 119 14 c 0
 119 22 115 26 107 26 c 0
 103 26 96.1666666667 22.8333333333 86.5 16.5 c 128
 76.8333333333 10.1666666667 69 7 63 7 c 0
 53 7 42.5 13.5 31.5 26.5 c 128
 20.5 39.5 15 53 15 67 c 0
 15 82.3333333333 20.6666666667 96 32 108 c 128
 43.3333333333 120 57 126 73 126 c 0
 96.3333333333 126 115.666666667 116.333333333 131 97 c 128
 146.333333333 77.6666666667 154 56.6666666667 154 34 c 0
EndSplineSet
EndChar

StartChar: hyphen.taml
Encoding: 15 -1 15
Width: 400
Flags: HW
LayerCount: 2
Fore
SplineSet
310 191 m 1
 30 191 l 1
 30 261 l 1
 310 261 l 1
 310 191 l 1
EndSplineSet
EndChar

StartChar: period.taml
Encoding: 16 -1 16
Width: 220
Flags: HW
LayerCount: 2
Fore
SplineSet
153 62 m 256
 153 44.6666666667 146.666666667 30 134 18 c 128
 121.333333333 6 106.333333333 0 89 0 c 0
 73 0 58.6666666667 6 46 18 c 128
 33.3333333333 30 27 44.6666666667 27 62 c 256
 27 79.3333333333 33 94 45 106 c 128
 57 118 71.6666666667 124 89 124 c 256
 106.333333333 124 121.333333333 118 134 106 c 128
 146.666666667 94 153 79.3333333333 153 62 c 256
EndSplineSet
EndChar

StartChar: slash.taml
Encoding: 18 -1 18
Width: 260
Flags: HW
LayerCount: 2
Fore
SplineSet
260 614 m 1
 21 -94 l 1
 -19 -94 l 1
 221 614 l 1
 260 614 l 1
EndSplineSet
EndChar

StartChar: zero.taml
Encoding: 19 -1 19
Width: 332
Flags: HW
LayerCount: 2
Fore
SplineSet
317 220 m 0
 317 164.666666667 307.333333333 116.666666667 288 76 c 0
 261.333333333 19.3333333333 220.666666667 -9 166 -9 c 0
 112 -9 71.6666666667 19 45 75 c 0
 25.6666666667 115.666666667 16 164 16 220 c 0
 16 274.666666667 25.6666666667 322.666666667 45 364 c 0
 71.6666666667 421.333333333 112 450 166 450 c 256
 220 450 260.333333333 421.666666667 287 365 c 0
 307 322.333333333 317 274 317 220 c 0
253 220 m 0
 253 288.666666667 245.833333333 341.166666667 231.5 377.5 c 128
 217.166666667 413.833333333 195.333333333 432 166 432 c 0
 138 432 116.666666667 413.666666667 102 377 c 128
 87.3333333333 340.333333333 80 288 80 220 c 0
 80 167.333333333 83.6666666667 125.333333333 91 94 c 0
 104.333333333 36.6666666667 129.333333333 8 166 8 c 0
 194 8 215.5 26 230.5 62 c 128
 245.5 98 253 150.666666667 253 220 c 0
EndSplineSet
EndChar

StartChar: one.taml
Encoding: 20 -1 20
Width: 332
Flags: HW
LayerCount: 2
Fore
SplineSet
78 0 m 1
 78 10 l 1
 102 10 117.666666667 12.3333333333 125 17 c 0
 136.333333333 23.6666666667 142 38.6666666667 142 62 c 2
 142 363 l 2
 142 374.333333333 141.333333333 381.333333333 140 384 c 0
 136.666666667 390.666666667 129.666666667 394 119 394 c 0
 113.666666667 394 110 393.666666667 108 393 c 0
 97.3333333333 389 86 384.666666667 74 380 c 1
 74 389 l 1
 194 450 l 1
 199 448 l 1
 199 49 l 2
 199 33 203.166666667 22.5 211.5 17.5 c 128
 219.833333333 12.5 236.666666667 10 262 10 c 1
 262 0 l 1
 78 0 l 1
EndSplineSet
EndChar

StartChar: two.taml
Encoding: 21 -1 21
Width: 332
Flags: HW
LayerCount: 2
Fore
SplineSet
316 91 m 1
 279 0 l 1
 20 0 l 1
 20 8 l 1
 138 134 l 2
 196 196 225 253 225 305 c 0
 225 328.333333333 219 348.333333333 207 365 c 0
 190.333333333 388.333333333 164.666666667 400 130 400 c 0
 102.666666667 400 81 390.333333333 65 371 c 0
 55 359.666666667 45 340.666666667 35 314 c 1
 21 317 l 1
 30.3333333333 363.666666667 49 398.333333333 77 421 c 0
 101 440.333333333 129.333333333 450 162 450 c 0
 193.333333333 450 221.166666667 438.833333333 245.5 416.5 c 128
 269.833333333 394.166666667 282 365.333333333 282 330 c 0
 282 298.666666667 271.666666667 266.666666667 251 234 c 0
 240.333333333 216.666666667 222.333333333 194.666666667 197 168 c 2
 85 51 l 1
 244 51 l 2
 258 51 269 53.3333333333 277 58 c 128
 285 62.6666666667 295 74.6666666667 307 94 c 1
 316 91 l 1
EndSplineSet
EndChar

StartChar: three.taml
Encoding: 22 -1 22
Width: 332
Flags: HW
LayerCount: 2
Fore
SplineSet
287 144 m 0
 287 98 269.666666667 61 235 33 c 128
 200.333333333 5 156.333333333 -9 103 -9 c 0
 85 -9 70.6666666667 -7.33333333333 60 -4 c 0
 39.3333333333 2 29 13 29 29 c 0
 29 37 31.8333333333 42.8333333333 37.5 46.5 c 128
 43.1666666667 50.1666666667 49 52 55 52 c 0
 63.6666666667 52 74.6666666667 48 88 40 c 0
 116.666666667 22.6666666667 137 14 149 14 c 0
 178.333333333 14 200.666666667 24.1666666667 216 44.5 c 128
 231.333333333 64.8333333333 239 89 239 117 c 0
 239 149.666666667 225.333333333 175.666666667 198 195 c 0
 174 211.666666667 141.666666667 220 101 220 c 1
 101 229 l 1
 135.666666667 239 161.666666667 252 179 268 c 0
 200.333333333 287.333333333 211 311.666666667 211 341 c 0
 211 359.666666667 205.333333333 375.333333333 194 388 c 0
 180.666666667 402.666666667 162.333333333 410 139 410 c 0
 112.333333333 410 89.3333333333 400.666666667 70 382 c 0
 58 370.666666667 48 356.333333333 40 339 c 1
 30 342 l 1
 42 381.333333333 61.3333333333 410 88 428 c 0
 109.333333333 442.666666667 133.333333333 450 160 450 c 0
 198.666666667 450 227 438.666666667 245 416 c 0
 258.333333333 399.333333333 265 380.666666667 265 360 c 0
 265 341.333333333 260.333333333 324.833333333 251 310.5 c 128
 241.666666667 296.166666667 225.333333333 281.666666667 202 267 c 1
 233.333333333 253.666666667 255.333333333 237.333333333 268 218 c 128
 280.666666667 198.666666667 287 174 287 144 c 0
EndSplineSet
EndChar

StartChar: four.taml
Encoding: 23 -1 23
Width: 332
Flags: HW
LayerCount: 2
Fore
SplineSet
314 154 m 1
 314 111 l 1
 246 111 l 1
 246 0 l 1
 195 0 l 1
 195 111 l 1
 8 111 l 1
 8 154 l 1
 217 450 l 1
 246 450 l 1
 246 154 l 1
 314 154 l 1
194 154 m 1
 194 380 l 1
 199 380 l 2
 196.333333333 380 168.333333333 342.333333333 115 267 c 0
 97.6666666667 242.333333333 71 204.666666667 35 154 c 1
 194 154 l 1
EndSplineSet
EndChar

StartChar: five.taml
Encoding: 24 -1 24
Width: 332
Flags: HW
LayerCount: 2
Fore
SplineSet
120 388 m 1
 92 331 l 1
 130 325 157.666666667 318.666666667 175 312 c 0
 205.666666667 300.666666667 229.666666667 284.333333333 247 263 c 0
 262.333333333 245 272.166666667 229 276.5 215 c 128
 280.833333333 201 283 179.333333333 283 150 c 0
 283 104.666666667 266.5 66.8333333333 233.5 36.5 c 128
 200.5 6.16666666667 157.666666667 -9 105 -9 c 0
 79.6666666667 -9 59.3333333333 -5.33333333333 44 2 c 128
 28.6666666667 9.33333333333 21 19 21 31 c 0
 21 37.6666666667 22.5 43.6666666667 25.5 49 c 128
 28.5 54.3333333333 36 57 48 57 c 0
 62 57 78.6666666667 50 98 36 c 128
 117.333333333 22 132.666666667 15 144 15 c 0
 168 15 189.5 25.3333333333 208.5 46 c 128
 227.5 66.6666666667 237 96 237 134 c 0
 237 181.333333333 214.333333333 218 169 244 c 0
 133.666666667 264 93 274 47 274 c 0
 45 274 43.5 274.833333333 42.5 276.5 c 128
 41.5 278.166666667 41.6666666667 280.333333333 43 283 c 2
 116 440 l 1
 255 440 l 1
 266 440 l 2
 270 440.666666667 275.333333333 443 282 447 c 0
 285 449 285 449 291 453 c 2
 266 394 l 2
 264 390 259 388 251 388 c 2
 120 388 l 1
EndSplineSet
EndChar

StartChar: six.taml
Encoding: 25 -1 25
Width: 332
Flags: HW
LayerCount: 2
Fore
SplineSet
297 455 m 1
 298 444 l 1
 242.666666667 435.333333333 196.666666667 411.666666667 160 373 c 0
 128 339 108.333333333 299.666666667 101 255 c 1
 120.333333333 267 135.666666667 275 147 279 c 128
 158.333333333 283 172.333333333 285 189 285 c 0
 225 285 254.333333333 272.666666667 277 248 c 128
 299.666666667 223.333333333 311 189 311 145 c 0
 311 109 302.333333333 77.3333333333 285 50 c 0
 259.666666667 10.6666666667 221 -9 169 -9 c 0
 126.333333333 -9 92 7.33333333333 66 40 c 0
 37.3333333333 75.3333333333 23 126.666666667 23 194 c 0
 23 264 48.3333333333 324.333333333 99 375 c 0
 152.333333333 428.333333333 218.333333333 455 297 455 c 1
161 254 m 0
 147.666666667 254 135.833333333 252.5 125.5 249.5 c 128
 115.166666667 246.5 106 241 98 233 c 0
 93.3333333333 228.333333333 89.8333333333 221.5 87.5 212.5 c 128
 85.1666666667 203.5 84 189.333333333 84 170 c 0
 84 116.666666667 93 76.5 111 49.5 c 128
 129 22.5 151.666666667 9 179 9 c 0
 201 9 218.5 18 231.5 36 c 128
 244.5 54 251 81.6666666667 251 119 c 0
 251 159 245 190 233 212 c 0
 217.666666667 240 193.666666667 254 161 254 c 0
EndSplineSet
EndChar

StartChar: seven.taml
Encoding: 26 -1 26
Width: 332
Flags: HW
LayerCount: 2
Fore
SplineSet
299 440 m 1
 299 430 l 1
 158 -5 l 1
 114 -5 l 1
 125.333333333 28.3333333333 136.666666667 62 148 96 c 0
 168.666666667 158.666666667 190.166666667 223.333333333 212.5 290 c 128
 234.833333333 356.666666667 246 390.333333333 246 391 c 2
 102 391 l 2
 82.6666666667 391 67.3333333333 386.333333333 56 377 c 0
 48 370.333333333 37.6666666667 357 25 337 c 1
 13 342 l 1
 53 440 l 1
 299 440 l 1
EndSplineSet
EndChar

StartChar: eight.taml
Encoding: 27 -1 27
Width: 332
Flags: HW
LayerCount: 2
Fore
SplineSet
141 207 m 1
 125.666666667 194.333333333 114.333333333 182.666666667 107 172 c 0
 94.3333333333 152.666666667 88 130 88 104 c 0
 88 76.6666666667 95.3333333333 54 110 36 c 128
 124.666666667 18 145.333333333 9 172 9 c 0
 193.333333333 9 210.833333333 15.8333333333 224.5 29.5 c 128
 238.166666667 43.1666666667 245 61.3333333333 245 84 c 0
 245 111.333333333 232.666666667 135.666666667 208 157 c 0
 198 165.666666667 175.666666667 182.333333333 141 207 c 1
37 97 m 0
 37 128.333333333 48 155 70 177 c 0
 78 185 96 199.666666667 124 221 c 1
 92.6666666667 248.333333333 72 268.666666667 62 282 c 0
 48 300.666666667 41 322 41 346 c 0
 41 378 53.8333333333 403.333333333 79.5 422 c 128
 105.166666667 440.666666667 134 450 166 450 c 0
 202 450 230.333333333 441 251 423 c 128
 271.666666667 405 282 382.333333333 282 355 c 0
 282 333.666666667 276 315 264 299 c 128
 252 283 228.333333333 265.666666667 193 247 c 1
 234.333333333 217 262.666666667 190 278 166 c 0
 290 146.666666667 296 124.666666667 296 100 c 0
 296 74.6666666667 288 52.3333333333 272 33 c 0
 248.666666667 5 212.666666667 -9 164 -9 c 0
 124 -9 92.8333333333 1.5 70.5 22.5 c 128
 48.1666666667 43.5 37 68.3333333333 37 97 c 0
90 364 m 0
 90 342 101 320 123 298 c 0
 135.666666667 285.333333333 152.666666667 272.333333333 174 259 c 1
 196.666666667 273.666666667 212.666666667 289 222 305 c 128
 231.333333333 321 236 338.666666667 236 358 c 0
 236 378.666666667 230.333333333 395.333333333 219 408 c 0
 205.666666667 423.333333333 186.666666667 431 162 431 c 0
 138.666666667 431 120.833333333 424.5 108.5 411.5 c 128
 96.1666666667 398.5 90 382.666666667 90 364 c 0
EndSplineSet
EndChar

StartChar: nine.taml
Encoding: 28 -1 28
Width: 332
Flags: HW
LayerCount: 2
Fore
SplineSet
39 -15 m 1
 37 -1 l 1
 89.6666666667 7.66666666667 133.666666667 30 169 66 c 128
 204.333333333 102 227.666666667 144.333333333 239 193 c 1
 207.666666667 169.666666667 174.666666667 158 140 158 c 0
 100 158 69 173 47 203 c 0
 29 227.666666667 20 256.333333333 20 289 c 0
 20 335 32.6666666667 373.333333333 58 404 c 128
 83.3333333333 434.666666667 117.333333333 450 160 450 c 0
 201.333333333 450 235.833333333 432.5 263.5 397.5 c 128
 291.166666667 362.5 305 317.666666667 305 263 c 0
 305 187.666666667 282 123.666666667 236 71 c 0
 186 13.6666666667 120.333333333 -15 39 -15 c 1
241 236 m 2
 241 262 l 2
 241 318 233.666666667 360.166666667 219 388.5 c 128
 204.333333333 416.833333333 182 431 152 431 c 0
 126.666666667 431 108.5 419.666666667 97.5 397 c 128
 86.5 374.333333333 81 347 81 315 c 0
 81 281.666666667 86.3333333333 254 97 232 c 0
 111.666666667 201.333333333 134.666666667 186 166 186 c 0
 176.666666667 186 188 188.166666667 200 192.5 c 128
 212 196.833333333 221.833333333 202.166666667 229.5 208.5 c 128
 237.166666667 214.833333333 241 224 241 236 c 2
EndSplineSet
EndChar

StartChar: colon.taml
Encoding: 29 -1 29
Width: 235
Flags: HW
LayerCount: 2
Fore
SplineSet
160 332 m 256
 160 314.666666667 153.666666667 300 141 288 c 128
 128.333333333 276 113.333333333 270 96 270 c 0
 80 270 65.6666666667 276 53 288 c 128
 40.3333333333 300 34 314.666666667 34 332 c 256
 34 349.333333333 40 364 52 376 c 128
 64 388 78.6666666667 394 96 394 c 256
 113.333333333 394 128.333333333 388 141 376 c 128
 153.666666667 364 160 349.333333333 160 332 c 256
160 52 m 256
 160 34.6666666667 153.666666667 20 141 8 c 128
 128.333333333 -4 113.333333333 -10 96 -10 c 0
 80 -10 65.6666666667 -4 53 8 c 128
 40.3333333333 20 34 34.6666666667 34 52 c 256
 34 69.3333333333 40 84 52 96 c 128
 64 108 78.6666666667 114 96 114 c 256
 113.333333333 114 128.333333333 108 141 96 c 128
 153.666666667 84 160 69.3333333333 160 52 c 256
EndSplineSet
EndChar

StartChar: semicolon.taml
Encoding: 30 -1 30
Width: 235
Flags: HW
LayerCount: 2
Fore
SplineSet
154 332 m 256
 154 314.666666667 147.666666667 300 135 288 c 128
 122.333333333 276 107.333333333 270 90 270 c 0
 74 270 59.6666666667 276 47 288 c 128
 34.3333333333 300 28 314.666666667 28 332 c 256
 28 349.333333333 34 364 46 376 c 128
 58 388 72.6666666667 394 90 394 c 256
 107.333333333 394 122.333333333 388 135 376 c 128
 147.666666667 364 154 349.333333333 154 332 c 256
154 34 m 0
 154 -4 140.666666667 -37 114 -65 c 0
 79.3333333333 -101.666666667 49 -120 23 -120 c 1
 23 -103 l 1
 33.6666666667 -103 51.3333333333 -91 76 -67 c 0
 104.666666667 -39 119 -12 119 14 c 0
 119 22 115 26 107 26 c 0
 103 26 96.1666666667 22.8333333333 86.5 16.5 c 128
 76.8333333333 10.1666666667 69 7 63 7 c 0
 53 7 42.5 13.5 31.5 26.5 c 128
 20.5 39.5 15 53 15 67 c 0
 15 82.3333333333 20.6666666667 96 32 108 c 128
 43.3333333333 120 57 126 73 126 c 0
 96.3333333333 126 115.666666667 116.333333333 131 97 c 128
 146.333333333 77.6666666667 154 56.6666666667 154 34 c 0
EndSplineSet
EndChar

StartChar: less.taml
Encoding: 31 -1 31
Width: 527
Flags: HW
LayerCount: 2
Fore
SplineSet
427 48 m 1
 427 -6 l 1
 23 178 l 1
 23 227 l 1
 427 410 l 1
 427 356 l 1
 89 202 l 1
 427 48 l 1
EndSplineSet
EndChar

StartChar: equal.taml
Encoding: 32 -1 32
Width: 564
Flags: HW
LayerCount: 2
Fore
SplineSet
484 359 m 1
 484 307 l 1
 80 307 l 1
 80 359 l 1
 484 359 l 1
484 199 m 1
 484 147 l 1
 80 147 l 1
 80 199 l 1
 484 199 l 1
EndSplineSet
EndChar

StartChar: greater.taml
Encoding: 33 -1 33
Width: 527
Flags: HW
LayerCount: 2
Fore
SplineSet
23 48 m 1
 361 202 l 1
 23 356 l 1
 23 410 l 1
 427 227 l 1
 427 178 l 1
 23 -6 l 1
 23 48 l 1
EndSplineSet
EndChar

StartChar: question.taml
Encoding: 34 -1 34
Width: 398
Flags: HW
LayerCount: 2
Fore
SplineSet
173 42 m 1
 159 42 l 1
 159 63.3333333333 162.333333333 86.6666666667 169 112 c 0
 171.666666667 122.666666667 176.333333333 137 183 155 c 2
 206 207 l 2
 212.666666667 223.666666667 219.166666667 244 225.5 268 c 128
 231.833333333 292 235 311 235 325 c 0
 235 352.333333333 228.333333333 375.333333333 215 394 c 0
 199 416 176.333333333 427 147 427 c 0
 129.666666667 427 113 422.166666667 97 412.5 c 128
 81 402.833333333 73 391.333333333 73 378 c 0
 73 372 76 365.333333333 82 358 c 0
 96 340.666666667 103 327.333333333 103 318 c 0
 103 309.333333333 100.666666667 301.833333333 96 295.5 c 128
 91.3333333333 289.166666667 83.3333333333 286 72 286 c 0
 58 286 47.8333333333 290.666666667 41.5 300 c 128
 35.1666666667 309.333333333 32 321.333333333 32 336 c 0
 32 372.666666667 47 402 77 424 c 0
 101.666666667 442 130.333333333 451 163 451 c 0
 185.666666667 451 208 446.5 230 437.5 c 128
 252 428.5 268.5 417.333333333 279.5 404 c 128
 290.5 390.666666667 298 378.166666667 302 366.5 c 128
 306 354.833333333 308 338.666666667 308 318 c 0
 308 299.333333333 301 277 287 251 c 0
 276.333333333 230.333333333 263.333333333 211 248 193 c 0
 224.666666667 166.333333333 208.333333333 143.666666667 199 125 c 0
 187.666666667 102.333333333 179 74.6666666667 173 42 c 1
168 -95 m 0
 156.666666667 -95 147.333333333 -92.3333333333 140 -87 c 0
 130 -79.6666666667 125 -68.6666666667 125 -54 c 0
 125 -42 129.166666667 -31.8333333333 137.5 -23.5 c 128
 145.833333333 -15.1666666667 156 -11 168 -11 c 0
 179.333333333 -11 189.333333333 -15.3333333333 198 -24 c 128
 206.666666667 -32.6666666667 211 -42.6666666667 211 -54 c 0
 211 -67.3333333333 206.5 -77.5 197.5 -84.5 c 128
 188.5 -91.5 178.666666667 -95 168 -95 c 0
EndSplineSet
EndChar

StartChar: u0952
Encoding: 38 2386 38
Width: 10
Flags: HW
LayerCount: 2
Fore
SplineSet
-100 -359 m 1
 -552 -359 l 1
 -588 -302 l 1
 -136 -302 l 1
 -100 -359 l 1
2 0 m 1
 0 2 l 1
 2 0 l 1
2 0 m 1
 0 2 l 1
 2 0 l 1
EndSplineSet
EndChar

StartChar: u0B82
Encoding: 39 2946 39
Width: 680
Flags: HW
LayerCount: 2
Fore
SplineSet
355 582 m 256
 355 597.333007812 349.333007812 610.666992188 338 622 c 128
 326.666992188 633.333007812 313.333007812 639 298 639 c 256
 282.666992188 639 269.333007812 633.333007812 258 622 c 128
 246.666992188 610.666992188 241 597.333007812 241 582 c 256
 241 566.666992188 246.666992188 553.333007812 258 542 c 128
 269.333007812 530.666992188 282.666992188 525 298 525 c 256
 313.333007812 525 326.666992188 530.666992188 338 542 c 128
 349.333007812 553.333007812 355 566.666992188 355 582 c 256
298 676 m 256
 324 676 346.166992188 666.833007812 364.5 648.5 c 128
 382.833007812 630.166992188 392 608 392 582 c 256
 392 556 382.833007812 533.833007812 364.5 515.5 c 128
 346.166992188 497.166992188 324 488 298 488 c 256
 272 488 249.833007812 497.166992188 231.5 515.5 c 128
 213.166992188 533.833007812 204 556 204 582 c 256
 204 608 213.166992188 630.166992188 231.5 648.5 c 128
 249.833007812 666.833007812 272 676 298 676 c 256
EndSplineSet
EndChar

StartChar: u0B83
Encoding: 40 2947 40
Width: 510
Flags: HW
LayerCount: 2
Fore
SplineSet
205 444 m 256
 220.333333333 444 233.666666667 438.333333333 245 427 c 128
 256.333333333 415.666666667 262 402.333333333 262 387 c 256
 262 371.666666667 256.333333333 358.333333333 245 347 c 128
 233.666666667 335.666666667 220.333333333 330 205 330 c 256
 189.666666667 330 176.333333333 335.666666667 165 347 c 128
 153.666666667 358.333333333 148 371.666666667 148 387 c 256
 148 402.333333333 153.666666667 415.666666667 165 427 c 128
 176.333333333 438.333333333 189.666666667 444 205 444 c 256
57 120 m 256
 72.3333333333 120 85.6666666667 114.333333333 97 103 c 128
 108.333333333 91.6666666667 114 78.3333333333 114 63 c 256
 114 47.6666666667 108.333333333 34.3333333333 97 23 c 128
 85.6666666667 11.6666666667 72.3333333333 6 57 6 c 256
 41.6666666667 6 28.3333333333 11.6666666667 17 23 c 128
 5.66666666667 34.3333333333 0 47.6666666667 0 63 c 256
 0 78.3333333333 5.66666666667 91.6666666667 17 103 c 128
 28.3333333333 114.333333333 41.6666666667 120 57 120 c 256
353 120 m 256
 368.333333333 120 381.666666667 114.333333333 393 103 c 128
 404.333333333 91.6666666667 410 78.3333333333 410 63 c 256
 410 47.6666666667 404.333333333 34.3333333333 393 23 c 128
 381.666666667 11.6666666667 368.333333333 6 353 6 c 256
 337.666666667 6 324.333333333 11.6666666667 313 23 c 128
 301.666666667 34.3333333333 296 47.6666666667 296 63 c 256
 296 78.3333333333 301.666666667 91.6666666667 313 103 c 128
 324.333333333 114.333333333 337.666666667 120 353 120 c 256
EndSplineSet
EndChar

StartChar: u0B85
Encoding: 41 2949 41
Width: 820
Flags: HW
AnchorPoint: "V" 363 455 basechar 0
AnchorPoint: "N" 363 -75 basechar 0
LayerCount: 2
Fore
SplineSet
725 -75 m 1
 650 -75 l 1
 650 135 l 1
 554 135 l 1
 528 92.3333333333 489.666666667 59.1666666667 439 35.5 c 128
 388.333333333 11.8333333333 331.333333333 0 268 0 c 0
 192 0 130.666666667 14.6666666667 84 44 c 0
 51.3333333333 64.6666666667 25 93 5 129 c 0
 2.33333333333 134.333333333 1 139 1 143 c 0
 1 151 3.5 157.5 8.5 162.5 c 128
 13.5 167.5 21.6666666667 170 33 170 c 2
 494 170 l 1
 514 202.666666667 524 237.666666667 524 275 c 0
 524 313.666666667 514.166666667 343.5 494.5 364.5 c 128
 474.833333333 385.5 447.333333333 400 412 408 c 1
 441.333333333 392 456 360 456 312 c 0
 456 282 448.666666667 258 434 240 c 0
 416.666666667 218.666666667 390 208 354 208 c 0
 322.666666667 208 298.333333333 219.833333333 281 243.5 c 128
 263.666666667 267.166666667 255 295.666666667 255 329 c 0
 255 363.666666667 266.5 392.5 289.5 415.5 c 128
 312.5 438.5 345 450 387 450 c 0
 449.666666667 450 498.833333333 433.166666667 534.5 399.5 c 128
 570.166666667 365.833333333 588 318 588 256 c 0
 588 239.333333333 586.833333333 225.166666667 584.5 213.5 c 128
 582.166666667 201.833333333 577.666666667 187.333333333 571 170 c 1
 650 170 l 1
 650 450 l 1
 725 450 l 1
 725 -75 l 1
398 320 m 0
 398 340.666666667 394.166666667 358.166666667 386.5 372.5 c 128
 378.833333333 386.833333333 369.666666667 396.333333333 359 401 c 1
 339.666666667 403.666666667 323.333333333 397.5 310 382.5 c 128
 296.666666667 367.5 290 349 290 327 c 256
 290 305 295.5 288.5 306.5 277.5 c 128
 317.5 266.5 330.333333333 261 345 261 c 0
 361.666666667 261 374.666666667 267 384 279 c 128
 393.333333333 291 398 304.666666667 398 320 c 0
472 135 m 1
 64 135 l 2
 50 135 43 131.333333333 43 124 c 0
 43 121.333333333 44.3333333333 118 47 114 c 0
 63 90.6666666667 86 72.3333333333 116 59 c 0
 152 43 196.666666667 35 250 35 c 0
 344.666666667 35 418.666666667 68.3333333333 472 135 c 1
EndSplineSet
EndChar

StartChar: u0B86
Encoding: 42 2950 42
Width: 1010
Flags: HW
AnchorPoint: "V" 455.5 455 basechar 0
AnchorPoint: "N" 455.5 -250 basechar 0
LayerCount: 2
Fore
SplineSet
910 46 m 0
 910 -48.6666666667 879 -122.333333333 817 -175 c 0
 758.333333333 -225 681 -250 585 -250 c 0
 498.333333333 -250 431.5 -238.833333333 384.5 -216.5 c 128
 337.5 -194.166666667 314 -162.333333333 314 -121 c 0
 314 -93 326.333333333 -71.6666666667 351 -57 c 128
 375.666666667 -42.3333333333 406 -35 442 -35 c 0
 468 -35 493 -39.1666666667 517 -47.5 c 128
 541 -55.8333333333 561 -67.3333333333 577 -82 c 1
 567 -100 l 1
 551 -88 531.166666667 -78.5 507.5 -71.5 c 128
 483.833333333 -64.5 460.333333333 -61 437 -61 c 0
 408.333333333 -61 386.166666667 -66 370.5 -76 c 128
 354.833333333 -86 347 -100.333333333 347 -119 c 0
 347 -152.333333333 369.333333333 -177.333333333 414 -194 c 0
 451.333333333 -208 498.333333333 -215 555 -215 c 0
 638.333333333 -215 705.833333333 -190.166666667 757.5 -140.5 c 128
 809.166666667 -90.8333333333 835 -30 835 42 c 0
 835 82 826.333333333 113.333333333 809 136 c 0
 794.333333333 155.333333333 776.666666667 165 756 165 c 0
 743.333333333 165 733 161 725 153 c 1
 725 -75 l 1
 650 -75 l 1
 650 135 l 1
 554 135 l 1
 528 92.3333333333 489.666666667 59.1666666667 439 35.5 c 128
 388.333333333 11.8333333333 331.333333333 0 268 0 c 0
 192 0 130.666666667 14.6666666667 84 44 c 0
 51.3333333333 64.6666666667 25 93 5 129 c 0
 2.33333333333 134.333333333 1 139 1 143 c 0
 1 151 3.5 157.5 8.5 162.5 c 128
 13.5 167.5 21.6666666667 170 33 170 c 2
 494 170 l 1
 514 202.666666667 524 237.666666667 524 275 c 0
 524 313.666666667 514.166666667 343.5 494.5 364.5 c 128
 474.833333333 385.5 447.333333333 400 412 408 c 1
 441.333333333 392 456 360 456 312 c 0
 456 282 448.666666667 258 434 240 c 0
 416.666666667 218.666666667 390 208 354 208 c 0
 322.666666667 208 298.333333333 219.833333333 281 243.5 c 128
 263.666666667 267.166666667 255 295.666666667 255 329 c 0
 255 363.666666667 266.5 392.5 289.5 415.5 c 128
 312.5 438.5 345 450 387 450 c 0
 449.666666667 450 498.833333333 433.166666667 534.5 399.5 c 128
 570.166666667 365.833333333 588 318 588 256 c 0
 588 239.333333333 586.833333333 225.166666667 584.5 213.5 c 128
 582.166666667 201.833333333 577.666666667 187.333333333 571 170 c 1
 650 170 l 1
 650 450 l 1
 725 450 l 1
 725 187 l 1
 741 203 760.666666667 211 784 211 c 0
 818 211 847.5 196.333333333 872.5 167 c 128
 897.5 137.666666667 910 97.3333333333 910 46 c 0
398 320 m 0
 398 340.666666667 394.166666667 358.166666667 386.5 372.5 c 128
 378.833333333 386.833333333 369.666666667 396.333333333 359 401 c 1
 339.666666667 403.666666667 323.333333333 397.5 310 382.5 c 128
 296.666666667 367.5 290 349 290 327 c 256
 290 305 295.5 288.5 306.5 277.5 c 128
 317.5 266.5 330.333333333 261 345 261 c 0
 361.666666667 261 374.666666667 267 384 279 c 128
 393.333333333 291 398 304.666666667 398 320 c 0
472 135 m 1
 64 135 l 2
 50 135 43 131.333333333 43 124 c 0
 43 121.333333333 44.3333333333 118 47 114 c 0
 63 90.6666666667 86 72.3333333333 116 59 c 0
 152 43 196.666666667 35 250 35 c 0
 344.666666667 35 418.666666667 68.3333333333 472 135 c 1
EndSplineSet
EndChar

StartChar: u0B87
Encoding: 43 2951 43
Width: 770
Flags: HW
AnchorPoint: "V" 340 644.917 basechar 0
AnchorPoint: "N" 340 -90 basechar 0
LayerCount: 2
Fore
SplineSet
268 320 m 0
 268 340.666666667 264.166666667 358.166666667 256.5 372.5 c 128
 248.833333333 386.833333333 239.666666667 396.333333333 229 401 c 1
 209.666666667 403.666666667 193.333333333 397.5 180 382.5 c 128
 166.666666667 367.5 160 349 160 327 c 256
 160 305 165.5 288.5 176.5 277.5 c 128
 187.5 266.5 200.333333333 261 215 261 c 0
 231.666666667 261 244.666666667 267 254 279 c 128
 263.333333333 291 268 304.666666667 268 320 c 0
298 -43 m 1
 324 -51 351.333333333 -55 380 -55 c 0
 414.666666667 -55 441.333333333 -45.6666666667 460 -27 c 128
 478.666666667 -8.33333333333 488 14 488 40 c 0
 488 54 483.166666667 67.5 473.5 80.5 c 128
 463.833333333 93.5 449.666666667 105.333333333 431 116 c 1
 402.333333333 48 358 -5 298 -43 c 1
82 79 m 1
 50.6666666667 56.3333333333 35 32.3333333333 35 7 c 0
 35 -11.6666666667 43.6666666667 -26.6666666667 61 -38 c 128
 78.3333333333 -49.3333333333 100.666666667 -55 128 -55 c 0
 154 -55 179 -49.6666666667 203 -39 c 1
 171.666666667 -19.6666666667 143.666666667 3.66666666667 119 31 c 0
 113 38.3333333333 106.666666667 46.1666666667 100 54.5 c 128
 93.3333333333 62.8333333333 87.3333333333 71 82 79 c 1
113 99 m 1
 121.666666667 86.3333333333 127.833333333 77.6666666667 131.5 73 c 128
 135.166666667 68.3333333333 142.333333333 60.3333333333 153 49 c 0
 179 22.3333333333 208.333333333 -0.333333333333 241 -19 c 1
 299.666666667 18.3333333333 343 71.3333333333 371 140 c 1
 347.666666667 146 323.333333333 149 298 149 c 0
 267.333333333 149 235.833333333 144.666666667 203.5 136 c 128
 171.166666667 127.333333333 141 115 113 99 c 1
382 174 m 1
 390 200 394 227 394 255 c 0
 394 301.666666667 383.666666667 337.666666667 363 363 c 0
 345 385 318 400 282 408 c 1
 311.333333333 392 326 360 326 312 c 0
 326 282 318.666666667 258 304 240 c 0
 286.666666667 218.666666667 260 208 224 208 c 0
 192.666666667 208 168.333333333 219.833333333 151 243.5 c 128
 133.666666667 267.166666667 125 295.666666667 125 329 c 0
 125 363.666666667 136.5 392.5 159.5 415.5 c 128
 182.5 438.5 215 450 257 450 c 0
 319.666666667 450 368.833333333 433.166666667 404.5 399.5 c 128
 440.166666667 365.833333333 458 318 458 256 c 0
 458 237.333333333 457.166666667 221 455.5 207 c 128
 453.833333333 193 450.333333333 176.333333333 445 157 c 1
 478.333333333 145 505.5 128.833333333 526.5 108.5 c 128
 547.5 88.1666666667 558 64.6666666667 558 38 c 0
 558 -4.66666666667 541.833333333 -36.6666666667 509.5 -58 c 128
 477.166666667 -79.3333333333 433.666666667 -90 379 -90 c 0
 337 -90 295.666666667 -81.6666666667 255 -65 c 1
 215.666666667 -81.6666666667 175 -90 133 -90 c 0
 92.3333333333 -90 60.6666666667 -82.3333333333 38 -67 c 0
 12.6666666667 -49.6666666667 0 -23.6666666667 0 11 c 0
 0 29.6666666667 5.33333333333 47.1666666667 16 63.5 c 128
 26.6666666667 79.8333333333 42 95.6666666667 62 111 c 1
 20.6666666667 184.333333333 0 257.333333333 0 330 c 0
 0 429.333333333 33 507.666666667 99 565 c 0
 160.333333333 618.333333333 238 645 332 645 c 0
 438.666666667 645 523.333333333 610 586 540 c 128
 648.666666667 470 680 372.333333333 680 247 c 0
 680 192.333333333 673.666666667 136.333333333 661 79 c 0
 646.333333333 11.6666666667 627.333333333 -44.6666666667 604 -90 c 1
 578 -79 l 1
 592 -53.6666666667 605.666666667 -16.3333333333 619 33 c 0
 636.333333333 98.3333333333 645 162.333333333 645 225 c 0
 645 331 615.5 415.5 556.5 478.5 c 128
 497.5 541.5 422.666666667 573 332 573 c 0
 246.666666667 573 175.833333333 549.166666667 119.5 501.5 c 128
 63.1666666667 453.833333333 35 394.666666667 35 324 c 0
 35 293.333333333 39.6666666667 261.833333333 49 229.5 c 128
 58.3333333333 197.166666667 73 164 93 130 c 1
 157 164 226 181 300 181 c 0
 329.333333333 181 356.666666667 178.666666667 382 174 c 1
EndSplineSet
EndChar

StartChar: u0B88
Encoding: 44 2952 44
Width: 520
Flags: HW
AnchorPoint: "V" 208 455 basechar 0
AnchorPoint: "N" 208 0 basechar 0
LayerCount: 2
Fore
SplineSet
416 225 m 256
 416 212.333333333 411.833333333 201.833333333 403.5 193.5 c 128
 395.166666667 185.166666667 384.666666667 181 372 181 c 256
 359.333333333 181 348.833333333 185.166666667 340.5 193.5 c 128
 332.166666667 201.833333333 328 212.333333333 328 225 c 256
 328 237.666666667 332 248.333333333 340 257 c 128
 348 265.666666667 358.666666667 270 372 270 c 0
 384 270 394.333333333 265.666666667 403 257 c 128
 411.666666667 248.333333333 416 237.666666667 416 225 c 256
385 415 m 1
 285 415 l 1
 285 0 l 1
 210 0 l 1
 210 415 l 1
 35 415 l 1
 35 0 l 1
 0 0 l 1
 0 450 l 1
 385 450 l 1
 385 415 l 1
166 225 m 256
 166 212.333333333 161.833333333 201.833333333 153.5 193.5 c 128
 145.166666667 185.166666667 134.666666667 181 122 181 c 256
 109.333333333 181 98.8333333333 185.166666667 90.5 193.5 c 128
 82.1666666667 201.833333333 78 212.333333333 78 225 c 256
 78 237.666666667 82 248.333333333 90 257 c 128
 98 265.666666667 108.666666667 270 122 270 c 0
 134 270 144.333333333 265.666666667 153 257 c 128
 161.666666667 248.333333333 166 237.666666667 166 225 c 256
EndSplineSet
EndChar

StartChar: u0B89
Encoding: 45 2953 45
Width: 810
Flags: HW
AnchorPoint: "V" 379.5 455 basechar 0
AnchorPoint: "N" 379.5 0 basechar 0
LayerCount: 2
Fore
SplineSet
735 0 m 2
 79 0 l 2
 55 0 35.8333333333 6.33333333333 21.5 19 c 128
 7.16666666667 31.6666666667 0 46.3333333333 0 63 c 0
 0 80.3333333333 7 95.3333333333 21 108 c 128
 35 120.666666667 54.3333333333 127 79 127 c 2
 206 127 l 2
 236 127 261 141.333333333 281 170 c 0
 299 196 308 225.333333333 308 258 c 0
 308 308 297.333333333 346 276 372 c 0
 252.666666667 400.666666667 215 415 163 415 c 0
 129.666666667 415 100.166666667 405.5 74.5 386.5 c 128
 48.8333333333 367.5 36 346.333333333 36 323 c 1
 52.6666666667 351 77.6666666667 365 111 365 c 0
 139.666666667 365 162.666666667 354.833333333 180 334.5 c 128
 197.333333333 314.166666667 206 289 206 259 c 0
 206 226.333333333 196.666666667 201 178 183 c 128
 159.333333333 165 134 156 102 156 c 0
 65.3333333333 156 38.3333333333 171.333333333 21 202 c 0
 7 226.666666667 0 260.666666667 0 304 c 0
 0 342.666666667 15.3333333333 376 46 404 c 0
 79.3333333333 434.666666667 123 450 177 450 c 0
 242.333333333 450 292.166666667 433 326.5 399 c 128
 360.833333333 365 378 319.333333333 378 262 c 0
 378 146 321 88 207 88 c 2
 107 88 l 2
 93.6666666667 88 83.1666666667 85.1666666667 75.5 79.5 c 128
 67.8333333333 73.8333333333 64 67 64 59 c 0
 64 39.6666666667 78 30 106 30 c 2
 735 30 l 2
 751 30 759 25 759 15 c 256
 759 5 751 0 735 0 c 2
141 277 m 0
 138.333333333 288.333333333 132 298 122 306 c 128
 112 314 101 318 89 318 c 0
 66.3333333333 318 48.3333333333 306 35 282 c 1
 35 258.666666667 40.3333333333 239.166666667 51 223.5 c 128
 61.6666666667 207.833333333 76 200 94 200 c 0
 110 200 122.166666667 206.166666667 130.5 218.5 c 128
 138.833333333 230.833333333 143 245 143 261 c 0
 143 265 142.333333333 270.333333333 141 277 c 0
EndSplineSet
EndChar

StartChar: u0B8A
Encoding: 46 2954 46
Width: 1300
Flags: HW
AnchorPoint: "V" 605 455 basechar 0
AnchorPoint: "N" 605 0 basechar 0
LayerCount: 2
Fore
SplineSet
1210 415 m 1
 1110 415 l 1
 1110 60 l 1
 1035 60 l 1
 1035 415 l 1
 920 415 l 1
 920 60 l 1
 845 60 l 1
 845 314 l 2
 845 344 832.333333333 368.333333333 807 387 c 128
 781.666666667 405.666666667 747 415 703 415 c 0
 651.666666667 415 607 401.666666667 569 375 c 0
 534.333333333 351 517 326.666666667 517 302 c 1
 525.666666667 313.333333333 538.5 322.333333333 555.5 329 c 128
 572.5 335.666666667 592 339 614 339 c 0
 650 339 680 326.333333333 704 301 c 128
 728 275.666666667 740 243.333333333 740 204 c 0
 740 159.333333333 731 124.166666667 713 98.5 c 128
 695 72.8333333333 667.666666667 60 631 60 c 0
 585 60 548.333333333 77.3333333333 521 112 c 128
 493.666666667 146.666666667 480 194.666666667 480 256 c 0
 480 316 500 363.333333333 540 398 c 128
 580 432.666666667 631.333333333 450 694 450 c 0
 755.333333333 450 803 442 837 426 c 0
 865 412.666666667 882.666666667 395.666666667 890 375 c 1
 890 450 l 1
 1210 450 l 1
 1210 415 l 1
1175 0 m 2
 79 0 l 2
 55 0 35.8333333333 6.33333333333 21.5 19 c 128
 7.16666666667 31.6666666667 0 46.3333333333 0 63 c 0
 0 80.3333333333 7 95.3333333333 21 108 c 128
 35 120.666666667 54.3333333333 127 79 127 c 2
 206 127 l 2
 236 127 261 141.333333333 281 170 c 0
 299 196 308 225.333333333 308 258 c 0
 308 308 297.333333333 346 276 372 c 0
 252.666666667 400.666666667 215 415 163 415 c 0
 129.666666667 415 100.166666667 405.5 74.5 386.5 c 128
 48.8333333333 367.5 36 346.333333333 36 323 c 1
 52.6666666667 351 77.6666666667 365 111 365 c 0
 139.666666667 365 162.666666667 354.833333333 180 334.5 c 128
 197.333333333 314.166666667 206 289 206 259 c 0
 206 226.333333333 196.666666667 201 178 183 c 128
 159.333333333 165 134 156 102 156 c 0
 65.3333333333 156 38.3333333333 171.333333333 21 202 c 0
 7 226.666666667 0 260.666666667 0 304 c 0
 0 342.666666667 15.3333333333 376 46 404 c 0
 79.3333333333 434.666666667 123 450 177 450 c 0
 242.333333333 450 292.166666667 433 326.5 399 c 128
 360.833333333 365 378 319.333333333 378 262 c 0
 378 146 321 88 207 88 c 2
 107 88 l 2
 93.6666666667 88 83.1666666667 85.1666666667 75.5 79.5 c 128
 67.8333333333 73.8333333333 64 67 64 59 c 0
 64 39.6666666667 78 30 106 30 c 2
 1175 30 l 2
 1191 30 1199 25 1199 15 c 256
 1199 5 1191 0 1175 0 c 2
661 205 m 0
 661 226.333333333 653.5 245.833333333 638.5 263.5 c 128
 623.5 281.166666667 606.333333333 290 587 290 c 0
 569 290 553.5 285.166666667 540.5 275.5 c 128
 527.5 265.833333333 519 254 515 240 c 1
 515 212.666666667 521.666666667 187.333333333 535 164 c 0
 551 136 571.333333333 122 596 122 c 0
 616.666666667 122 632.666666667 130.166666667 644 146.5 c 128
 655.333333333 162.833333333 661 182.333333333 661 205 c 0
141 277 m 0
 138.333333333 288.333333333 132 298 122 306 c 128
 112 314 101 318 89 318 c 0
 66.3333333333 318 48.3333333333 306 35 282 c 1
 35 258.666666667 40.3333333333 239.166666667 51 223.5 c 128
 61.6666666667 207.833333333 76 200 94 200 c 0
 110 200 122.166666667 206.166666667 130.5 218.5 c 128
 138.833333333 230.833333333 143 245 143 261 c 0
 143 265 142.333333333 270.333333333 141 277 c 0
EndSplineSet
EndChar

StartChar: u0B8E
Encoding: 47 2958 47
Width: 640
Flags: HW
AnchorPoint: "V" 270 455 basechar 0
AnchorPoint: "N" 270 0 basechar 0
LayerCount: 2
Fore
SplineSet
540 415 m 1
 440 415 l 1
 440 0 l 1
 365 0 l 1
 365 415 l 1
 223 415 l 2
 163 415 115.333333333 396.333333333 80 359 c 0
 50.6666666667 328.333333333 36 293.666666667 36 255 c 1
 44 267 56.8333333333 276.833333333 74.5 284.5 c 128
 92.1666666667 292.166666667 111.666666667 296 133 296 c 0
 171.666666667 296 203.166666667 282.833333333 227.5 256.5 c 128
 251.833333333 230.166666667 264 196 264 154 c 0
 264 106.666666667 255.333333333 70 238 44 c 0
 218.666666667 14.6666666667 189.666666667 0 151 0 c 0
 103 0 65.8333333333 18.1666666667 39.5 54.5 c 128
 13.1666666667 90.8333333333 0 141.666666667 0 207 c 0
 0 281.666666667 19.3333333333 340.833333333 58 384.5 c 128
 96.6666666667 428.166666667 148.666666667 450 214 450 c 2
 540 450 l 1
 540 415 l 1
189 152 m 0
 189 176 181.166666667 197.833333333 165.5 217.5 c 128
 149.833333333 237.166666667 131.666666667 247 111 247 c 0
 91 247 74.6666666667 242 62 232 c 128
 49.3333333333 222 40.3333333333 208.333333333 35 191 c 1
 35 153.666666667 42.3333333333 122.5 57 97.5 c 128
 71.6666666667 72.5 92.6666666667 60 120 60 c 0
 142 60 159 69.1666666667 171 87.5 c 128
 183 105.833333333 189 127.333333333 189 152 c 0
EndSplineSet
EndChar

StartChar: u0B8F
Encoding: 48 2959 48
Width: 640
Flags: HW
AnchorPoint: "V" 270 455 basechar 0
AnchorPoint: "N" 270 -140 basechar 0
LayerCount: 2
Fore
SplineSet
540 415 m 1
 440 415 l 1
 440 0 l 1
 275 -140 l 1
 215 -140 l 1
 365 0 l 1
 365 415 l 1
 223 415 l 2
 163 415 115.333333333 396.333333333 80 359 c 0
 50.6666666667 328.333333333 36 293.666666667 36 255 c 1
 44 267 56.8333333333 276.833333333 74.5 284.5 c 128
 92.1666666667 292.166666667 111.666666667 296 133 296 c 0
 171.666666667 296 203.166666667 282.833333333 227.5 256.5 c 128
 251.833333333 230.166666667 264 196 264 154 c 0
 264 106.666666667 255.333333333 70 238 44 c 0
 218.666666667 14.6666666667 189.666666667 0 151 0 c 0
 103 0 65.8333333333 18.1666666667 39.5 54.5 c 128
 13.1666666667 90.8333333333 0 141.666666667 0 207 c 0
 0 281.666666667 19.3333333333 340.833333333 58 384.5 c 128
 96.6666666667 428.166666667 148.666666667 450 214 450 c 2
 540 450 l 1
 540 415 l 1
189 152 m 0
 189 176 181.166666667 197.833333333 165.5 217.5 c 128
 149.833333333 237.166666667 131.666666667 247 111 247 c 0
 91 247 74.6666666667 242 62 232 c 128
 49.3333333333 222 40.3333333333 208.333333333 35 191 c 1
 35 153.666666667 42.3333333333 122.5 57 97.5 c 128
 71.6666666667 72.5 92.6666666667 60 120 60 c 0
 142 60 159 69.1666666667 171 87.5 c 128
 183 105.833333333 189 127.333333333 189 152 c 0
EndSplineSet
EndChar

StartChar: u0B90
Encoding: 49 2960 49
Width: 650
Flags: HW
AnchorPoint: "V" 275 455 basechar 0
AnchorPoint: "N" 275 -177 basechar 0
LayerCount: 2
Fore
SplineSet
550 292 m 0
 550 259.333333333 544.333333333 229.333333333 533 202 c 0
 519 168.666666667 498.666666667 144.666666667 472 130 c 0
 437.333333333 112 381.833333333 101.166666667 305.5 97.5 c 128
 229.166666667 93.8333333333 178.333333333 87.3333333333 153 78 c 0
 137.666666667 72 124.333333333 61.3333333333 113 46 c 0
 97.6666666667 25.3333333333 90 1 90 -27 c 0
 90 -59 97 -85.8333333333 111 -107.5 c 128
 125 -129.166666667 145.333333333 -140 172 -140 c 0
 194 -140 214.166666667 -130.5 232.5 -111.5 c 128
 250.833333333 -92.5 260 -73.6666666667 260 -55 c 2
 260 8 l 1
 330 8 l 1
 330 -53 l 2
 330 -75 337.333333333 -94.6666666667 352 -112 c 0
 369.333333333 -132.666666667 391.666666667 -143 419 -143 c 0
 444.333333333 -143 463.333333333 -134 476 -116 c 0
 486.666666667 -100.666666667 492 -79.6666666667 492 -53 c 0
 492 -35 489.666666667 -18.5 485 -3.5 c 128
 480.333333333 11.5 473.666666667 24.3333333333 465 35 c 1
 509 55 l 1
 529 25.6666666667 539 -8 539 -46 c 0
 539 -83.3333333333 529.333333333 -113.666666667 510 -137 c 0
 488 -163.666666667 455.666666667 -177 413 -177 c 0
 385 -177 362.166666667 -172.166666667 344.5 -162.5 c 128
 326.833333333 -152.833333333 313.666666667 -139.666666667 305 -123 c 1
 297 -137.666666667 281.5 -150.333333333 258.5 -161 c 128
 235.5 -171.666666667 210.666666667 -177 184 -177 c 0
 129.333333333 -177 88.3333333333 -163.666666667 61 -137 c 128
 33.6666666667 -110.333333333 20 -73.6666666667 20 -27 c 0
 20 7.66666666667 28.3333333333 36.3333333333 45 59 c 0
 59 77.6666666667 78 91.6666666667 102 101 c 0
 138.666666667 115.666666667 183.666666667 125.333333333 237 130 c 0
 344.333333333 140 407.5 149.666666667 426.5 159 c 128
 445.5 168.333333333 460 190.666666667 470 226 c 0
 476.666666667 250 480 274.666666667 480 300 c 0
 480 334 472.666666667 361.666666667 458 383 c 128
 443.333333333 404.333333333 420.666666667 415 390 415 c 0
 370 415 354.333333333 405.333333333 343 386 c 0
 334.333333333 371.333333333 330 356 330 340 c 2
 330 214 l 1
 260 214 l 1
 260 335 l 2
 260 353 253.333333333 369.333333333 240 384 c 0
 221.333333333 404.666666667 195.666666667 415 163 415 c 0
 129.666666667 415 100.166666667 405.5 74.5 386.5 c 128
 48.8333333333 367.5 36 346.333333333 36 323 c 1
 52.6666666667 351 77.6666666667 365 111 365 c 0
 139.666666667 365 162.666666667 354.833333333 180 334.5 c 128
 197.333333333 314.166666667 206 289 206 259 c 0
 206 226.333333333 196.666666667 201 178 183 c 128
 159.333333333 165 134 156 102 156 c 0
 65.3333333333 156 38.3333333333 171.333333333 21 202 c 0
 7 226.666666667 0 260.666666667 0 304 c 0
 0 344 15 377.666666667 45 405 c 0
 77.6666666667 435 121.666666667 450 177 450 c 0
 215.666666667 450 246.333333333 444 269 432 c 0
 286.333333333 422.666666667 298.333333333 409.666666667 305 393 c 1
 311 408.333333333 320 420.666666667 332 430 c 0
 349.333333333 443.333333333 372 450 400 450 c 0
 448.666666667 450 485.833333333 436.166666667 511.5 408.5 c 128
 537.166666667 380.833333333 550 342 550 292 c 0
141 277 m 0
 138.333333333 288.333333333 132 298 122 306 c 128
 112 314 101 318 89 318 c 0
 66.3333333333 318 48.3333333333 306 35 282 c 1
 35 258.666666667 40.3333333333 239.166666667 51 223.5 c 128
 61.6666666667 207.833333333 76 200 94 200 c 0
 110 200 122.166666667 206.166666667 130.5 218.5 c 128
 138.833333333 230.833333333 143 245 143 261 c 0
 143 265 142.333333333 270.333333333 141 277 c 0
EndSplineSet
EndChar

StartChar: u0B92
Encoding: 50 2962 50
Width: 700
Flags: HW
AnchorPoint: "V" 285 455 basechar 0
AnchorPoint: "N" 285 -250 basechar 0
LayerCount: 2
Fore
SplineSet
570 213 m 0
 570 163.666666667 559.333333333 125 538 97 c 128
 516.666666667 69 488 55 452 55 c 0
 418.666666667 55 395.333333333 67 382 91 c 0
 372 109 367 135 367 169 c 1
 363.666666667 157 361 145.5 359 134.5 c 128
 357 123.5 356 113.333333333 356 104 c 0
 356 72.6666666667 367 50.6666666667 389 38 c 0
 406.333333333 28 433.333333333 23 470 23 c 2
 546 23 l 1
 546 -16 l 1
 490 -16 l 2
 462 -16 441 -37.6666666667 427 -81 c 0
 416 -118 416 -118 405 -155 c 0
 394.333333333 -185.666666667 376.833333333 -209.166666667 352.5 -225.5 c 128
 328.166666667 -241.833333333 293.666666667 -250 249 -250 c 0
 197.666666667 -250 156.5 -237.666666667 125.5 -213 c 128
 94.5 -188.333333333 79 -157.666666667 79 -121 c 0
 79 -88.3333333333 86.8333333333 -61.5 102.5 -40.5 c 128
 118.166666667 -19.5 140 -9 168 -9 c 1
 180 -49 l 1
 160 -49 144 -55 132 -67 c 128
 120 -79 114 -97 114 -121 c 0
 114 -147 126.666666667 -169.166666667 152 -187.5 c 128
 177.333333333 -205.833333333 212.333333333 -215 257 -215 c 0
 295 -215 321.333333333 -200.666666667 336 -172 c 0
 340.666666667 -162.666666667 348 -132.666666667 358 -82 c 0
 363.333333333 -54 370.333333333 -34.3333333333 379 -23 c 0
 385.666666667 -14.3333333333 396 -7.66666666667 410 -3 c 1
 382.666666667 3 362.666666667 16.3333333333 350 37 c 128
 337.333333333 57.6666666667 331 82 331 110 c 0
 331 142 338.333333333 173.166666667 353 203.5 c 128
 367.666666667 233.833333333 384 252.333333333 402 259 c 1
 420 248 l 1
 402 232.666666667 393 208.333333333 393 175 c 0
 393 156.333333333 396.5 140.5 403.5 127.5 c 128
 410.5 114.5 420.333333333 108 433 108 c 0
 455 108 470.833333333 116.666666667 480.5 134 c 128
 490.166666667 151.333333333 495 176.666666667 495 210 c 0
 495 267.333333333 471.666666667 315.833333333 425 355.5 c 128
 378.333333333 395.166666667 327 415 271 415 c 0
 209.666666667 415 158.5 402.833333333 117.5 378.5 c 128
 76.5 354.166666667 50 317 38 267 c 1
 45.3333333333 277 56.3333333333 285.166666667 71 291.5 c 128
 85.6666666667 297.833333333 102 301 120 301 c 0
 155.333333333 301 184 290.333333333 206 269 c 128
 228 247.666666667 239 220 239 186 c 0
 239 148 230.333333333 117.5 213 94.5 c 128
 195.666666667 71.5 169.666666667 60 135 60 c 0
 93 60 60 75.1666666667 36 105.5 c 128
 12 135.833333333 0 173 0 217 c 0
 0 289.666666667 22.3333333333 346 67 386 c 0
 115 428.666666667 186 450 280 450 c 0
 374.666666667 450 448 426 500 378 c 0
 546.666666667 334.666666667 570 279.666666667 570 213 c 0
164 184 m 256
 164 204.666666667 158.5 222.666666667 147.5 238 c 128
 136.5 253.333333333 121.666666667 261 103 261 c 0
 85 261 70.1666666667 257 58.5 249 c 128
 46.8333333333 241 39 230 35 216 c 1
 35 192 41.8333333333 168.833333333 55.5 146.5 c 128
 69.1666666667 124.166666667 88 113 112 113 c 0
 130 113 143.166666667 119.666666667 151.5 133 c 128
 159.833333333 146.333333333 164 163.333333333 164 184 c 256
EndSplineSet
EndChar

StartChar: u0B93
Encoding: 51 2963 51
Width: 700
Flags: HW
AnchorPoint: "V" 285 455 basechar 0
AnchorPoint: "N" 285 -250 basechar 0
LayerCount: 2
Fore
SplineSet
570 213 m 0
 570 163.666666667 559.333333333 125 538 97 c 128
 516.666666667 69 488 55 452 55 c 0
 418.666666667 55 395.333333333 67 382 91 c 0
 372 109 367 135 367 169 c 1
 359.666666667 145 356 123 356 103 c 0
 356 72.3333333333 367 50.6666666667 389 38 c 0
 406.333333333 28 433.333333333 23 470 23 c 2
 546 23 l 1
 546 -16 l 1
 490 -16 l 2
 462 -16 441 -37.6666666667 427 -81 c 0
 416 -118 416 -118 405 -155 c 0
 394.333333333 -185.666666667 376.833333333 -209.166666667 352.5 -225.5 c 128
 328.166666667 -241.833333333 293.666666667 -250 249 -250 c 0
 197 -250 155.666666667 -237.833333333 125 -213.5 c 128
 94.3333333333 -189.166666667 79 -158.333333333 79 -121 c 0
 79 -88.3333333333 87.5 -61.8333333333 104.5 -41.5 c 128
 121.5 -21.1666666667 146.333333333 -11 179 -11 c 256
 211.666666667 -11 237.166666667 -18.5 255.5 -33.5 c 128
 273.833333333 -48.5 283 -67.3333333333 283 -90 c 0
 283 -104 280.5 -116.833333333 275.5 -128.5 c 128
 270.5 -140.166666667 262 -150.666666667 250 -160 c 1
 214 -142 l 1
 222 -134 227.666666667 -126 231 -118 c 128
 234.333333333 -110 236 -101.666666667 236 -93 c 0
 236 -80.3333333333 230.833333333 -69.8333333333 220.5 -61.5 c 128
 210.166666667 -53.1666666667 196.666666667 -49 180 -49 c 0
 160 -49 144 -55 132 -67 c 128
 120 -79 114 -97 114 -121 c 0
 114 -147 126.666666667 -169.166666667 152 -187.5 c 128
 177.333333333 -205.833333333 212.333333333 -215 257 -215 c 0
 304.333333333 -215 334.333333333 -190.666666667 347 -142 c 1
 353 -107.333333333 358 -81.6666666667 362 -65 c 128
 366 -48.3333333333 371.5 -35 378.5 -25 c 128
 385.5 -15 396 -7.66666666667 410 -3 c 1
 382.666666667 3 362.666666667 16.3333333333 350 37 c 128
 337.333333333 57.6666666667 331 82 331 110 c 0
 331 142 338.333333333 173.166666667 353 203.5 c 128
 367.666666667 233.833333333 384 252.333333333 402 259 c 1
 420 248 l 1
 402 232.666666667 393 208.333333333 393 175 c 0
 393 156.333333333 396.5 140.5 403.5 127.5 c 128
 410.5 114.5 420.333333333 108 433 108 c 0
 455 108 470.833333333 116.666666667 480.5 134 c 128
 490.166666667 151.333333333 495 176.666666667 495 210 c 0
 495 267.333333333 471.666666667 315.833333333 425 355.5 c 128
 378.333333333 395.166666667 327 415 271 415 c 0
 209.666666667 415 158.5 402.833333333 117.5 378.5 c 128
 76.5 354.166666667 50 317 38 267 c 1
 45.3333333333 277 56.3333333333 285.166666667 71 291.5 c 128
 85.6666666667 297.833333333 102 301 120 301 c 0
 155.333333333 301 184 290.333333333 206 269 c 128
 228 247.666666667 239 220 239 186 c 0
 239 148 230.333333333 117.5 213 94.5 c 128
 195.666666667 71.5 169.666666667 60 135 60 c 0
 93 60 60 75.1666666667 36 105.5 c 128
 12 135.833333333 0 173 0 217 c 0
 0 289.666666667 22.3333333333 346 67 386 c 0
 115 428.666666667 186 450 280 450 c 0
 374.666666667 450 448 426 500 378 c 0
 546.666666667 334.666666667 570 279.666666667 570 213 c 0
164 184 m 256
 164 204.666666667 158.5 222.666666667 147.5 238 c 128
 136.5 253.333333333 121.666666667 261 103 261 c 0
 85 261 70.1666666667 257 58.5 249 c 128
 46.8333333333 241 39 230 35 216 c 1
 35 192 41.8333333333 168.833333333 55.5 146.5 c 128
 69.1666666667 124.166666667 88 113 112 113 c 0
 130 113 143.166666667 119.666666667 151.5 133 c 128
 159.833333333 146.333333333 164 163.333333333 164 184 c 256
EndSplineSet
EndChar

StartChar: u0B95
Encoding: 53 2965 53
Width: 620
Flags: HW
AnchorPoint: "V" 255 455 basechar 0
AnchorPoint: "N" 255 0 basechar 0
LayerCount: 2
Fore
SplineSet
526 121 m 0
 526 82.3333333333 514.833333333 52.5 492.5 31.5 c 128
 470.166666667 10.5 440.333333333 0 403 0 c 0
 369.666666667 0 344.5 5.16666666667 327.5 15.5 c 128
 310.5 25.8333333333 300 38.3333333333 296 53 c 1
 285.333333333 41 267.333333333 29.1666666667 242 17.5 c 128
 216.666666667 5.83333333333 189.666666667 0 161 0 c 0
 113.666666667 0 76.6666666667 11 50 33 c 0
 20.6666666667 57.6666666667 6 93.6666666667 6 141 c 0
 6 177.666666667 18.3333333333 207.666666667 43 231 c 0
 62.3333333333 249.666666667 80.3333333333 259 97 259 c 1
 97 450 l 1
 422 450 l 1
 422 415 l 1
 322 415 l 1
 322 260 l 1
 406 260 461.666666667 248 489 224 c 0
 513.666666667 202 526 167.666666667 526 121 c 0
247 260 m 1
 247 415 l 1
 132 415 l 1
 132 260 l 1
 247 260 l 1
456 119 m 0
 456 165 443 195.333333333 417 210 c 0
 399 220 367.333333333 225 322 225 c 1
 322 106 l 2
 322 82 326.833333333 64.1666666667 336.5 52.5 c 128
 346.166666667 40.8333333333 362.666666667 35 386 35 c 0
 405.333333333 35 421.833333333 42 435.5 56 c 128
 449.166666667 70 456 91 456 119 c 0
247 103 m 2
 247 225 l 1
 116 225 l 2
 99.3333333333 225 84 218.666666667 70 206 c 0
 50.6666666667 188.666666667 41 164 41 132 c 0
 41 99.3333333333 50.3333333333 75 69 59 c 128
 87.6666666667 43 114.666666667 35 150 35 c 0
 170.666666667 35 192 42 214 56 c 128
 236 70 247 85.6666666667 247 103 c 2
EndSplineSet
EndChar

StartChar: u0B95_u0BBF
Encoding: 54 -1 54
Width: 730
Flags: HW
AnchorPoint: "V" 255 719.333 basechar 0
AnchorPoint: "N" 255 0 basechar 0
LayerCount: 2
Fore
SplineSet
630 0 m 1
 600 0 l 1
 600 452 l 2
 600 509.333333333 574.666666667 556.666666667 524 594 c 128
 473.333333333 631.333333333 409.333333333 650 332 650 c 0
 232 650 156.666666667 630.333333333 106 591 c 0
 58.6666666667 554.333333333 35 503.666666667 35 439 c 0
 35 407 39.6666666667 376.666666667 49 348 c 128
 58.3333333333 319.333333333 72.3333333333 296.333333333 91 279 c 1
 91 450 l 1
 416 450 l 1
 416 415 l 1
 316 415 l 1
 316 260 l 1
 400 260 455.666666667 248 483 224 c 0
 507.666666667 202 520 167.666666667 520 121 c 0
 520 82.3333333333 508.833333333 52.5 486.5 31.5 c 128
 464.166666667 10.5 434.333333333 0 397 0 c 0
 363.666666667 0 338.5 5.16666666667 321.5 15.5 c 128
 304.5 25.8333333333 294 38.3333333333 290 53 c 1
 279.333333333 41 261.333333333 29.1666666667 236 17.5 c 128
 210.666666667 5.83333333333 183.666666667 0 155 0 c 0
 107.666666667 0 70.6666666667 11 44 33 c 0
 14.6666666667 57.6666666667 0 93.6666666667 0 141 c 0
 0 171.666666667 8 197.333333333 24 218 c 0
 36.6666666667 234 52.3333333333 246 71 254 c 1
 45.6666666667 275.333333333 27.5 301.5 16.5 332.5 c 128
 5.5 363.5 0 397.333333333 0 434 c 0
 0 518 24.6666666667 585.333333333 74 636 c 0
 132 695.333333333 217.666666667 725 331 725 c 0
 433 725 508.333333333 701.666666667 557 655 c 128
 605.666666667 608.333333333 630 538.333333333 630 445 c 2
 630 0 l 1
241 260 m 1
 241 415 l 1
 126 415 l 1
 126 260 l 1
 241 260 l 1
450 119 m 0
 450 165 437 195.333333333 411 210 c 0
 393 220 361.333333333 225 316 225 c 1
 316 106 l 2
 316 82 320.833333333 64.1666666667 330.5 52.5 c 128
 340.166666667 40.8333333333 356.666666667 35 380 35 c 0
 399.333333333 35 415.833333333 42 429.5 56 c 128
 443.166666667 70 450 91 450 119 c 0
241 103 m 2
 241 225 l 1
 110 225 l 2
 93.3333333333 225 78 218.666666667 64 206 c 0
 44.6666666667 188.666666667 35 164 35 132 c 0
 35 99.3333333333 44.3333333333 75 63 59 c 128
 81.6666666667 43 108.666666667 35 144 35 c 0
 164.666666667 35 186 42 208 56 c 128
 230 70 241 85.6666666667 241 103 c 2
EndSplineSet
EndChar

StartChar: u0B95_u0BC0
Encoding: 55 -1 55
Width: 620
Flags: HW
AnchorPoint: "V" 255 744.723 basechar 0
AnchorPoint: "N" 255 0 basechar 0
LayerCount: 2
Fore
SplineSet
449 602 m 0
 449 621.333333333 442.5 637.833333333 429.5 651.5 c 128
 416.5 665.166666667 399.666666667 672 379 672 c 1
 361.666666667 668.666666667 347.666666667 660.333333333 337 647 c 128
 326.333333333 633.666666667 321 618.333333333 321 601 c 256
 321 583.666666667 327.166666667 568.5 339.5 555.5 c 128
 351.833333333 542.5 366.333333333 536 383 536 c 0
 401 536 416.5 542.5 429.5 555.5 c 128
 442.5 568.5 449 584 449 602 c 0
241 260 m 1
 241 415 l 1
 126 415 l 1
 126 260 l 1
 241 260 l 1
450 119 m 0
 450 165 437 195.333333333 411 210 c 0
 393 220 361.333333333 225 316 225 c 1
 316 106 l 2
 316 82 320.833333333 64.1666666667 330.5 52.5 c 128
 340.166666667 40.8333333333 356.666666667 35 380 35 c 0
 399.333333333 35 415.833333333 42 429.5 56 c 128
 443.166666667 70 450 91 450 119 c 0
241 103 m 2
 241 225 l 1
 110 225 l 2
 93.3333333333 225 78 218.666666667 64 206 c 0
 44.6666666667 188.666666667 35 164 35 132 c 0
 35 99.3333333333 44.3333333333 75 63 59 c 128
 81.6666666667 43 108.666666667 35 144 35 c 0
 164.666666667 35 186 42 208 56 c 128
 230 70 241 85.6666666667 241 103 c 2
71 254 m 1
 45.6666666667 275.333333333 27.5 301.5 16.5 332.5 c 128
 5.5 363.5 0 397.333333333 0 434 c 0
 0 527.333333333 30 603.333333333 90 662 c 128
 150 720.666666667 227 750 321 750 c 0
 370.333333333 750 411 741.333333333 443 724 c 0
 486.333333333 700.666666667 508 663.666666667 508 613 c 0
 508 582.333333333 497.333333333 556.666666667 476 536 c 128
 454.666666667 515.333333333 427 505 393 505 c 0
 359.666666667 505 333.833333333 514.5 315.5 533.5 c 128
 297.166666667 552.5 288 575.333333333 288 602 c 0
 288 618.666666667 291.833333333 635.333333333 299.5 652 c 128
 307.166666667 668.666666667 317.666666667 680.666666667 331 688 c 1
 294 691 l 1
 218.666666667 691 155.666666667 663.666666667 105 609 c 0
 58.3333333333 559 35 502.333333333 35 439 c 0
 35 407 39.6666666667 376.666666667 49 348 c 128
 58.3333333333 319.333333333 72.3333333333 296.333333333 91 279 c 1
 91 450 l 1
 416 450 l 1
 416 415 l 1
 316 415 l 1
 316 260 l 1
 400 260 455.666666667 248 483 224 c 0
 507.666666667 202 520 167.666666667 520 121 c 0
 520 82.3333333333 508.833333333 52.5 486.5 31.5 c 128
 464.166666667 10.5 434.333333333 0 397 0 c 0
 363.666666667 0 338.5 5.16666666667 321.5 15.5 c 128
 304.5 25.8333333333 294 38.3333333333 290 53 c 1
 279.333333333 41 261.333333333 29.1666666667 236 17.5 c 128
 210.666666667 5.83333333333 183.666666667 0 155 0 c 0
 107.666666667 0 70.6666666667 11 44 33 c 0
 14.6666666667 57.6666666667 0 93.6666666667 0 141 c 0
 0 171.666666667 8 197.333333333 24 218 c 0
 36.6666666667 234 52.3333333333 246 71 254 c 1
EndSplineSet
EndChar

StartChar: u0B95_u0BC1
Encoding: 56 -1 56
Width: 785
Flags: HW
AnchorPoint: "V" 255 455 basechar 0
AnchorPoint: "N" 255 0 basechar 0
LayerCount: 2
Fore
SplineSet
476 225 m 1
 476 106 l 2
 476 82.6666666667 462 60 434 38 c 0
 401.333333333 12.6666666667 361.666666667 0 315 0 c 0
 267.666666667 0 230.666666667 11 204 33 c 0
 174.666666667 57.6666666667 160 93.6666666667 160 141 c 0
 160 177.666666667 172.333333333 207.666666667 197 231 c 0
 216.333333333 249.666666667 234.333333333 259 251 259 c 1
 251 450 l 1
 576 450 l 1
 576 415 l 1
 476 415 l 1
 476 260 l 1
 546.666666667 260 597.666666667 249.666666667 629 229 c 0
 666.333333333 204.333333333 685 162.666666667 685 104 c 0
 685 10.6666666667 664 -59.6666666667 622 -107 c 0
 567.333333333 -169 473.333333333 -200 340 -200 c 0
 226.666666667 -200 141 -168 83 -104 c 0
 27.6666666667 -43.3333333333 0 41.3333333333 0 150 c 0
 0 213.333333333 9.16666666667 272 27.5 326 c 128
 45.8333333333 380 71 421.333333333 103 450 c 1
 125 430 l 1
 95 400 72.5 360 57.5 310 c 128
 42.5 260 35 205.666666667 35 147 c 0
 35 55.6666666667 60 -18.3333333333 110 -75 c 0
 163.333333333 -135 237.333333333 -165 332 -165 c 0
 440.666666667 -165 517 -137 561 -81 c 0
 593.666666667 -39.6666666667 610 21.3333333333 610 102 c 0
 610 142.666666667 600.666666667 172.666666667 582 192 c 0
 560.666666667 214 525.333333333 225 476 225 c 1
401 260 m 1
 401 415 l 1
 286 415 l 1
 286 260 l 1
 401 260 l 1
401 103 m 2
 401 225 l 1
 270 225 l 2
 253.333333333 225 238 218.666666667 224 206 c 0
 204.666666667 188.666666667 195 164 195 132 c 0
 195 99.3333333333 204.333333333 75 223 59 c 128
 241.666666667 43 268.666666667 35 304 35 c 0
 324.666666667 35 346 42 368 56 c 128
 390 70 401 85.6666666667 401 103 c 2
EndSplineSet
EndChar

StartChar: u0B95_u0BC2
Encoding: 57 -1 57
Width: 939
VWidth: 348
Flags: HW
AnchorPoint: "V" 255 455 basechar 0
AnchorPoint: "N" 255 0 basechar 0
LayerCount: 2
Fore
SplineSet
111.258789062 226.353515625 m 0
 87.193359375 226.353515625 36.62109375 205.775390625 36.62109375 133.928710938 c 0
 36.62109375 69.4052734375 72.8935546875 36.9697265625 145.438476562 36.9697265625 c 0
 190.778320312 36.9697265625 241.350585938 72.8935546875 242.047851562 104.283203125 c 0
 242.047851562 226.353515625 l 0
 111.258789062 226.353515625 l 0
242.047851562 261.23046875 m 0
 242.047851562 415.736328125 l 0
 126.953125 415.736328125 l 0
 126.953125 261.23046875 l 0
 242.047851562 261.23046875 l 0
427.943359375 34.5283203125 m 0
 449.916015625 34.5283203125 483.049804688 49.8740234375 483.049804688 128.697265625 c 0
 483.049804688 174.385742188 449.916015625 209.263671875 427.24609375 216.239257812 c 0
 406.319335938 198.799804688 377.720703125 184.151367188 377.720703125 109.86328125 c 0
 377.720703125 45.3408203125 410.853515625 34.5283203125 427.943359375 34.5283203125 c 0
317.3828125 261.23046875 m 0
 429.6875 261.23046875 l 0
 449.21875 272.391601562 488.28125 290.178710938 537.806640625 290.178710938 c 0
 703.473632812 290.178710938 716.727539062 183.10546875 716.727539062 151.3671875 c 0
 716.727539062 96.2607421875 676.618164062 57.1982421875 642.438476562 34.5283203125 c 0
 802.525390625 34.5283203125 l 0
 802.525390625 -0.3486328125 l 0
 539.55078125 -0.3486328125 l 0
 539.55078125 34.5283203125 l 0
 600.5859375 68.359375 641.741210938 106.375976562 641.741210938 147.181640625 c 0
 641.741210938 212.750976562 601.283203125 249.372070312 548.270507812 249.372070312 c 0
 529.78515625 249.372070312 490.374023438 249.372070312 472.935546875 237.165039062 c 0
 493.1640625 216.936523438 537.109375 191.475585938 537.109375 115.094726562 c 0
 537.109375 57.896484375 497.349609375 -0.697265625 440.499023438 -0.697265625 c 0
 403.529296875 -0.697265625 343.192382812 18.1357421875 343.192382812 104.631835938 c 0
 343.192382812 186.942382812 383.649414062 225.306640625 383.649414062 225.306640625 c 0
 317.034179688 225.306640625 l 0
 317.034179688 106.375976562 l 0
 317.034179688 50.9208984375 235.770507812 1.0458984375 156.947265625 1.0458984375 c 0
 65.5693359375 1.0458984375 1.744140625 45.689453125 1.744140625 141.950195312 c 0
 1.744140625 227.399414062 70.103515625 259.834960938 92.7734375 259.834960938 c 0
 92.7734375 450.614257812 l 0
 417.48046875 450.614257812 l 0
 417.48046875 415.736328125 l 0
 317.3828125 415.736328125 l 0
 317.3828125 261.23046875 l 0
EndSplineSet
EndChar

StartChar: u0B95_u0BC2.old
Encoding: 58 -1 58
Width: 940
Flags: HW
AnchorPoint: "V" 255 455 basechar 0
AnchorPoint: "N" 255 0 basechar 0
LayerCount: 2
Fore
SplineSet
480 230 m 1
 487.333333333 241.333333333 501.666666667 250.5 523 257.5 c 128
 544.333333333 264.5 573.333333333 268 610 268 c 0
 648.666666667 268 681.333333333 259 708 241 c 0
 739.333333333 219.666666667 755 190 755 152 c 0
 755 128 746.666666667 104.666666667 730 82 c 0
 716.666666667 64 700 48.3333333333 680 35 c 1
 840 35 l 1
 840 0 l 1
 577 0 l 1
 577 35 l 1
 599.666666667 47.6666666667 618.666666667 61.3333333333 634 76 c 0
 657.333333333 98.6666666667 669 122.333333333 669 147 c 0
 669 169 660.666666667 187.666666667 644 203 c 128
 627.333333333 218.333333333 607.333333333 226 584 226 c 0
 558.666666667 226 537.5 221.666666667 520.5 213 c 128
 503.5 204.333333333 493.333333333 193.666666667 490 181 c 1
 490 0 l 1
 415 0 l 1
 415 225 l 1
 316 225 l 1
 316 106 l 2
 316 78.6666666667 299 54.1666666667 265 32.5 c 128
 231 10.8333333333 194.333333333 0 155 0 c 0
 107.666666667 0 70.6666666667 11 44 33 c 0
 14.6666666667 57.6666666667 0 93.6666666667 0 141 c 0
 0 177.666666667 12.3333333333 207.666666667 37 231 c 0
 56.3333333333 249.666666667 74.3333333333 259 91 259 c 1
 91 450 l 1
 416 450 l 1
 416 415 l 1
 316 415 l 1
 316 260 l 1
 439 260 l 2
 447 260 455 257.666666667 463 253 c 128
 471 248.333333333 476.666666667 240.666666667 480 230 c 1
241 260 m 1
 241 415 l 1
 126 415 l 1
 126 260 l 1
 241 260 l 1
241 103 m 2
 241 225 l 1
 110 225 l 2
 93.3333333333 225 78 218.666666667 64 206 c 0
 44.6666666667 188.666666667 35 164 35 132 c 0
 35 99.3333333333 44.3333333333 75 63 59 c 128
 81.6666666667 43 108.666666667 35 144 35 c 0
 164.666666667 35 186 42 208 56 c 128
 230 70 241 85.6666666667 241 103 c 2
EndSplineSet
EndChar

StartChar: u0B95_u0BCD
Encoding: 59 -1 59
Width: 620
Flags: HW
AnchorPoint: "N" 255 0 basechar 0
LayerCount: 2
Fore
SplineSet
312 582 m 256
 312 566.666666667 306.333333333 553.333333333 295 542 c 128
 283.666666667 530.666666667 270.333333333 525 255 525 c 256
 239.666666667 525 226.333333333 530.666666667 215 542 c 128
 203.666666667 553.333333333 198 566.666666667 198 582 c 256
 198 597.333333333 203.666666667 610.666666667 215 622 c 128
 226.333333333 633.333333333 239.666666667 639 255 639 c 256
 270.333333333 639 283.666666667 633.333333333 295 622 c 128
 306.333333333 610.666666667 312 597.333333333 312 582 c 256
520 121 m 0
 520 82.3333333333 508.833333333 52.5 486.5 31.5 c 128
 464.166666667 10.5 434.333333333 0 397 0 c 0
 363.666666667 0 338.5 5.16666666667 321.5 15.5 c 128
 304.5 25.8333333333 294 38.3333333333 290 53 c 1
 279.333333333 41 261.333333333 29.1666666667 236 17.5 c 128
 210.666666667 5.83333333333 183.666666667 0 155 0 c 0
 107.666666667 0 70.6666666667 11 44 33 c 0
 14.6666666667 57.6666666667 0 93.6666666667 0 141 c 0
 0 177.666666667 12.3333333333 207.666666667 37 231 c 0
 56.3333333333 249.666666667 74.3333333333 259 91 259 c 1
 91 450 l 1
 416 450 l 1
 416 415 l 1
 316 415 l 1
 316 260 l 1
 400 260 455.666666667 248 483 224 c 0
 507.666666667 202 520 167.666666667 520 121 c 0
241 260 m 1
 241 415 l 1
 126 415 l 1
 126 260 l 1
 241 260 l 1
450 119 m 0
 450 165 437 195.333333333 411 210 c 0
 393 220 361.333333333 225 316 225 c 1
 316 106 l 2
 316 82 320.833333333 64.1666666667 330.5 52.5 c 128
 340.166666667 40.8333333333 356.666666667 35 380 35 c 0
 399.333333333 35 415.833333333 42 429.5 56 c 128
 443.166666667 70 450 91 450 119 c 0
241 103 m 2
 241 225 l 1
 110 225 l 2
 93.3333333333 225 78 218.666666667 64 206 c 0
 44.6666666667 188.666666667 35 164 35 132 c 0
 35 99.3333333333 44.3333333333 75 63 59 c 128
 81.6666666667 43 108.666666667 35 144 35 c 0
 164.666666667 35 186 42 208 56 c 128
 230 70 241 85.6666666667 241 103 c 2
EndSplineSet
EndChar

StartChar: u0B99
Encoding: 60 2969 60
Width: 700
Flags: HW
AnchorPoint: "V" 298 455 basechar 0
AnchorPoint: "N" 298 0 basechar 0
LayerCount: 2
Fore
SplineSet
600 0 m 1
 150 0 l 1
 150 30 l 1
 266 30 l 1
 292 40.6666666667 311.666666667 58.1666666667 325 82.5 c 128
 338.333333333 106.833333333 345 134.666666667 345 166 c 0
 345 192.666666667 338 213.333333333 324 228 c 128
 310 242.666666667 294 250 276 250 c 0
 263.333333333 250 252.5 246.666666667 243.5 240 c 128
 234.5 233.333333333 228.333333333 223.333333333 225 210 c 1
 225 130 l 1
 150 130 l 1
 150 415 l 1
 35 415 l 1
 35 0 l 1
 0 0 l 1
 0 450 l 1
 325 450 l 1
 325 415 l 1
 225 415 l 1
 225 267 l 1
 241 287 263.666666667 297 293 297 c 0
 324.333333333 297 351.666666667 285.666666667 375 263 c 0
 401.666666667 237 415 203.333333333 415 162 c 0
 415 127.333333333 408.666666667 99 396 77 c 128
 383.333333333 55 366 39.3333333333 344 30 c 1
 530 30 l 1
 530 450 l 1
 600 450 l 1
 600 0 l 1
EndSplineSet
EndChar

StartChar: u0B99_u0BBF
Encoding: 61 -1 61
Width: 795
Flags: HW
AnchorPoint: "V" 298 455 basechar 0
AnchorPoint: "N" 298 0 basechar 0
LayerCount: 2
Fore
SplineSet
695 0 m 1
 665 0 l 1
 665 505 l 2
 665 551 655.666666667 585 637 607 c 128
 618.333333333 629 587 640 543 640 c 0
 511 640 484.166666667 630.5 462.5 611.5 c 128
 440.833333333 592.5 430 565 430 529 c 0
 430 497 437.833333333 473.166666667 453.5 457.5 c 128
 469.166666667 441.833333333 489.666666667 434 515 434 c 1
 515 450 l 1
 585 450 l 1
 585 0 l 1
 150 0 l 1
 150 30 l 1
 266 30 l 1
 292 40.6666666667 311.666666667 58.1666666667 325 82.5 c 128
 338.333333333 106.833333333 345 134.666666667 345 166 c 0
 345 192.666666667 338 213.333333333 324 228 c 128
 310 242.666666667 294 250 276 250 c 0
 263.333333333 250 252.5 246.666666667 243.5 240 c 128
 234.5 233.333333333 228.333333333 223.333333333 225 210 c 1
 225 130 l 1
 150 130 l 1
 150 415 l 1
 35 415 l 1
 35 0 l 1
 0 0 l 1
 0 450 l 1
 325 450 l 1
 325 415 l 1
 225 415 l 1
 225 267 l 1
 241 287 263.666666667 297 293 297 c 0
 324.333333333 297 351.666666667 285.666666667 375 263 c 0
 401.666666667 237 415 203.333333333 415 162 c 0
 415 127.333333333 408.666666667 99 396 77 c 128
 383.333333333 55 366 39.3333333333 344 30 c 1
 515 30 l 1
 515 399 l 1
 479.666666667 399 450.666666667 410.333333333 428 433 c 0
 402.666666667 458.333333333 390 494.666666667 390 542 c 0
 390 595.333333333 403.666666667 636.666666667 431 666 c 128
 458.333333333 695.333333333 496 710 544 710 c 0
 597.333333333 710 636.333333333 693 661 659 c 0
 683.666666667 627.666666667 695 580 695 516 c 2
 695 0 l 1
EndSplineSet
EndChar

StartChar: u0B99_u0BC0
Encoding: 62 -1 62
Width: 795
Flags: HW
AnchorPoint: "V" 298 455 basechar 0
AnchorPoint: "N" 298 0 basechar 0
LayerCount: 2
Fore
SplineSet
530 396 m 1
 503.333333333 396 480 408 460 432 c 0
 436.666666667 460 425 497 425 543 c 0
 425 607.666666667 444 655.333333333 482 686 c 0
 515.333333333 712.666666667 560.666666667 726 618 726 c 0
 672 726 714.333333333 717.333333333 745 700 c 0
 785 677.333333333 805 640.333333333 805 589 c 0
 805 558.333333333 794.333333333 532.666666667 773 512 c 128
 751.666666667 491.333333333 724 481 690 481 c 0
 656.666666667 481 630.833333333 490.5 612.5 509.5 c 128
 594.166666667 528.5 585 551.333333333 585 578 c 0
 585 594.666666667 588.833333333 611.333333333 596.5 628 c 128
 604.166666667 644.666666667 614.666666667 656.666666667 628 664 c 1
 591 667 l 1
 555.666666667 667 525.666666667 652.666666667 501 624 c 128
 476.333333333 595.333333333 464 564.333333333 464 531 c 0
 464 497 470.666666667 470.166666667 484 450.5 c 128
 497.333333333 430.833333333 512.666666667 421 530 421 c 1
 530 450 l 1
 605 450 l 1
 605 0 l 1
 150 0 l 1
 150 30 l 1
 266 30 l 1
 292 40.6666666667 311.666666667 58.1666666667 325 82.5 c 128
 338.333333333 106.833333333 345 134.666666667 345 166 c 0
 345 192.666666667 338 213.333333333 324 228 c 128
 310 242.666666667 294 250 276 250 c 0
 263.333333333 250 252.5 246.666666667 243.5 240 c 128
 234.5 233.333333333 228.333333333 223.333333333 225 210 c 1
 225 130 l 1
 150 130 l 1
 150 415 l 1
 35 415 l 1
 35 0 l 1
 0 0 l 1
 0 450 l 1
 325 450 l 1
 325 415 l 1
 225 415 l 1
 225 267 l 1
 241 287 263.666666667 297 293 297 c 0
 324.333333333 297 351.666666667 285.666666667 375 263 c 0
 401.666666667 237 415 203.333333333 415 162 c 0
 415 127.333333333 408.666666667 99 396 77 c 128
 383.333333333 55 366 39.3333333333 344 30 c 1
 530 30 l 1
 530 396 l 1
746 578 m 0
 746 597.333333333 739.5 613.833333333 726.5 627.5 c 128
 713.5 641.166666667 696.666666667 648 676 648 c 1
 658.666666667 644.666666667 644.666666667 636.333333333 634 623 c 128
 623.333333333 609.666666667 618 594.333333333 618 577 c 256
 618 559.666666667 624.166666667 544.5 636.5 531.5 c 128
 648.833333333 518.5 663.333333333 512 680 512 c 0
 698 512 713.5 518.5 726.5 531.5 c 128
 739.5 544.5 746 560 746 578 c 0
EndSplineSet
EndChar

StartChar: u0B99_u0BC1
Encoding: 63 -1 63
Width: 700
Flags: HW
AnchorPoint: "V" 298 455 basechar 0
AnchorPoint: "N" 298 0 basechar 0
LayerCount: 2
Fore
SplineSet
600 -135 m 1
 530 -135 l 1
 530 0 l 1
 150 0 l 1
 150 30 l 1
 266 30 l 1
 292 40.6666666667 311.666666667 58.1666666667 325 82.5 c 128
 338.333333333 106.833333333 345 134.666666667 345 166 c 0
 345 192.666666667 338 213.333333333 324 228 c 128
 310 242.666666667 294 250 276 250 c 0
 263.333333333 250 252.5 246.666666667 243.5 240 c 128
 234.5 233.333333333 228.333333333 223.333333333 225 210 c 1
 225 130 l 1
 150 130 l 1
 150 415 l 1
 35 415 l 1
 35 0 l 1
 0 0 l 1
 0 450 l 1
 325 450 l 1
 325 415 l 1
 225 415 l 1
 225 267 l 1
 241 287 263.666666667 297 293 297 c 0
 324.333333333 297 351.666666667 285.666666667 375 263 c 0
 401.666666667 237 415 203.333333333 415 162 c 0
 415 127.333333333 408.666666667 99 396 77 c 128
 383.333333333 55 366 39.3333333333 344 30 c 1
 530 30 l 1
 530 450 l 1
 600 450 l 1
 600 -135 l 1
EndSplineSet
EndChar

StartChar: u0B99_u0BC2
Encoding: 64 -1 64
Width: 925
Flags: HW
AnchorPoint: "V" 298 455 basechar 0
AnchorPoint: "N" 298 0 basechar 0
LayerCount: 2
Fore
SplineSet
750 102 m 0
 750 142 740.666666667 173 722 195 c 0
 706.666666667 213 686 222 660 222 c 0
 630.666666667 222 610.666666667 211.666666667 600 191 c 1
 600 -110 l 1
 530 -110 l 1
 530 0 l 1
 150 0 l 1
 150 30 l 1
 266 30 l 1
 292 40.6666666667 311.666666667 58.1666666667 325 82.5 c 128
 338.333333333 106.833333333 345 134.666666667 345 166 c 0
 345 192.666666667 338 213.333333333 324 228 c 128
 310 242.666666667 294 250 276 250 c 0
 263.333333333 250 252.5 246.666666667 243.5 240 c 128
 234.5 233.333333333 228.333333333 223.333333333 225 210 c 1
 225 130 l 1
 150 130 l 1
 150 415 l 1
 35 415 l 1
 35 0 l 1
 0 0 l 1
 0 450 l 1
 325 450 l 1
 325 415 l 1
 225 415 l 1
 225 267 l 1
 241 287 263.666666667 297 293 297 c 0
 324.333333333 297 351.666666667 285.666666667 375 263 c 0
 401.666666667 237 415 203.333333333 415 162 c 0
 415 127.333333333 408.666666667 99 396 77 c 128
 383.333333333 55 366 39.3333333333 344 30 c 1
 530 30 l 1
 530 450 l 1
 600 450 l 1
 600 235 l 1
 606.666666667 246.333333333 617 255 631 261 c 128
 645 267 660 270 676 270 c 0
 724.666666667 270 762.666666667 251.666666667 790 215 c 0
 813.333333333 183.666666667 825 146.666666667 825 104 c 0
 825 -6 790 -91.3333333333 720 -152 c 0
 644 -217.333333333 531 -250 381 -250 c 0
 318.333333333 -250 269.666666667 -239.5 235 -218.5 c 128
 200.333333333 -197.5 183 -168 183 -130 c 0
 183 -98 191.833333333 -73.5 209.5 -56.5 c 128
 227.166666667 -39.5 253 -31 287 -31 c 0
 320.333333333 -31 346.166666667 -40.1666666667 364.5 -58.5 c 128
 382.833333333 -76.8333333333 392 -100.333333333 392 -129 c 0
 392 -165 376 -191.666666667 344 -209 c 1
 356 -213.666666667 369 -216 383 -216 c 0
 509.666666667 -216 605 -182.333333333 669 -115 c 0
 723 -58.3333333333 750 14 750 102 c 0
216 -128 m 0
 216 -147.333333333 222.5 -163.833333333 235.5 -177.5 c 128
 248.5 -191.166666667 265.333333333 -198 286 -198 c 1
 303.333333333 -194.666666667 317.333333333 -186.333333333 328 -173 c 128
 338.666666667 -159.666666667 344 -144.333333333 344 -127 c 0
 344 -109 338 -93.6666666667 326 -81 c 128
 314 -68.3333333333 299.333333333 -62 282 -62 c 0
 264 -62 248.5 -68.5 235.5 -81.5 c 128
 222.5 -94.5 216 -110 216 -128 c 0
EndSplineSet
EndChar

StartChar: u0B99_u0BCD
Encoding: 65 -1 65
Width: 680
Flags: HW
AnchorPoint: "N" 298 0 basechar 0
LayerCount: 2
Fore
SplineSet
600 0 m 1
 150 0 l 1
 150 30 l 1
 266 30 l 1
 292 40.6666666667 311.666666667 58.1666666667 325 82.5 c 128
 338.333333333 106.833333333 345 134.666666667 345 166 c 0
 345 192.666666667 338 213.333333333 324 228 c 128
 310 242.666666667 294 250 276 250 c 0
 263.333333333 250 252.5 246.666666667 243.5 240 c 128
 234.5 233.333333333 228.333333333 223.333333333 225 210 c 1
 225 130 l 1
 150 130 l 1
 150 415 l 1
 35 415 l 1
 35 0 l 1
 0 0 l 1
 0 450 l 1
 325 450 l 1
 325 415 l 1
 225 415 l 1
 225 267 l 1
 241 287 263.666666667 297 293 297 c 0
 324.333333333 297 351.666666667 285.666666667 375 263 c 0
 401.666666667 237 415 203.333333333 415 162 c 0
 415 127.333333333 408.666666667 99 396 77 c 128
 383.333333333 55 366 39.3333333333 344 30 c 1
 530 30 l 1
 530 450 l 1
 600 450 l 1
 600 0 l 1
298 639 m 256
 313.333333333 639 326.666666667 633.333333333 338 622 c 128
 349.333333333 610.666666667 355 597.333333333 355 582 c 256
 355 566.666666667 349.333333333 553.333333333 338 542 c 128
 326.666666667 530.666666667 313.333333333 525 298 525 c 256
 282.666666667 525 269.333333333 530.666666667 258 542 c 128
 246.666666667 553.333333333 241 566.666666667 241 582 c 256
 241 597.333333333 246.666666667 610.666666667 258 622 c 128
 269.333333333 633.333333333 282.666666667 639 298 639 c 256
EndSplineSet
EndChar

StartChar: u0B99_u0BCD.alt
Encoding: 66 -1 66
Width: 680
Flags: HW
AnchorPoint: "N" 298 0 basechar 0
LayerCount: 2
Fore
SplineSet
600 0 m 1
 150 0 l 1
 150 30 l 1
 266 30 l 1
 292 40.6666666667 311.666666667 58.1666666667 325 82.5 c 128
 338.333333333 106.833333333 345 134.666666667 345 166 c 0
 345 192.666666667 338 213.333333333 324 228 c 128
 310 242.666666667 294 250 276 250 c 0
 263.333333333 250 252.5 246.666666667 243.5 240 c 128
 234.5 233.333333333 228.333333333 223.333333333 225 210 c 1
 225 130 l 1
 150 130 l 1
 150 415 l 1
 35 415 l 1
 35 0 l 1
 0 0 l 1
 0 450 l 1
 325 450 l 1
 325 415 l 1
 225 415 l 1
 225 267 l 1
 241 287 263.666666667 297 293 297 c 0
 324.333333333 297 351.666666667 285.666666667 375 263 c 0
 401.666666667 237 415 203.333333333 415 162 c 0
 415 127.333333333 408.666666667 99 396 77 c 128
 383.333333333 55 366 39.3333333333 344 30 c 1
 530 30 l 1
 530 450 l 1
 600 450 l 1
 600 0 l 1
355 582 m 256
 355 597.333333333 349.333333333 610.666666667 338 622 c 128
 326.666666667 633.333333333 313.333333333 639 298 639 c 256
 282.666666667 639 269.333333333 633.333333333 258 622 c 128
 246.666666667 610.666666667 241 597.333333333 241 582 c 256
 241 566.666666667 246.666666667 553.333333333 258 542 c 128
 269.333333333 530.666666667 282.666666667 525 298 525 c 256
 313.333333333 525 326.666666667 530.666666667 338 542 c 128
 349.333333333 553.333333333 355 566.666666667 355 582 c 256
298 676 m 256
 324 676 346.166666667 666.833333333 364.5 648.5 c 128
 382.833333333 630.166666667 392 608 392 582 c 256
 392 556 382.833333333 533.833333333 364.5 515.5 c 128
 346.166666667 497.166666667 324 488 298 488 c 256
 272 488 249.833333333 497.166666667 231.5 515.5 c 128
 213.166666667 533.833333333 204 556 204 582 c 256
 204 608 213.166666667 630.166666667 231.5 648.5 c 128
 249.833333333 666.833333333 272 676 298 676 c 256
EndSplineSet
EndChar

StartChar: u0B95_u0BB7
Encoding: 67 -1 67
Width: 1495
Flags: HW
AnchorPoint: "V" 255 455 basechar 0
AnchorPoint: "N" 255 0 basechar 0
LayerCount: 2
Fore
SplineSet
1395 104 m 0
 1395 74 1387.33333333 50 1372 32 c 0
 1353.33333333 10.6666666667 1325.33333333 0 1288 0 c 2
 1225 0 l 1
 1225 -215 l 1
 1155 -215 l 1
 1155 0 l 1
 728 0 l 1
 786 59.3333333333 815 127.666666667 815 205 c 0
 815 265.666666667 798.833333333 315.833333333 766.5 355.5 c 128
 734.166666667 395.166666667 691.333333333 415 638 415 c 0
 578.666666667 415 531 396.666666667 495 360 c 0
 465.666666667 330 451 296.666666667 451 260 c 1
 555 260 l 2
 593 260 622.333333333 252.666666667 643 238 c 0
 667 220.666666667 679 192.666666667 679 154 c 0
 679 109.333333333 668.833333333 72.5 648.5 43.5 c 128
 628.166666667 14.5 600.666666667 0 566 0 c 0
 512.666666667 0 474.166666667 19.3333333333 450.5 58 c 128
 426.833333333 96.6666666667 415 152.333333333 415 225 c 1
 316 225 l 1
 316 106 l 2
 316 78.6666666667 299 54.1666666667 265 32.5 c 128
 231 10.8333333333 194.333333333 0 155 0 c 0
 107.666666667 0 70.6666666667 11 44 33 c 0
 14.6666666667 57.6666666667 0 93.6666666667 0 141 c 0
 0 177.666666667 12.3333333333 207.666666667 37 231 c 0
 56.3333333333 249.666666667 74.3333333333 259 91 259 c 1
 91 450 l 1
 416 450 l 1
 416 415 l 1
 316 415 l 1
 316 260 l 1
 418 260 l 1
 427.333333333 320 450.666666667 366.666666667 488 400 c 128
 525.333333333 433.333333333 575.666666667 450 639 450 c 0
 723 450 786.333333333 426 829 378 c 0
 866.333333333 336 885 279.333333333 885 208 c 0
 885 176 880.333333333 146.166666667 871 118.5 c 128
 861.666666667 90.8333333333 845.666666667 63 823 35 c 1
 1155 35 l 1
 1155 192 l 1
 1103 202 1063 215.666666667 1035 233 c 0
 997 257 978 289 978 329 c 0
 978 367 988.333333333 396.666666667 1009 418 c 128
 1029.66666667 439.333333333 1060.33333333 450 1101 450 c 0
 1141 450 1171.66666667 442.166666667 1193 426.5 c 128
 1214.33333333 410.833333333 1225 390 1225 364 c 2
 1225 218 l 1
 1274.33333333 209.333333333 1313 197 1341 181 c 0
 1377 161 1395 135.333333333 1395 104 c 0
1155 229 m 1
 1155 352 l 2
 1155 369.333333333 1147.83333333 383.666666667 1133.5 395 c 128
 1119.16666667 406.333333333 1100.66666667 412 1078 412 c 256
 1055.33333333 412 1038 404.666666667 1026 390 c 128
 1014 375.333333333 1008 355.333333333 1008 330 c 0
 1008 303.333333333 1024.33333333 280.666666667 1057 262 c 0
 1083 247.333333333 1115.66666667 236.333333333 1155 229 c 1
1353 108 m 0
 1353 126.666666667 1341.66666667 141.5 1319 152.5 c 128
 1296.33333333 163.5 1265 172.666666667 1225 180 c 1
 1225 35 l 1
 1289 35 l 2
 1312.33333333 35 1329.33333333 42 1340 56 c 0
 1348.66666667 67.3333333333 1353 84.6666666667 1353 108 c 0
604 152 m 0
 604 200.666666667 577 225 523 225 c 2
 449 225 l 1
 449 208.333333333 450.166666667 188.666666667 452.5 166 c 128
 454.833333333 143.333333333 457.666666667 127.333333333 461 118 c 0
 467.666666667 100 477.166666667 85.8333333333 489.5 75.5 c 128
 501.833333333 65.1666666667 517 60 535 60 c 0
 557 60 574 69.1666666667 586 87.5 c 128
 598 105.833333333 604 127.333333333 604 152 c 0
241 260 m 1
 241 415 l 1
 126 415 l 1
 126 260 l 1
 241 260 l 1
241 103 m 2
 241 225 l 1
 110 225 l 2
 93.3333333333 225 78 218.666666667 64 206 c 0
 44.6666666667 188.666666667 35 164 35 132 c 0
 35 99.3333333333 44.3333333333 75 63 59 c 128
 81.6666666667 43 108.666666667 35 144 35 c 0
 164.666666667 35 186 42 208 56 c 128
 230 70 241 85.6666666667 241 103 c 2
EndSplineSet
EndChar

StartChar: u0B95_u0BB7_u0BBF
Encoding: 68 -1 68
Width: 1605
Flags: HW
AnchorPoint: "V" 255 455 basechar 0
AnchorPoint: "N" 255 0 basechar 0
LayerCount: 2
Fore
SplineSet
1155 229 m 1
 1155 352 l 2
 1155 369.333333333 1147.83333333 383.666666667 1133.5 395 c 128
 1119.16666667 406.333333333 1100.66666667 412 1078 412 c 256
 1055.33333333 412 1038 404.666666667 1026 390 c 128
 1014 375.333333333 1008 355.333333333 1008 330 c 0
 1008 303.333333333 1024.33333333 280.666666667 1057 262 c 0
 1083 247.333333333 1115.66666667 236.333333333 1155 229 c 1
1353 108 m 0
 1353 126.666666667 1341.66666667 141.5 1319 152.5 c 128
 1296.33333333 163.5 1265 172.666666667 1225 180 c 1
 1225 35 l 1
 1289 35 l 2
 1312.33333333 35 1329.33333333 42 1340 56 c 0
 1348.66666667 67.3333333333 1353 84.6666666667 1353 108 c 0
604 152 m 0
 604 200.666666667 577 225 523 225 c 2
 449 225 l 1
 449 208.333333333 450.166666667 188.666666667 452.5 166 c 128
 454.833333333 143.333333333 457.666666667 127.333333333 461 118 c 0
 467.666666667 100 477.166666667 85.8333333333 489.5 75.5 c 128
 501.833333333 65.1666666667 517 60 535 60 c 0
 557 60 574 69.1666666667 586 87.5 c 128
 598 105.833333333 604 127.333333333 604 152 c 0
241 260 m 1
 241 415 l 1
 126 415 l 1
 126 260 l 1
 241 260 l 1
241 103 m 2
 241 225 l 1
 110 225 l 2
 93.3333333333 225 78 218.666666667 64 206 c 0
 44.6666666667 188.666666667 35 164 35 132 c 0
 35 99.3333333333 44.3333333333 75 63 59 c 128
 81.6666666667 43 108.666666667 35 144 35 c 0
 164.666666667 35 186 42 208 56 c 128
 230 70 241 85.6666666667 241 103 c 2
1115 450 m 1
 1107.66666667 461.333333333 1101.66666667 476.5 1097 495.5 c 128
 1092.33333333 514.5 1090 534 1090 554 c 0
 1090 610 1108 652.666666667 1144 682 c 128
 1180 711.333333333 1231.66666667 726 1299 726 c 0
 1380.33333333 726 1437.33333333 703.333333333 1470 658 c 0
 1493.33333333 626 1505 580.333333333 1505 521 c 2
 1505 0 l 1
 1475 0 l 1
 1475 520 l 2
 1475 561.333333333 1463 593.333333333 1439 616 c 0
 1409.66666667 644 1362.66666667 658 1298 658 c 0
 1242 658 1199.83333333 646.166666667 1171.5 622.5 c 128
 1143.16666667 598.833333333 1129 562.666666667 1129 514 c 0
 1129 501.333333333 1130.83333333 489.166666667 1134.5 477.5 c 128
 1138.16666667 465.833333333 1144.33333333 454.666666667 1153 444 c 1
 1177 438 1195 428 1207 414 c 128
 1219 400 1225 383.333333333 1225 364 c 2
 1225 218 l 1
 1274.33333333 209.333333333 1313 197 1341 181 c 0
 1377 161 1395 135.333333333 1395 104 c 0
 1395 74 1387.33333333 50 1372 32 c 0
 1353.33333333 10.6666666667 1325.33333333 0 1288 0 c 2
 1225 0 l 1
 1225 -215 l 1
 1155 -215 l 1
 1155 0 l 1
 728 0 l 1
 786 59.3333333333 815 127.666666667 815 205 c 0
 815 265.666666667 798.833333333 315.833333333 766.5 355.5 c 128
 734.166666667 395.166666667 691.333333333 415 638 415 c 0
 578.666666667 415 531 396.666666667 495 360 c 0
 465.666666667 330 451 296.666666667 451 260 c 1
 555 260 l 2
 593 260 622.333333333 252.666666667 643 238 c 0
 667 220.666666667 679 192.666666667 679 154 c 0
 679 109.333333333 668.833333333 72.5 648.5 43.5 c 128
 628.166666667 14.5 600.666666667 0 566 0 c 0
 512.666666667 0 474.166666667 19.3333333333 450.5 58 c 128
 426.833333333 96.6666666667 415 152.333333333 415 225 c 1
 316 225 l 1
 316 106 l 2
 316 78.6666666667 299 54.1666666667 265 32.5 c 128
 231 10.8333333333 194.333333333 0 155 0 c 0
 107.666666667 0 70.6666666667 11 44 33 c 0
 14.6666666667 57.6666666667 0 93.6666666667 0 141 c 0
 0 177.666666667 12.3333333333 207.666666667 37 231 c 0
 56.3333333333 249.666666667 74.3333333333 259 91 259 c 1
 91 450 l 1
 416 450 l 1
 416 415 l 1
 316 415 l 1
 316 260 l 1
 418 260 l 1
 427.333333333 320 450.666666667 366.666666667 488 400 c 128
 525.333333333 433.333333333 575.666666667 450 639 450 c 0
 723 450 786.333333333 426 829 378 c 0
 866.333333333 336 885 279.333333333 885 208 c 0
 885 176 880.333333333 146.166666667 871 118.5 c 128
 861.666666667 90.8333333333 845.666666667 63 823 35 c 1
 1155 35 l 1
 1155 192 l 1
 1103 202 1063 215.666666667 1035 233 c 0
 997 257 978 289 978 329 c 0
 978 367 988.333333333 396.666666667 1009 418 c 128
 1029.66666667 439.333333333 1060.33333333 450 1101 450 c 2
 1115 450 l 1
EndSplineSet
EndChar

StartChar: u0B95_u0BB7_u0BC0
Encoding: 69 -1 69
Width: 1495
Flags: HW
AnchorPoint: "V" 255 455 basechar 0
AnchorPoint: "N" 255 0 basechar 0
LayerCount: 2
Fore
SplineSet
1395 104 m 0
 1395 74 1387.33333333 50 1372 32 c 0
 1353.33333333 10.6666666667 1325.33333333 0 1288 0 c 2
 1225 0 l 1
 1225 -215 l 1
 1155 -215 l 1
 1155 0 l 1
 728 0 l 1
 786 59.3333333333 815 127.666666667 815 205 c 0
 815 265.666666667 798.833333333 315.833333333 766.5 355.5 c 128
 734.166666667 395.166666667 691.333333333 415 638 415 c 0
 578.666666667 415 531 396.666666667 495 360 c 0
 465.666666667 330 451 296.666666667 451 260 c 1
 555 260 l 2
 593 260 622.333333333 252.666666667 643 238 c 0
 667 220.666666667 679 192.666666667 679 154 c 0
 679 109.333333333 668.833333333 72.5 648.5 43.5 c 128
 628.166666667 14.5 600.666666667 0 566 0 c 0
 512.666666667 0 474.166666667 19.3333333333 450.5 58 c 128
 426.833333333 96.6666666667 415 152.333333333 415 225 c 1
 316 225 l 1
 316 106 l 2
 316 78.6666666667 299 54.1666666667 265 32.5 c 128
 231 10.8333333333 194.333333333 0 155 0 c 0
 107.666666667 0 70.6666666667 11 44 33 c 0
 14.6666666667 57.6666666667 0 93.6666666667 0 141 c 0
 0 177.666666667 12.3333333333 207.666666667 37 231 c 0
 56.3333333333 249.666666667 74.3333333333 259 91 259 c 1
 91 450 l 1
 416 450 l 1
 416 415 l 1
 316 415 l 1
 316 260 l 1
 418 260 l 1
 427.333333333 320 450.666666667 366.666666667 488 400 c 128
 525.333333333 433.333333333 575.666666667 450 639 450 c 0
 723 450 786.333333333 426 829 378 c 0
 866.333333333 336 885 279.333333333 885 208 c 0
 885 176 880.333333333 146.166666667 871 118.5 c 128
 861.666666667 90.8333333333 845.666666667 63 823 35 c 1
 1155 35 l 1
 1155 192 l 1
 1103 202 1063 215.666666667 1035 233 c 0
 997 257 978 289 978 329 c 0
 978 365.666666667 987.5 394.833333333 1006.5 416.5 c 128
 1025.5 438.166666667 1052 449 1086 449 c 1
 1070.66666667 462.333333333 1057.33333333 478.333333333 1046 497 c 0
 1032 520.333333333 1025 543.666666667 1025 567 c 0
 1025 629.666666667 1045.66666667 677.333333333 1087 710 c 0
 1121 736.666666667 1161.33333333 750 1208 750 c 0
 1257.33333333 750 1298 741.333333333 1330 724 c 0
 1373.33333333 700.666666667 1395 663.666666667 1395 613 c 0
 1395 582.333333333 1384.33333333 556.666666667 1363 536 c 128
 1341.66666667 515.333333333 1314 505 1280 505 c 0
 1246.66666667 505 1220.83333333 514.5 1202.5 533.5 c 128
 1184.16666667 552.5 1175 575.333333333 1175 602 c 0
 1175 618.666666667 1178.83333333 635.333333333 1186.5 652 c 128
 1194.16666667 668.666666667 1204.66666667 680.666666667 1218 688 c 1
 1181 691 l 1
 1146.33333333 691 1118.16666667 677 1096.5 649 c 128
 1074.83333333 621 1064 589.666666667 1064 555 c 0
 1064 534.333333333 1068.66666667 514.833333333 1078 496.5 c 128
 1087.33333333 478.166666667 1099.33333333 462.666666667 1114 450 c 1
 1148 450 1175 441.666666667 1195 425 c 128
 1215 408.333333333 1225 388 1225 364 c 2
 1225 218 l 1
 1274.33333333 209.333333333 1313 197 1341 181 c 0
 1377 161 1395 135.333333333 1395 104 c 0
1336 602 m 0
 1336 621.333333333 1329.5 637.833333333 1316.5 651.5 c 128
 1303.5 665.166666667 1286.66666667 672 1266 672 c 1
 1248.66666667 668.666666667 1234.66666667 660.333333333 1224 647 c 128
 1213.33333333 633.666666667 1208 618.333333333 1208 601 c 256
 1208 583.666666667 1214.16666667 568.5 1226.5 555.5 c 128
 1238.83333333 542.5 1253.33333333 536 1270 536 c 0
 1288 536 1303.5 542.5 1316.5 555.5 c 128
 1329.5 568.5 1336 584 1336 602 c 0
1155 229 m 1
 1155 352 l 2
 1155 369.333333333 1147.83333333 383.666666667 1133.5 395 c 128
 1119.16666667 406.333333333 1100.66666667 412 1078 412 c 256
 1055.33333333 412 1038 404.666666667 1026 390 c 128
 1014 375.333333333 1008 355.333333333 1008 330 c 0
 1008 303.333333333 1024.33333333 280.666666667 1057 262 c 0
 1083 247.333333333 1115.66666667 236.333333333 1155 229 c 1
1353 108 m 0
 1353 126.666666667 1341.66666667 141.5 1319 152.5 c 128
 1296.33333333 163.5 1265 172.666666667 1225 180 c 1
 1225 35 l 1
 1289 35 l 2
 1312.33333333 35 1329.33333333 42 1340 56 c 0
 1348.66666667 67.3333333333 1353 84.6666666667 1353 108 c 0
604 152 m 0
 604 200.666666667 577 225 523 225 c 2
 449 225 l 1
 449 208.333333333 450.166666667 188.666666667 452.5 166 c 128
 454.833333333 143.333333333 457.666666667 127.333333333 461 118 c 0
 467.666666667 100 477.166666667 85.8333333333 489.5 75.5 c 128
 501.833333333 65.1666666667 517 60 535 60 c 0
 557 60 574 69.1666666667 586 87.5 c 128
 598 105.833333333 604 127.333333333 604 152 c 0
241 260 m 1
 241 415 l 1
 126 415 l 1
 126 260 l 1
 241 260 l 1
241 103 m 2
 241 225 l 1
 110 225 l 2
 93.3333333333 225 78 218.666666667 64 206 c 0
 44.6666666667 188.666666667 35 164 35 132 c 0
 35 99.3333333333 44.3333333333 75 63 59 c 128
 81.6666666667 43 108.666666667 35 144 35 c 0
 164.666666667 35 186 42 208 56 c 128
 230 70 241 85.6666666667 241 103 c 2
EndSplineSet
EndChar

StartChar: u0B95_u0BB7_u0BCD
Encoding: 70 -1 70
Width: 1495
Flags: HW
AnchorPoint: "N" 255 0 basechar 0
LayerCount: 2
Fore
SplineSet
1395 104 m 0
 1395 74 1387.33333333 50 1372 32 c 0
 1353.33333333 10.6666666667 1325.33333333 0 1288 0 c 2
 1225 0 l 1
 1225 -215 l 1
 1155 -215 l 1
 1155 0 l 1
 728 0 l 1
 786 59.3333333333 815 127.666666667 815 205 c 0
 815 265.666666667 798.833333333 315.833333333 766.5 355.5 c 128
 734.166666667 395.166666667 691.333333333 415 638 415 c 0
 578.666666667 415 531 396.666666667 495 360 c 0
 465.666666667 330 451 296.666666667 451 260 c 1
 555 260 l 2
 593 260 622.333333333 252.666666667 643 238 c 0
 667 220.666666667 679 192.666666667 679 154 c 0
 679 109.333333333 668.833333333 72.5 648.5 43.5 c 128
 628.166666667 14.5 600.666666667 0 566 0 c 0
 512.666666667 0 474.166666667 19.3333333333 450.5 58 c 128
 426.833333333 96.6666666667 415 152.333333333 415 225 c 1
 316 225 l 1
 316 106 l 2
 316 78.6666666667 299 54.1666666667 265 32.5 c 128
 231 10.8333333333 194.333333333 0 155 0 c 0
 107.666666667 0 70.6666666667 11 44 33 c 0
 14.6666666667 57.6666666667 0 93.6666666667 0 141 c 0
 0 177.666666667 12.3333333333 207.666666667 37 231 c 0
 56.3333333333 249.666666667 74.3333333333 259 91 259 c 1
 91 450 l 1
 416 450 l 1
 416 415 l 1
 316 415 l 1
 316 260 l 1
 418 260 l 1
 427.333333333 320 450.666666667 366.666666667 488 400 c 128
 525.333333333 433.333333333 575.666666667 450 639 450 c 0
 723 450 786.333333333 426 829 378 c 0
 866.333333333 336 885 279.333333333 885 208 c 0
 885 176 880.333333333 146.166666667 871 118.5 c 128
 861.666666667 90.8333333333 845.666666667 63 823 35 c 1
 1155 35 l 1
 1155 192 l 1
 1103 202 1063 215.666666667 1035 233 c 0
 997 257 978 289 978 329 c 0
 978 367 988.333333333 396.666666667 1009 418 c 128
 1029.66666667 439.333333333 1060.33333333 450 1101 450 c 0
 1141 450 1171.66666667 442.166666667 1193 426.5 c 128
 1214.33333333 410.833333333 1225 390 1225 364 c 2
 1225 218 l 1
 1274.33333333 209.333333333 1313 197 1341 181 c 0
 1377 161 1395 135.333333333 1395 104 c 0
1155 229 m 1
 1155 352 l 2
 1155 369.333333333 1147.83333333 383.666666667 1133.5 395 c 128
 1119.16666667 406.333333333 1100.66666667 412 1078 412 c 256
 1055.33333333 412 1038 404.666666667 1026 390 c 128
 1014 375.333333333 1008 355.333333333 1008 330 c 0
 1008 303.333333333 1024.33333333 280.666666667 1057 262 c 0
 1083 247.333333333 1115.66666667 236.333333333 1155 229 c 1
1353 108 m 0
 1353 126.666666667 1341.66666667 141.5 1319 152.5 c 128
 1296.33333333 163.5 1265 172.666666667 1225 180 c 1
 1225 35 l 1
 1289 35 l 2
 1312.33333333 35 1329.33333333 42 1340 56 c 0
 1348.66666667 67.3333333333 1353 84.6666666667 1353 108 c 0
604 152 m 0
 604 200.666666667 577 225 523 225 c 2
 449 225 l 1
 449 208.333333333 450.166666667 188.666666667 452.5 166 c 128
 454.833333333 143.333333333 457.666666667 127.333333333 461 118 c 0
 467.666666667 100 477.166666667 85.8333333333 489.5 75.5 c 128
 501.833333333 65.1666666667 517 60 535 60 c 0
 557 60 574 69.1666666667 586 87.5 c 128
 598 105.833333333 604 127.333333333 604 152 c 0
241 260 m 1
 241 415 l 1
 126 415 l 1
 126 260 l 1
 241 260 l 1
241 103 m 2
 241 225 l 1
 110 225 l 2
 93.3333333333 225 78 218.666666667 64 206 c 0
 44.6666666667 188.666666667 35 164 35 132 c 0
 35 99.3333333333 44.3333333333 75 63 59 c 128
 81.6666666667 43 108.666666667 35 144 35 c 0
 164.666666667 35 186 42 208 56 c 128
 230 70 241 85.6666666667 241 103 c 2
878 639 m 256
 893.333333333 639 906.666666667 633.333333333 918 622 c 128
 929.333333333 610.666666667 935 597.333333333 935 582 c 0
 935 567.333333333 929.5 555.5 918.5 546.5 c 128
 907.5 537.5 894 533 878 533 c 0
 863.333333333 533 850.166666667 537.5 838.5 546.5 c 128
 826.833333333 555.5 821 567.333333333 821 582 c 0
 821 597.333333333 826.666666667 610.666666667 838 622 c 128
 849.333333333 633.333333333 862.666666667 639 878 639 c 256
EndSplineSet
EndChar

StartChar: u0B9A
Encoding: 71 2970 71
Width: 520
Flags: HW
AnchorPoint: "V" 255 455 basechar 0
AnchorPoint: "N" 255 0 basechar 0
LayerCount: 2
Fore
SplineSet
416 225 m 1
 316 225 l 1
 316 106 l 2
 316 78.6666666667 299 54.1666666667 265 32.5 c 128
 231 10.8333333333 194.333333333 0 155 0 c 0
 107.666666667 0 70.6666666667 11 44 33 c 0
 14.6666666667 57.6666666667 0 93.6666666667 0 141 c 0
 0 177.666666667 12.3333333333 207.666666667 37 231 c 0
 56.3333333333 249.666666667 74.3333333333 259 91 259 c 1
 91 450 l 1
 416 450 l 1
 416 415 l 1
 316 415 l 1
 316 260 l 1
 416 260 l 1
 416 225 l 1
241 260 m 1
 241 415 l 1
 126 415 l 1
 126 260 l 1
 241 260 l 1
241 103 m 2
 241 225 l 1
 110 225 l 2
 93.3333333333 225 78 218.666666667 64 206 c 0
 44.6666666667 188.666666667 35 164 35 132 c 0
 35 99.3333333333 44.3333333333 75 63 59 c 128
 81.6666666667 43 108.666666667 35 144 35 c 0
 164.666666667 35 186 42 208 56 c 128
 230 70 241 85.6666666667 241 103 c 2
EndSplineSet
EndChar

StartChar: u0B9A_u0BBF
Encoding: 72 -1 72
Width: 635
Flags: HW
AnchorPoint: "V" 255 724.68 basechar 0
AnchorPoint: "N" 255 0 basechar 0
LayerCount: 2
Fore
SplineSet
530 0 m 1
 500 0 l 1
 500 452 l 2
 500 509.333333333 478 556.666666667 434 594 c 128
 390 631.333333333 336 650 272 650 c 0
 190.666666667 650 129.666666667 629.333333333 89 588 c 0
 53 552 35 502.333333333 35 439 c 0
 35 407 39.6666666667 376.666666667 49 348 c 128
 58.3333333333 319.333333333 72.3333333333 296.333333333 91 279 c 1
 91 450 l 1
 416 450 l 1
 416 415 l 1
 316 415 l 1
 316 260 l 1
 416 260 l 1
 416 225 l 1
 316 225 l 1
 316 106 l 2
 316 78.6666666667 299 54.1666666667 265 32.5 c 128
 231 10.8333333333 194.333333333 0 155 0 c 0
 107.666666667 0 70.6666666667 11 44 33 c 0
 14.6666666667 57.6666666667 0 93.6666666667 0 141 c 0
 0 171.666666667 8 197.333333333 24 218 c 0
 36.6666666667 234 52.3333333333 246 71 254 c 1
 45.6666666667 275.333333333 27.5 301.5 16.5 332.5 c 128
 5.5 363.5 0 397.333333333 0 434 c 0
 0 513.333333333 20 579 60 631 c 0
 108 693.666666667 178.333333333 725 271 725 c 0
 353.666666667 725 417.5 701.166666667 462.5 653.5 c 128
 507.5 605.833333333 530 536.333333333 530 445 c 2
 530 0 l 1
241 260 m 1
 241 415 l 1
 126 415 l 1
 126 260 l 1
 241 260 l 1
241 103 m 2
 241 225 l 1
 110 225 l 2
 93.3333333333 225 78 218.666666667 64 206 c 0
 44.6666666667 188.666666667 35 164 35 132 c 0
 35 99.3333333333 44.3333333333 75 63 59 c 128
 81.6666666667 43 108.666666667 35 144 35 c 0
 164.666666667 35 186 42 208 56 c 128
 230 70 241 85.6666666667 241 103 c 2
EndSplineSet
EndChar

StartChar: u0B9A_u0BC0
Encoding: 73 -1 73
Width: 515
Flags: HW
AnchorPoint: "V" 255 744.723 basechar 0
AnchorPoint: "N" 255 0 basechar 0
LayerCount: 2
Fore
SplineSet
449 602 m 0
 449 621.333333333 442.5 637.833333333 429.5 651.5 c 128
 416.5 665.166666667 399.666666667 672 379 672 c 1
 361.666666667 668.666666667 347.666666667 660.333333333 337 647 c 128
 326.333333333 633.666666667 321 618.333333333 321 601 c 256
 321 583.666666667 327.166666667 568.5 339.5 555.5 c 128
 351.833333333 542.5 366.333333333 536 383 536 c 0
 401 536 416.5 542.5 429.5 555.5 c 128
 442.5 568.5 449 584 449 602 c 0
241 260 m 1
 241 415 l 1
 126 415 l 1
 126 260 l 1
 241 260 l 1
241 103 m 2
 241 225 l 1
 110 225 l 2
 93.3333333333 225 78 218.666666667 64 206 c 0
 44.6666666667 188.666666667 35 164 35 132 c 0
 35 99.3333333333 44.3333333333 75 63 59 c 128
 81.6666666667 43 108.666666667 35 144 35 c 0
 164.666666667 35 186 42 208 56 c 128
 230 70 241 85.6666666667 241 103 c 2
71 254 m 1
 45.6666666667 275.333333333 27.5 301.5 16.5 332.5 c 128
 5.5 363.5 0 397.333333333 0 434 c 0
 0 527.333333333 30 603.333333333 90 662 c 128
 150 720.666666667 227 750 321 750 c 0
 370.333333333 750 411 741.333333333 443 724 c 0
 486.333333333 700.666666667 508 663.666666667 508 613 c 0
 508 582.333333333 497.333333333 556.666666667 476 536 c 128
 454.666666667 515.333333333 427 505 393 505 c 0
 359.666666667 505 333.833333333 514.5 315.5 533.5 c 128
 297.166666667 552.5 288 575.333333333 288 602 c 0
 288 618.666666667 291.833333333 635.333333333 299.5 652 c 128
 307.166666667 668.666666667 317.666666667 680.666666667 331 688 c 1
 294 691 l 1
 218.666666667 691 155.666666667 663.666666667 105 609 c 0
 58.3333333333 559 35 502.333333333 35 439 c 0
 35 407 39.6666666667 376.666666667 49 348 c 128
 58.3333333333 319.333333333 72.3333333333 296.333333333 91 279 c 1
 91 450 l 1
 415 450 l 1
 415 415 l 1
 316 415 l 1
 316 260 l 1
 415 260 l 1
 415 225 l 1
 316 225 l 1
 316 106 l 2
 316 78.6666666667 299 54.1666666667 265 32.5 c 128
 231 10.8333333333 194.333333333 0 155 0 c 0
 107.666666667 0 70.6666666667 11 44 33 c 0
 14.6666666667 57.6666666667 0 93.6666666667 0 141 c 0
 0 171.666666667 8 197.333333333 24 218 c 0
 36.6666666667 234 52.3333333333 246 71 254 c 1
EndSplineSet
EndChar

StartChar: u0B9A_u0BC1
Encoding: 74 -1 74
Width: 680
Flags: HW
AnchorPoint: "V" 255 455 basechar 0
AnchorPoint: "N" 255 0 basechar 0
LayerCount: 2
Fore
SplineSet
241 260 m 1
 241 415 l 1
 126 415 l 1
 126 260 l 1
 241 260 l 1
241 103 m 2
 241 225 l 1
 110 225 l 2
 93.3333333333 225 78 218.666666667 64 206 c 0
 44.6666666667 188.666666667 35 164 35 132 c 0
 35 99.3333333333 44.3333333333 75 63 59 c 128
 81.6666666667 43 108.666666667 35 144 35 c 0
 164.666666667 35 186 42 208 56 c 128
 230 70 241 85.6666666667 241 103 c 2
490 0 m 1
 415 0 l 1
 415 225 l 1
 316 225 l 1
 316 106 l 2
 316 78.6666666667 299 54.1666666667 265 32.5 c 128
 231 10.8333333333 194.333333333 0 155 0 c 0
 107.666666667 0 70.6666666667 11 44 33 c 0
 14.6666666667 57.6666666667 0 93.6666666667 0 141 c 0
 0 177.666666667 12.3333333333 207.666666667 37 231 c 0
 56.3333333333 249.666666667 74.3333333333 259 91 259 c 1
 91 450 l 1
 416 450 l 1
 416 415 l 1
 316 415 l 1
 316 260 l 1
 580 260 l 1
 580 225 l 1
 490 225 l 1
 490 0 l 1
EndSplineSet
EndChar

StartChar: u0B9A_u0BC2
Encoding: 75 -1 75
Width: 775
Flags: HW
AnchorPoint: "V" 255 455 basechar 0
AnchorPoint: "N" 255 0 basechar 0
LayerCount: 2
Fore
SplineSet
241 260 m 1
 241 415 l 1
 126 415 l 1
 126 260 l 1
 241 260 l 1
241 103 m 2
 241 225 l 1
 110 225 l 2
 93.3333333333 225 78 218.666666667 64 206 c 0
 44.6666666667 188.666666667 35 164 35 132 c 0
 35 99.3333333333 44.3333333333 75 63 59 c 128
 81.6666666667 43 108.666666667 35 144 35 c 0
 164.666666667 35 186 42 208 56 c 128
 230 70 241 85.6666666667 241 103 c 2
490 0 m 1
 415 0 l 1
 415 225 l 1
 316 225 l 1
 316 106 l 2
 316 78.6666666667 299 54.1666666667 265 32.5 c 128
 231 10.8333333333 194.333333333 0 155 0 c 0
 107.666666667 0 70.6666666667 11 44 33 c 0
 14.6666666667 57.6666666667 0 93.6666666667 0 141 c 0
 0 177.666666667 12.3333333333 207.666666667 37 231 c 0
 56.3333333333 249.666666667 74.3333333333 259 91 259 c 1
 91 450 l 1
 416 450 l 1
 416 415 l 1
 316 415 l 1
 316 260 l 1
 580 260 l 1
 580 225 l 1
 490 225 l 1
 490 157 l 1
 501.333333333 173 521 181 549 181 c 0
 583 181 612.5 166.333333333 637.5 137 c 128
 662.5 107.666666667 675 67.3333333333 675 16 c 0
 675 -63.3333333333 644.333333333 -127.5 583 -176.5 c 128
 521.666666667 -225.5 444 -250 350 -250 c 0
 263.333333333 -250 196.5 -238.833333333 149.5 -216.5 c 128
 102.5 -194.166666667 79 -162.333333333 79 -121 c 0
 79 -93 91.3333333333 -71.6666666667 116 -57 c 128
 140.666666667 -42.3333333333 171 -35 207 -35 c 0
 233 -35 258 -39.1666666667 282 -47.5 c 128
 306 -55.8333333333 326 -67.3333333333 342 -82 c 1
 332 -100 l 1
 316 -88 296.166666667 -78.5 272.5 -71.5 c 128
 248.833333333 -64.5 225.333333333 -61 202 -61 c 0
 173.333333333 -61 151.166666667 -66 135.5 -76 c 128
 119.833333333 -86 112 -100.333333333 112 -119 c 0
 112 -152.333333333 134.333333333 -177.333333333 179 -194 c 0
 216.333333333 -208 263.333333333 -215 320 -215 c 0
 402.666666667 -215 470.666666667 -191.666666667 524 -145 c 0
 574.666666667 -101 600 -48.6666666667 600 12 c 0
 600 52 591.333333333 83.3333333333 574 106 c 0
 559.333333333 125.333333333 541.666666667 135 521 135 c 0
 508.333333333 135 498 131 490 123 c 1
 490 0 l 1
EndSplineSet
EndChar

StartChar: u0B9A_u0BCD
Encoding: 76 -1 76
Width: 520
Flags: HW
AnchorPoint: "N" 255 0 basechar 0
LayerCount: 2
Fore
SplineSet
416 225 m 1
 316 225 l 1
 316 106 l 2
 316 78.6666666667 299 54.1666666667 265 32.5 c 128
 231 10.8333333333 194.333333333 0 155 0 c 0
 107.666666667 0 70.6666666667 11 44 33 c 0
 14.6666666667 57.6666666667 0 93.6666666667 0 141 c 0
 0 177.666666667 12.3333333333 207.666666667 37 231 c 0
 56.3333333333 249.666666667 74.3333333333 259 91 259 c 1
 91 450 l 1
 416 450 l 1
 416 415 l 1
 316 415 l 1
 316 260 l 1
 416 260 l 1
 416 225 l 1
241 260 m 1
 241 415 l 1
 126 415 l 1
 126 260 l 1
 241 260 l 1
241 103 m 2
 241 225 l 1
 110 225 l 2
 93.3333333333 225 78 218.666666667 64 206 c 0
 44.6666666667 188.666666667 35 164 35 132 c 0
 35 99.3333333333 44.3333333333 75 63 59 c 128
 81.6666666667 43 108.666666667 35 144 35 c 0
 164.666666667 35 186 42 208 56 c 128
 230 70 241 85.6666666667 241 103 c 2
255 639 m 256
 270.333333333 639 283.666666667 633.333333333 295 622 c 128
 306.333333333 610.666666667 312 597.333333333 312 582 c 256
 312 566.666666667 306.333333333 553.333333333 295 542 c 128
 283.666666667 530.666666667 270.333333333 525 255 525 c 256
 239.666666667 525 226.333333333 530.666666667 215 542 c 128
 203.666666667 553.333333333 198 566.666666667 198 582 c 256
 198 597.333333333 203.666666667 610.666666667 215 622 c 128
 226.333333333 633.333333333 239.666666667 639 255 639 c 256
EndSplineSet
EndChar

StartChar: u0B9C
Encoding: 77 2972 77
Width: 650
Flags: HW
AnchorPoint: "V" 298 455 basechar 0
AnchorPoint: "N" 298 -167 basechar 0
LayerCount: 2
Fore
SplineSet
550 292 m 0
 550 258.666666667 544.333333333 227 533 197 c 0
 519 159.666666667 498.666666667 134 472 120 c 0
 437.333333333 102 381.833333333 91.1666666667 305.5 87.5 c 128
 229.166666667 83.8333333333 178.333333333 77.3333333333 153 68 c 0
 136.333333333 61.3333333333 123 52.3333333333 113 41 c 0
 97.6666666667 23 90 0.333333333333 90 -27 c 0
 90 -59.6666666667 95.3333333333 -85 106 -103 c 128
 116.666666667 -121 135.333333333 -130 162 -130 c 0
 196 -130 224.666666667 -119.333333333 248 -98 c 0
 253.333333333 -93.3333333333 271.5 -71.5 302.5 -32.5 c 128
 333.5 6.5 353.333333333 28.3333333333 362 33 c 0
 380.666666667 43.6666666667 406 49 438 49 c 0
 472.666666667 49 499.833333333 40.5 519.5 23.5 c 128
 539.166666667 6.5 549 -17.6666666667 549 -49 c 0
 549 -81 539.166666667 -107.5 519.5 -128.5 c 128
 499.833333333 -149.5 470 -160 430 -160 c 0
 418.666666667 -160 406.166666667 -158.5 392.5 -155.5 c 128
 378.833333333 -152.5 368 -149 360 -145 c 1
 369 -119 l 1
 376.333333333 -121.666666667 384.166666667 -123.333333333 392.5 -124 c 128
 400.833333333 -124.666666667 410.333333333 -125 421 -125 c 0
 440.333333333 -125 454.833333333 -118.5 464.5 -105.5 c 128
 474.166666667 -92.5 479 -76.3333333333 479 -57 c 0
 479 -31.6666666667 474.5 -14.1666666667 465.5 -4.5 c 128
 456.5 5.16666666667 439 10 413 10 c 0
 399 10 384.333333333 2 369 -14 c 0
 363.666666667 -19.3333333333 351 -35 331 -61 c 0
 305 -94.3333333333 284.333333333 -117.666666667 269 -131 c 0
 240.333333333 -155 208.666666667 -167 174 -167 c 0
 119.333333333 -167 80 -155.333333333 56 -132 c 128
 32 -108.666666667 20 -73.6666666667 20 -27 c 0
 20 7 28.3333333333 34 45 54 c 0
 57.6666666667 68.6666666667 76.6666666667 81 102 91 c 0
 138.666666667 105.666666667 183.666666667 115.333333333 237 120 c 0
 344.333333333 130 407.5 139.666666667 426.5 149 c 128
 445.5 158.333333333 460 182.333333333 470 221 c 0
 476.666666667 247 480 273.333333333 480 300 c 0
 480 334 472.666666667 361.666666667 458 383 c 128
 443.333333333 404.333333333 420.666666667 415 390 415 c 0
 370 415 354.333333333 405.333333333 343 386 c 0
 334.333333333 371.333333333 330 356 330 340 c 2
 330 214 l 1
 260 214 l 1
 260 335 l 2
 260 353 253.333333333 369.333333333 240 384 c 0
 221.333333333 404.666666667 195.666666667 415 163 415 c 0
 129.666666667 415 100.166666667 405.5 74.5 386.5 c 128
 48.8333333333 367.5 36 346.333333333 36 323 c 1
 52.6666666667 351 77.6666666667 365 111 365 c 0
 139.666666667 365 162.666666667 354.833333333 180 334.5 c 128
 197.333333333 314.166666667 206 289 206 259 c 0
 206 226.333333333 196.666666667 201 178 183 c 128
 159.333333333 165 134 156 102 156 c 0
 65.3333333333 156 38.3333333333 171.333333333 21 202 c 0
 7 226.666666667 0 260.666666667 0 304 c 0
 0 344 15 377.666666667 45 405 c 0
 77.6666666667 435 121.666666667 450 177 450 c 0
 215.666666667 450 246.333333333 444 269 432 c 0
 286.333333333 422.666666667 298.333333333 409.666666667 305 393 c 1
 311 408.333333333 320 420.666666667 332 430 c 0
 349.333333333 443.333333333 372 450 400 450 c 0
 448.666666667 450 485.833333333 436.166666667 511.5 408.5 c 128
 537.166666667 380.833333333 550 342 550 292 c 0
141 277 m 0
 138.333333333 288.333333333 132 298 122 306 c 128
 112 314 101 318 89 318 c 0
 66.3333333333 318 48.3333333333 306 35 282 c 1
 35 258.666666667 40.3333333333 239.166666667 51 223.5 c 128
 61.6666666667 207.833333333 76 200 94 200 c 0
 110 200 122.166666667 206.166666667 130.5 218.5 c 128
 138.833333333 230.833333333 143 245 143 261 c 0
 143 265 142.333333333 270.333333333 141 277 c 0
EndSplineSet
EndChar

StartChar: u0B9C_u0BBF
Encoding: 78 -1 78
Width: 780
Flags: HW
AnchorPoint: "V" 298 455 basechar 0
AnchorPoint: "N" 298 -167 basechar 0
LayerCount: 2
Fore
SplineSet
141 277 m 0
 138.333333333 288.333333333 132 298 122 306 c 128
 112 314 101 318 89 318 c 0
 66.3333333333 318 48.3333333333 306 35 282 c 1
 35 258.666666667 40.3333333333 239.166666667 51 223.5 c 128
 61.6666666667 207.833333333 76 200 94 200 c 0
 110 200 122.166666667 206.166666667 130.5 218.5 c 128
 138.833333333 230.833333333 143 245 143 261 c 0
 143 265 142.333333333 270.333333333 141 277 c 0
380 449 m 1
 372.666666667 461 366.666666667 476.166666667 362 494.5 c 128
 357.333333333 512.833333333 355 532.666666667 355 554 c 0
 355 604.666666667 368 645 394 675 c 0
 423.333333333 709 466.666666667 726 524 726 c 0
 586 726 629.333333333 702.333333333 654 655 c 0
 671.333333333 621.666666667 680 577 680 521 c 2
 680 0 l 1
 650 0 l 1
 650 520 l 2
 650 558.666666667 641 590 623 614 c 0
 601 643.333333333 567.666666667 658 523 658 c 0
 437 658 394 610 394 514 c 0
 394 501.333333333 396.166666667 489.333333333 400.5 478 c 128
 404.833333333 466.666666667 409.666666667 457.333333333 415 450 c 1
 459 450 492.5 435.833333333 515.5 407.5 c 128
 538.5 379.166666667 550 340.666666667 550 292 c 0
 550 258.666666667 544.333333333 227 533 197 c 0
 519 159.666666667 498.666666667 134 472 120 c 0
 437.333333333 102 381.833333333 91.1666666667 305.5 87.5 c 128
 229.166666667 83.8333333333 178.333333333 77.3333333333 153 68 c 0
 136.333333333 61.3333333333 123 52.3333333333 113 41 c 0
 97.6666666667 23 90 0.333333333333 90 -27 c 0
 90 -59.6666666667 95.3333333333 -85 106 -103 c 128
 116.666666667 -121 135.333333333 -130 162 -130 c 0
 196 -130 224.666666667 -119.333333333 248 -98 c 0
 253.333333333 -93.3333333333 271.5 -71.5 302.5 -32.5 c 128
 333.5 6.5 353.333333333 28.3333333333 362 33 c 0
 380.666666667 43.6666666667 406 49 438 49 c 0
 472.666666667 49 499.833333333 40.5 519.5 23.5 c 128
 539.166666667 6.5 549 -17.6666666667 549 -49 c 0
 549 -81 539.166666667 -107.5 519.5 -128.5 c 128
 499.833333333 -149.5 470 -160 430 -160 c 0
 418.666666667 -160 406.166666667 -158.5 392.5 -155.5 c 128
 378.833333333 -152.5 368 -149 360 -145 c 1
 369 -119 l 1
 376.333333333 -121.666666667 384.166666667 -123.333333333 392.5 -124 c 128
 400.833333333 -124.666666667 410.333333333 -125 421 -125 c 0
 440.333333333 -125 454.833333333 -118.5 464.5 -105.5 c 128
 474.166666667 -92.5 479 -76.3333333333 479 -57 c 0
 479 -31.6666666667 474.5 -14.1666666667 465.5 -4.5 c 128
 456.5 5.16666666667 439 10 413 10 c 0
 399 10 384.333333333 2 369 -14 c 0
 363.666666667 -19.3333333333 351 -35 331 -61 c 0
 305 -94.3333333333 284.333333333 -117.666666667 269 -131 c 0
 240.333333333 -155 208.666666667 -167 174 -167 c 0
 119.333333333 -167 80 -155.333333333 56 -132 c 128
 32 -108.666666667 20 -73.6666666667 20 -27 c 0
 20 7 28.3333333333 34 45 54 c 0
 57.6666666667 68.6666666667 76.6666666667 81 102 91 c 0
 138.666666667 105.666666667 183.666666667 115.333333333 237 120 c 0
 344.333333333 130 407.5 139.666666667 426.5 149 c 128
 445.5 158.333333333 460 182.333333333 470 221 c 0
 476.666666667 247 480 273.333333333 480 300 c 0
 480 334 472.666666667 361.666666667 458 383 c 128
 443.333333333 404.333333333 420.666666667 415 390 415 c 0
 370 415 354.333333333 405.333333333 343 386 c 0
 334.333333333 371.333333333 330 356 330 340 c 2
 330 214 l 1
 260 214 l 1
 260 335 l 2
 260 353 253.333333333 369.333333333 240 384 c 0
 221.333333333 404.666666667 195.666666667 415 163 415 c 0
 129.666666667 415 100.166666667 405.5 74.5 386.5 c 128
 48.8333333333 367.5 36 346.333333333 36 323 c 1
 52.6666666667 351 77.6666666667 365 111 365 c 0
 139.666666667 365 162.666666667 354.833333333 180 334.5 c 128
 197.333333333 314.166666667 206 289 206 259 c 0
 206 226.333333333 196.666666667 201 178 183 c 128
 159.333333333 165 134 156 102 156 c 0
 65.3333333333 156 38.3333333333 171.333333333 21 202 c 0
 7 226.666666667 0 260.666666667 0 304 c 0
 0 344 15 377.666666667 45 405 c 0
 77.6666666667 435 121.666666667 450 177 450 c 0
 215.666666667 450 246.333333333 444 269 432 c 0
 286.333333333 422.666666667 298.333333333 409.666666667 305 393 c 1
 310.333333333 406.333333333 317.666666667 417.333333333 327 426 c 0
 340.333333333 438 358 445.666666667 380 449 c 1
EndSplineSet
EndChar

StartChar: u0B9C_u0BC0
Encoding: 79 -1 79
Width: 685
Flags: HW
AnchorPoint: "V" 298 455 basechar 0
AnchorPoint: "N" 298 -167 basechar 0
LayerCount: 2
Fore
SplineSet
141 277 m 0
 138.333333333 288.333333333 132 298 122 306 c 128
 112 314 101 318 89 318 c 0
 66.3333333333 318 48.3333333333 306 35 282 c 1
 35 258.666666667 40.3333333333 239.166666667 51 223.5 c 128
 61.6666666667 207.833333333 76 200 94 200 c 0
 110 200 122.166666667 206.166666667 130.5 218.5 c 128
 138.833333333 230.833333333 143 245 143 261 c 0
 143 265 142.333333333 270.333333333 141 277 c 0
550 292 m 0
 550 258.666666667 544.333333333 227 533 197 c 0
 519 159.666666667 498.666666667 134 472 120 c 0
 437.333333333 102 381.833333333 91.1666666667 305.5 87.5 c 128
 229.166666667 83.8333333333 178.333333333 77.3333333333 153 68 c 0
 136.333333333 61.3333333333 123 52.3333333333 113 41 c 0
 97.6666666667 23 90 0.333333333333 90 -27 c 0
 90 -59.6666666667 95.3333333333 -85 106 -103 c 128
 116.666666667 -121 135.333333333 -130 162 -130 c 0
 196 -130 224.666666667 -119.333333333 248 -98 c 0
 253.333333333 -93.3333333333 271.5 -71.5 302.5 -32.5 c 128
 333.5 6.5 353.333333333 28.3333333333 362 33 c 0
 380.666666667 43.6666666667 406 49 438 49 c 0
 472.666666667 49 499.833333333 40.5 519.5 23.5 c 128
 539.166666667 6.5 549 -17.6666666667 549 -49 c 0
 549 -81 539.166666667 -107.5 519.5 -128.5 c 128
 499.833333333 -149.5 470 -160 430 -160 c 0
 418.666666667 -160 406.166666667 -158.5 392.5 -155.5 c 128
 378.833333333 -152.5 368 -149 360 -145 c 1
 369 -119 l 1
 376.333333333 -121.666666667 384.166666667 -123.333333333 392.5 -124 c 128
 400.833333333 -124.666666667 410.333333333 -125 421 -125 c 0
 440.333333333 -125 454.833333333 -118.5 464.5 -105.5 c 128
 474.166666667 -92.5 479 -76.3333333333 479 -57 c 0
 479 -31.6666666667 474.5 -14.1666666667 465.5 -4.5 c 128
 456.5 5.16666666667 439 10 413 10 c 0
 399 10 384.333333333 2 369 -14 c 0
 363.666666667 -19.3333333333 351 -35 331 -61 c 0
 305 -94.3333333333 284.333333333 -117.666666667 269 -131 c 0
 240.333333333 -155 208.666666667 -167 174 -167 c 0
 119.333333333 -167 80 -155.333333333 56 -132 c 128
 32 -108.666666667 20 -73.6666666667 20 -27 c 0
 20 7 28.3333333333 34 45 54 c 0
 57.6666666667 68.6666666667 76.6666666667 81 102 91 c 0
 138.666666667 105.666666667 183.666666667 115.333333333 237 120 c 0
 344.333333333 130 407.5 139.666666667 426.5 149 c 128
 445.5 158.333333333 460 182.333333333 470 221 c 0
 476.666666667 247 480 273.333333333 480 300 c 0
 480 334 472.666666667 361.666666667 458 383 c 128
 443.333333333 404.333333333 420.666666667 415 390 415 c 0
 370 415 354.333333333 405.333333333 343 386 c 0
 334.333333333 371.333333333 330 356 330 340 c 2
 330 214 l 1
 260 214 l 1
 260 335 l 2
 260 353 253.333333333 369.333333333 240 384 c 0
 221.333333333 404.666666667 195.666666667 415 163 415 c 0
 129.666666667 415 100.166666667 405.5 74.5 386.5 c 128
 48.8333333333 367.5 36 346.333333333 36 323 c 1
 52.6666666667 351 77.6666666667 365 111 365 c 0
 139.666666667 365 162.666666667 354.833333333 180 334.5 c 128
 197.333333333 314.166666667 206 289 206 259 c 0
 206 226.333333333 196.666666667 201 178 183 c 128
 159.333333333 165 134 156 102 156 c 0
 65.3333333333 156 38.3333333333 171.333333333 21 202 c 0
 7 226.666666667 0 260.666666667 0 304 c 0
 0 344 15 377.666666667 45 405 c 0
 77.6666666667 435 121.666666667 450 177 450 c 0
 215.666666667 450 246.333333333 444 269 432 c 0
 286.333333333 422.666666667 298.333333333 409.666666667 305 393 c 1
 310.333333333 407.666666667 318.333333333 419.666666667 329 429 c 0
 343.666666667 442.333333333 362.666666667 449 386 449 c 1
 370.666666667 462.333333333 357.333333333 478.333333333 346 497 c 0
 332 520.333333333 325 543.666666667 325 567 c 0
 325 629.666666667 345.666666667 677.333333333 387 710 c 0
 421 736.666666667 461.333333333 750 508 750 c 0
 557.333333333 750 598 741.333333333 630 724 c 0
 673.333333333 700.666666667 695 663.666666667 695 613 c 0
 695 582.333333333 684.333333333 556.666666667 663 536 c 128
 641.666666667 515.333333333 614 505 580 505 c 0
 546.666666667 505 520.833333333 514.5 502.5 533.5 c 128
 484.166666667 552.5 475 575.333333333 475 602 c 0
 475 618.666666667 478.833333333 635.333333333 486.5 652 c 128
 494.166666667 668.666666667 504.666666667 680.666666667 518 688 c 1
 481 691 l 1
 446.333333333 691 418.166666667 677 396.5 649 c 128
 374.833333333 621 364 589.666666667 364 555 c 0
 364 534.333333333 368.666666667 514.833333333 378 496.5 c 128
 387.333333333 478.166666667 399.333333333 462.666666667 414 450 c 1
 457.333333333 450 490.833333333 435.833333333 514.5 407.5 c 128
 538.166666667 379.166666667 550 340.666666667 550 292 c 0
636 602 m 0
 636 621.333333333 629.5 637.833333333 616.5 651.5 c 128
 603.5 665.166666667 586.666666667 672 566 672 c 1
 548.666666667 668.666666667 534.666666667 660.333333333 524 647 c 128
 513.333333333 633.666666667 508 618.333333333 508 601 c 256
 508 583.666666667 514.166666667 568.5 526.5 555.5 c 128
 538.833333333 542.5 553.333333333 536 570 536 c 0
 588 536 603.5 542.5 616.5 555.5 c 128
 629.5 568.5 636 584 636 602 c 0
EndSplineSet
EndChar

StartChar: u0B9C_u0BCD
Encoding: 80 -1 80
Width: 650
Flags: HW
AnchorPoint: "N" 298 -167 basechar 0
LayerCount: 2
Fore
SplineSet
550 292 m 0
 550 258.666666667 544.333333333 227 533 197 c 0
 519 159.666666667 498.666666667 134 472 120 c 0
 437.333333333 102 381.833333333 91.1666666667 305.5 87.5 c 128
 229.166666667 83.8333333333 178.333333333 77.3333333333 153 68 c 0
 136.333333333 61.3333333333 123 52.3333333333 113 41 c 0
 97.6666666667 23 90 0.333333333333 90 -27 c 0
 90 -59.6666666667 95.3333333333 -85 106 -103 c 128
 116.666666667 -121 135.333333333 -130 162 -130 c 0
 196 -130 224.666666667 -119.333333333 248 -98 c 0
 253.333333333 -93.3333333333 271.5 -71.5 302.5 -32.5 c 128
 333.5 6.5 353.333333333 28.3333333333 362 33 c 0
 380.666666667 43.6666666667 406 49 438 49 c 0
 472.666666667 49 499.833333333 40.5 519.5 23.5 c 128
 539.166666667 6.5 549 -17.6666666667 549 -49 c 0
 549 -81 539.166666667 -107.5 519.5 -128.5 c 128
 499.833333333 -149.5 470 -160 430 -160 c 0
 418.666666667 -160 406.166666667 -158.5 392.5 -155.5 c 128
 378.833333333 -152.5 368 -149 360 -145 c 1
 369 -119 l 1
 376.333333333 -121.666666667 384.166666667 -123.333333333 392.5 -124 c 128
 400.833333333 -124.666666667 410.333333333 -125 421 -125 c 0
 440.333333333 -125 454.833333333 -118.5 464.5 -105.5 c 128
 474.166666667 -92.5 479 -76.3333333333 479 -57 c 0
 479 -31.6666666667 474.5 -14.1666666667 465.5 -4.5 c 128
 456.5 5.16666666667 439 10 413 10 c 0
 399 10 384.333333333 2 369 -14 c 0
 363.666666667 -19.3333333333 351 -35 331 -61 c 0
 305 -94.3333333333 284.333333333 -117.666666667 269 -131 c 0
 240.333333333 -155 208.666666667 -167 174 -167 c 0
 119.333333333 -167 80 -155.333333333 56 -132 c 128
 32 -108.666666667 20 -73.6666666667 20 -27 c 0
 20 7 28.3333333333 34 45 54 c 0
 57.6666666667 68.6666666667 76.6666666667 81 102 91 c 0
 138.666666667 105.666666667 183.666666667 115.333333333 237 120 c 0
 344.333333333 130 407.5 139.666666667 426.5 149 c 128
 445.5 158.333333333 460 182.333333333 470 221 c 0
 476.666666667 247 480 273.333333333 480 300 c 0
 480 334 472.666666667 361.666666667 458 383 c 128
 443.333333333 404.333333333 420.666666667 415 390 415 c 0
 370 415 354.333333333 405.333333333 343 386 c 0
 334.333333333 371.333333333 330 356 330 340 c 2
 330 214 l 1
 260 214 l 1
 260 335 l 2
 260 353 253.333333333 369.333333333 240 384 c 0
 221.333333333 404.666666667 195.666666667 415 163 415 c 0
 129.666666667 415 100.166666667 405.5 74.5 386.5 c 128
 48.8333333333 367.5 36 346.333333333 36 323 c 1
 52.6666666667 351 77.6666666667 365 111 365 c 0
 139.666666667 365 162.666666667 354.833333333 180 334.5 c 128
 197.333333333 314.166666667 206 289 206 259 c 0
 206 226.333333333 196.666666667 201 178 183 c 128
 159.333333333 165 134 156 102 156 c 0
 65.3333333333 156 38.3333333333 171.333333333 21 202 c 0
 7 226.666666667 0 260.666666667 0 304 c 0
 0 344 15 377.666666667 45 405 c 0
 77.6666666667 435 121.666666667 450 177 450 c 0
 215.666666667 450 246.333333333 444 269 432 c 0
 286.333333333 422.666666667 298.333333333 409.666666667 305 393 c 1
 311 408.333333333 320 420.666666667 332 430 c 0
 349.333333333 443.333333333 372 450 400 450 c 0
 448.666666667 450 485.833333333 436.166666667 511.5 408.5 c 128
 537.166666667 380.833333333 550 342 550 292 c 0
141 277 m 0
 138.333333333 288.333333333 132 298 122 306 c 128
 112 314 101 318 89 318 c 0
 66.3333333333 318 48.3333333333 306 35 282 c 1
 35 258.666666667 40.3333333333 239.166666667 51 223.5 c 128
 61.6666666667 207.833333333 76 200 94 200 c 0
 110 200 122.166666667 206.166666667 130.5 218.5 c 128
 138.833333333 230.833333333 143 245 143 261 c 0
 143 265 142.333333333 270.333333333 141 277 c 0
298 639 m 256
 313.333333333 639 326.666666667 633.333333333 338 622 c 128
 349.333333333 610.666666667 355 597.333333333 355 582 c 256
 355 566.666666667 349.333333333 553.333333333 338 542 c 128
 326.666666667 530.666666667 313.333333333 525 298 525 c 256
 282.666666667 525 269.333333333 530.666666667 258 542 c 128
 246.666666667 553.333333333 241 566.666666667 241 582 c 256
 241 597.333333333 246.666666667 610.666666667 258 622 c 128
 269.333333333 633.333333333 282.666666667 639 298 639 c 256
EndSplineSet
EndChar

StartChar: u0B9E
Encoding: 81 2974 81
Width: 885
Flags: HW
AnchorPoint: "V" 453 455 basechar 0
AnchorPoint: "N" 453 -200 basechar 0
LayerCount: 2
Fore
SplineSet
785 104 m 0
 785 14 755 -57.3333333333 695 -110 c 0
 627 -170 525.333333333 -200 390 -200 c 0
 268 -200 172.5 -169.166666667 103.5 -107.5 c 128
 34.5 -45.8333333333 0 40 0 150 c 0
 0 213.333333333 9.16666666667 272 27.5 326 c 128
 45.8333333333 380 71 421.333333333 103 450 c 1
 125 430 l 1
 95 400 72.5 360 57.5 310 c 128
 42.5 260 35 205.666666667 35 147 c 0
 35 53.6666666667 67.1666666667 -21.6666666667 131.5 -79 c 128
 195.833333333 -136.333333333 279.333333333 -165 382 -165 c 0
 493.333333333 -165 578 -137 636 -81 c 0
 685.333333333 -33.6666666667 710 27.3333333333 710 102 c 0
 710 142 700.666666667 173 682 195 c 0
 666.666666667 213 646 222 620 222 c 0
 590.666666667 222 570.666666667 211.666666667 560 191 c 1
 560 0 l 1
 485 0 l 1
 485 415 l 1
 343 415 l 2
 283 415 235.333333333 396.333333333 200 359 c 0
 170.666666667 328.333333333 156 293.666666667 156 255 c 1
 164 267 176.833333333 276.833333333 194.5 284.5 c 128
 212.166666667 292.166666667 231.666666667 296 253 296 c 0
 291.666666667 296 323.166666667 282.833333333 347.5 256.5 c 128
 371.833333333 230.166666667 384 196 384 154 c 0
 384 106.666666667 375.333333333 70 358 44 c 0
 338.666666667 14.6666666667 309.666666667 0 271 0 c 0
 223 0 185.833333333 18.1666666667 159.5 54.5 c 128
 133.166666667 90.8333333333 120 141.666666667 120 207 c 0
 120 281.666666667 139.333333333 340.833333333 178 384.5 c 128
 216.666666667 428.166666667 268.666666667 450 334 450 c 2
 660 450 l 1
 660 415 l 1
 560 415 l 1
 560 235 l 1
 566.666666667 246.333333333 577 255 591 261 c 128
 605 267 620 270 636 270 c 0
 684.666666667 270 722.666666667 251.666666667 750 215 c 0
 773.333333333 183.666666667 785 146.666666667 785 104 c 0
309 152 m 0
 309 176 301.166666667 197.833333333 285.5 217.5 c 128
 269.833333333 237.166666667 251.666666667 247 231 247 c 0
 211 247 194.666666667 242 182 232 c 128
 169.333333333 222 160.333333333 208.333333333 155 191 c 1
 155 153.666666667 162.333333333 122.5 177 97.5 c 128
 191.666666667 72.5 212.666666667 60 240 60 c 0
 262 60 279 69.1666666667 291 87.5 c 128
 303 105.833333333 309 127.333333333 309 152 c 0
EndSplineSet
EndChar

StartChar: u0B9E_u0BBF
Encoding: 82 -1 82
Width: 980
Flags: HW
AnchorPoint: "V" 453 455 basechar 0
AnchorPoint: "N" 453 -200 basechar 0
LayerCount: 2
Fore
SplineSet
880 0 m 1
 850 0 l 1
 850 520 l 2
 850 574 835 611.333333333 805 632 c 0
 779.666666667 649.333333333 742.333333333 658 693 658 c 0
 638.333333333 658 598.166666667 645.833333333 572.5 621.5 c 128
 546.833333333 597.166666667 534 561.333333333 534 514 c 0
 534 498 536.333333333 484.333333333 541 473 c 0
 543.666666667 465.666666667 548.333333333 458 555 450 c 1
 660 450 l 1
 660 415 l 1
 560 415 l 1
 560 251 l 1
 579.333333333 275 605 287 637 287 c 0
 640.333333333 287 646 286.333333333 654 285 c 0
 686.666666667 278.333333333 714.166666667 257.333333333 736.5 222 c 128
 758.833333333 186.666666667 770 138.666666667 770 78 c 0
 770 -3.33333333333 738.666666667 -68.6666666667 676 -118 c 0
 606.666666667 -172.666666667 508 -200 380 -200 c 0
 273.333333333 -200 184.333333333 -169 113 -107 c 0
 37.6666666667 -41.6666666667 0 44 0 150 c 0
 0 213.333333333 9.16666666667 272 27.5 326 c 128
 45.8333333333 380 71 421.333333333 103 450 c 1
 125 430 l 1
 95 400 72.5 360 57.5 310 c 128
 42.5 260 35 205.666666667 35 147 c 0
 35 56.3333333333 70.3333333333 -19 141 -79 c 0
 209 -136.333333333 289.333333333 -165 382 -165 c 0
 490.666666667 -165 573 -138.333333333 629 -85 c 0
 676.333333333 -40.3333333333 700 16.6666666667 700 86 c 0
 700 124.666666667 694.666666667 155.5 684 178.5 c 128
 673.333333333 201.5 658.333333333 218.333333333 639 229 c 0
 630.333333333 233.666666667 620.666666667 236 610 236 c 0
 588.666666667 236 572 227.333333333 560 210 c 1
 560 0 l 1
 485 0 l 1
 485 415 l 1
 343 415 l 2
 283 415 235.333333333 396.333333333 200 359 c 0
 170.666666667 328.333333333 156 293.666666667 156 255 c 1
 164 267 176.833333333 276.833333333 194.5 284.5 c 128
 212.166666667 292.166666667 231.666666667 296 253 296 c 0
 291.666666667 296 323.166666667 282.833333333 347.5 256.5 c 128
 371.833333333 230.166666667 384 196 384 154 c 0
 384 106.666666667 375.333333333 70 358 44 c 0
 338.666666667 14.6666666667 309.666666667 0 271 0 c 0
 223 0 185.833333333 18.1666666667 159.5 54.5 c 128
 133.166666667 90.8333333333 120 141.666666667 120 207 c 0
 120 281.666666667 139.333333333 340.833333333 178 384.5 c 128
 216.666666667 428.166666667 268.666666667 450 334 450 c 2
 519 450 l 1
 511.666666667 464 505.833333333 479.166666667 501.5 495.5 c 128
 497.166666667 511.833333333 495 531.333333333 495 554 c 0
 495 609.333333333 511.666666667 651.833333333 545 681.5 c 128
 578.333333333 711.166666667 628 726 694 726 c 0
 774 726 827.666666667 702.333333333 855 655 c 0
 871.666666667 626.333333333 880 581.666666667 880 521 c 2
 880 0 l 1
309 152 m 0
 309 176 301.166666667 197.833333333 285.5 217.5 c 128
 269.833333333 237.166666667 251.666666667 247 231 247 c 0
 211 247 194.666666667 242 182 232 c 128
 169.333333333 222 160.333333333 208.333333333 155 191 c 1
 155 153.666666667 162.333333333 122.5 177 97.5 c 128
 191.666666667 72.5 212.666666667 60 240 60 c 0
 262 60 279 69.1666666667 291 87.5 c 128
 303 105.833333333 309 127.333333333 309 152 c 0
EndSplineSet
EndChar

StartChar: u0B9E_u0BC0
Encoding: 83 -1 83
Width: 885
Flags: HW
AnchorPoint: "V" 453 668.234 basechar 0
AnchorPoint: "N" 453 -200 basechar 0
LayerCount: 2
Fore
SplineSet
309 152 m 0
 309 176 301.166666667 197.833333333 285.5 217.5 c 128
 269.833333333 237.166666667 251.666666667 247 231 247 c 0
 211 247 194.666666667 242 182 232 c 128
 169.333333333 222 160.333333333 208.333333333 155 191 c 1
 155 153.666666667 162.333333333 122.5 177 97.5 c 128
 191.666666667 72.5 212.666666667 60 240 60 c 0
 262 60 279 69.1666666667 291 87.5 c 128
 303 105.833333333 309 127.333333333 309 152 c 0
739 602 m 0
 739 621.333333333 732.5 637.833333333 719.5 651.5 c 128
 706.5 665.166666667 689.666666667 672 669 672 c 1
 651.666666667 668.666666667 637.666666667 660.333333333 627 647 c 128
 616.333333333 633.666666667 611 618.333333333 611 601 c 256
 611 583.666666667 617.166666667 568.5 629.5 555.5 c 128
 641.833333333 542.5 656.333333333 536 673 536 c 0
 691 536 706.5 542.5 719.5 555.5 c 128
 732.5 568.5 739 584 739 602 c 0
660 450 m 1
 660 415 l 1
 560 415 l 1
 560 235 l 1
 566.666666667 246.333333333 577 255 591 261 c 128
 605 267 620 270 636 270 c 0
 684.666666667 270 722.666666667 251.666666667 750 215 c 0
 773.333333333 183.666666667 785 146.666666667 785 104 c 0
 785 14 755 -57.3333333333 695 -110 c 0
 627 -170 525.333333333 -200 390 -200 c 0
 268 -200 172.5 -169.166666667 103.5 -107.5 c 128
 34.5 -45.8333333333 0 40 0 150 c 0
 0 213.333333333 9.16666666667 272 27.5 326 c 128
 45.8333333333 380 71 421.333333333 103 450 c 1
 125 430 l 1
 95 400 72.5 360 57.5 310 c 128
 42.5 260 35 205.666666667 35 147 c 0
 35 53.6666666667 67.1666666667 -21.6666666667 131.5 -79 c 128
 195.833333333 -136.333333333 279.333333333 -165 382 -165 c 0
 493.333333333 -165 578 -137 636 -81 c 0
 685.333333333 -33.6666666667 710 27.3333333333 710 102 c 0
 710 142 700.666666667 173 682 195 c 0
 666.666666667 213 646 222 620 222 c 0
 590.666666667 222 570.666666667 211.666666667 560 191 c 1
 560 0 l 1
 485 0 l 1
 485 415 l 1
 343 415 l 2
 283 415 235.333333333 396.333333333 200 359 c 0
 170.666666667 328.333333333 156 293.666666667 156 255 c 1
 164 267 176.833333333 276.833333333 194.5 284.5 c 128
 212.166666667 292.166666667 231.666666667 296 253 296 c 0
 291.666666667 296 323.166666667 282.833333333 347.5 256.5 c 128
 371.833333333 230.166666667 384 196 384 154 c 0
 384 106.666666667 375.333333333 70 358 44 c 0
 338.666666667 14.6666666667 309.666666667 0 271 0 c 0
 223 0 185.833333333 18.1666666667 159.5 54.5 c 128
 133.166666667 90.8333333333 120 141.666666667 120 207 c 0
 120 281.666666667 139.333333333 340.833333333 178 384.5 c 128
 216.666666667 428.166666667 268.666666667 450 334 450 c 2
 486 450 l 1
 470.666666667 463.333333333 457.666666667 479.333333333 447 498 c 0
 434.333333333 520.666666667 428 543.666666667 428 567 c 0
 428 629.666666667 448.666666667 677.333333333 490 710 c 0
 524 736.666666667 564.333333333 750 611 750 c 0
 655 750 693.666666667 739.333333333 727 718 c 0
 765.666666667 693.333333333 785 661 785 621 c 0
 785 588.333333333 777 561.666666667 761 541 c 0
 742.333333333 517 716.333333333 505 683 505 c 256
 649.666666667 505 623.833333333 514.5 605.5 533.5 c 128
 587.166666667 552.5 578 575.333333333 578 602 c 0
 578 618.666666667 581.833333333 635.333333333 589.5 652 c 128
 597.166666667 668.666666667 607.666666667 680.666666667 621 688 c 1
 584 691 l 1
 549.333333333 691 521.166666667 677 499.5 649 c 128
 477.833333333 621 467 589.666666667 467 555 c 0
 467 534.333333333 471.5 514.833333333 480.5 496.5 c 128
 489.5 478.166666667 501 462.666666667 515 450 c 1
 660 450 l 1
EndSplineSet
EndChar

StartChar: u0B9E_u0BC1
Encoding: 84 -1 84
Width: 1075
Flags: HW
AnchorPoint: "V" 453 455 basechar 0
AnchorPoint: "N" 453 -200 basechar 0
LayerCount: 2
Fore
SplineSet
309 152 m 0
 309 176 301.166666667 197.833333333 285.5 217.5 c 128
 269.833333333 237.166666667 251.666666667 247 231 247 c 0
 211 247 194.666666667 242 182 232 c 128
 169.333333333 222 160.333333333 208.333333333 155 191 c 1
 155 153.666666667 162.333333333 122.5 177 97.5 c 128
 191.666666667 72.5 212.666666667 60 240 60 c 0
 262 60 279 69.1666666667 291 87.5 c 128
 303 105.833333333 309 127.333333333 309 152 c 0
656 -75 m 1
 69 -75 l 2
 55 -75 48 -78.6666666667 48 -86 c 0
 48 -88.6666666667 49.3333333333 -92 52 -96 c 0
 68 -121.333333333 100 -145.333333333 148 -168 c 0
 214.666666667 -199.333333333 292.666666667 -215 382 -215 c 0
 444 -215 499.333333333 -201.666666667 548 -175 c 0
 591.333333333 -151 627.333333333 -117.666666667 656 -75 c 1
756 -40 m 1
 900 -40 l 1
 900 450 l 1
 975 450 l 1
 975 -75 l 1
 739 -75 l 1
 708.333333333 -128.333333333 664.666666667 -170 608 -200 c 0
 546 -233.333333333 473.333333333 -250 390 -250 c 0
 279.333333333 -250 187 -228.666666667 113 -186 c 0
 60.3333333333 -155.333333333 24.3333333333 -120.333333333 5 -81 c 0
 2.33333333333 -75.6666666667 1 -71 1 -67 c 0
 1 -59 3.5 -52.5 8.5 -47.5 c 128
 13.5 -42.5 21.6666666667 -40 33 -40 c 2
 676 -40 l 1
 698.666666667 5.33333333333 710 52.6666666667 710 102 c 0
 710 142 700.666666667 173 682 195 c 0
 666.666666667 213 646 222 620 222 c 0
 590.666666667 222 570.666666667 211.666666667 560 191 c 1
 560 0 l 1
 485 0 l 1
 485 415 l 1
 343 415 l 2
 283 415 235.333333333 396.333333333 200 359 c 0
 170.666666667 328.333333333 156 293.666666667 156 255 c 1
 164 267 176.833333333 276.833333333 194.5 284.5 c 128
 212.166666667 292.166666667 231.666666667 296 253 296 c 0
 291.666666667 296 323.166666667 282.833333333 347.5 256.5 c 128
 371.833333333 230.166666667 384 196 384 154 c 0
 384 106.666666667 375.333333333 70 358 44 c 0
 338.666666667 14.6666666667 309.666666667 0 271 0 c 0
 223 0 185.833333333 18.1666666667 159.5 54.5 c 128
 133.166666667 90.8333333333 120 141.666666667 120 207 c 0
 120 281.666666667 139.333333333 340.833333333 178 384.5 c 128
 216.666666667 428.166666667 268.666666667 450 334 450 c 2
 660 450 l 1
 660 415 l 1
 560 415 l 1
 560 235 l 1
 566.666666667 246.333333333 577 255 591 261 c 128
 605 267 620 270 636 270 c 0
 684.666666667 270 722.666666667 251.666666667 750 215 c 0
 773.333333333 183.666666667 785 146.666666667 785 104 c 0
 785 54 775.333333333 6 756 -40 c 1
EndSplineSet
EndChar

StartChar: u0B9E_u0BC2
Encoding: 85 -1 85
Width: 1325
Flags: HW
AnchorPoint: "V" 453 455 basechar 0
AnchorPoint: "N" 453 -200 basechar 0
LayerCount: 2
Fore
SplineSet
309 152 m 0
 309 176 301.166666667 197.833333333 285.5 217.5 c 128
 269.833333333 237.166666667 251.666666667 247 231 247 c 0
 211 247 194.666666667 242 182 232 c 128
 169.333333333 222 160.333333333 208.333333333 155 191 c 1
 155 153.666666667 162.333333333 122.5 177 97.5 c 128
 191.666666667 72.5 212.666666667 60 240 60 c 0
 262 60 279 69.1666666667 291 87.5 c 128
 303 105.833333333 309 127.333333333 309 152 c 0
656 -75 m 1
 64 -75 l 2
 50 -75 43 -78.6666666667 43 -86 c 0
 43 -88.6666666667 44.3333333333 -92 47 -96 c 0
 63 -121.333333333 95.6666666667 -145.333333333 145 -168 c 0
 213.666666667 -199.333333333 292.666666667 -215 382 -215 c 0
 444.666666667 -215 500 -201.666666667 548 -175 c 0
 591.333333333 -151 627.333333333 -117.666666667 656 -75 c 1
676 -40 m 1
 698.666666667 5.33333333333 710 52.6666666667 710 102 c 0
 710 142 700.666666667 173 682 195 c 0
 666.666666667 213 646 222 620 222 c 0
 590.666666667 222 570.666666667 211.666666667 560 191 c 1
 560 0 l 1
 485 0 l 1
 485 415 l 1
 343 415 l 2
 283 415 235.333333333 396.333333333 200 359 c 0
 170.666666667 328.333333333 156 293.666666667 156 255 c 1
 164 267 176.833333333 276.833333333 194.5 284.5 c 128
 212.166666667 292.166666667 231.666666667 296 253 296 c 0
 291.666666667 296 323.166666667 282.833333333 347.5 256.5 c 128
 371.833333333 230.166666667 384 196 384 154 c 0
 384 106.666666667 375.333333333 70 358 44 c 0
 338.666666667 14.6666666667 309.666666667 0 271 0 c 0
 223 0 185.833333333 18.1666666667 159.5 54.5 c 128
 133.166666667 90.8333333333 120 141.666666667 120 207 c 0
 120 281.666666667 139.333333333 340.833333333 178 384.5 c 128
 216.666666667 428.166666667 268.666666667 450 334 450 c 2
 660 450 l 1
 660 415 l 1
 560 415 l 1
 560 235 l 1
 566.666666667 246.333333333 577 255 591 261 c 128
 605 267 620 270 636 270 c 0
 684.666666667 270 722.666666667 251.666666667 750 215 c 0
 773.333333333 183.666666667 785 146.666666667 785 104 c 0
 785 51.3333333333 775.333333333 3.33333333333 756 -40 c 1
 900 -40 l 1
 900 450 l 1
 1225 450 l 1
 1225 415 l 1
 1125 415 l 1
 1125 -75 l 1
 1050 -75 l 1
 1050 415 l 1
 935 415 l 1
 935 -75 l 1
 738 -75 l 1
 707.333333333 -128.333333333 664 -170 608 -200 c 0
 546 -233.333333333 473.333333333 -250 390 -250 c 0
 279.333333333 -250 187 -228.666666667 113 -186 c 0
 60.3333333333 -155.333333333 24.3333333333 -120.333333333 5 -81 c 0
 2.33333333333 -75.6666666667 1 -71 1 -67 c 0
 1 -59 3.5 -52.5 8.5 -47.5 c 128
 13.5 -42.5 21.6666666667 -40 33 -40 c 2
 676 -40 l 1
EndSplineSet
EndChar

StartChar: u0B9E_u0BCD
Encoding: 86 -1 86
Width: 870
Flags: HW
AnchorPoint: "N" 453 -200 basechar 0
LayerCount: 2
Fore
SplineSet
785 104 m 0
 785 14 755 -57.3333333333 695 -110 c 0
 627 -170 525.333333333 -200 390 -200 c 0
 268 -200 172.5 -169.166666667 103.5 -107.5 c 128
 34.5 -45.8333333333 0 40 0 150 c 0
 0 213.333333333 9.16666666667 272 27.5 326 c 128
 45.8333333333 380 71 421.333333333 103 450 c 1
 125 430 l 1
 95 400 72.5 360 57.5 310 c 128
 42.5 260 35 205.666666667 35 147 c 0
 35 53.6666666667 67.1666666667 -21.6666666667 131.5 -79 c 128
 195.833333333 -136.333333333 279.333333333 -165 382 -165 c 0
 493.333333333 -165 578 -137 636 -81 c 0
 685.333333333 -33.6666666667 710 27.3333333333 710 102 c 0
 710 142 700.666666667 173 682 195 c 0
 666.666666667 213 646 222 620 222 c 0
 590.666666667 222 570.666666667 211.666666667 560 191 c 1
 560 0 l 1
 485 0 l 1
 485 415 l 1
 343 415 l 2
 283 415 235.333333333 396.333333333 200 359 c 0
 170.666666667 328.333333333 156 293.666666667 156 255 c 1
 164 267 176.833333333 276.833333333 194.5 284.5 c 128
 212.166666667 292.166666667 231.666666667 296 253 296 c 0
 291.666666667 296 323.166666667 282.833333333 347.5 256.5 c 128
 371.833333333 230.166666667 384 196 384 154 c 0
 384 106.666666667 375.333333333 70 358 44 c 0
 338.666666667 14.6666666667 309.666666667 0 271 0 c 0
 223 0 185.833333333 18.1666666667 159.5 54.5 c 128
 133.166666667 90.8333333333 120 141.666666667 120 207 c 0
 120 281.666666667 139.333333333 340.833333333 178 384.5 c 128
 216.666666667 428.166666667 268.666666667 450 334 450 c 2
 660 450 l 1
 660 415 l 1
 560 415 l 1
 560 235 l 1
 566.666666667 246.333333333 577 255 591 261 c 128
 605 267 620 270 636 270 c 0
 684.666666667 270 722.666666667 251.666666667 750 215 c 0
 773.333333333 183.666666667 785 146.666666667 785 104 c 0
309 152 m 0
 309 176 301.166666667 197.833333333 285.5 217.5 c 128
 269.833333333 237.166666667 251.666666667 247 231 247 c 0
 211 247 194.666666667 242 182 232 c 128
 169.333333333 222 160.333333333 208.333333333 155 191 c 1
 155 153.666666667 162.333333333 122.5 177 97.5 c 128
 191.666666667 72.5 212.666666667 60 240 60 c 0
 262 60 279 69.1666666667 291 87.5 c 128
 303 105.833333333 309 127.333333333 309 152 c 0
453 639 m 256
 468.333333333 639 481.666666667 633.333333333 493 622 c 128
 504.333333333 610.666666667 510 597.333333333 510 582 c 256
 510 566.666666667 504.333333333 553.333333333 493 542 c 128
 481.666666667 530.666666667 468.333333333 525 453 525 c 256
 437.666666667 525 424.333333333 530.666666667 413 542 c 128
 401.666666667 553.333333333 396 566.666666667 396 582 c 256
 396 597.333333333 401.666666667 610.666666667 413 622 c 128
 424.333333333 633.333333333 437.666666667 639 453 639 c 256
EndSplineSet
EndChar

StartChar: u0B9F
Encoding: 87 2975 87
Width: 720
Flags: HW
AnchorPoint: "V" 318 455 basechar 0
AnchorPoint: "N" 318 0 basechar 0
LayerCount: 2
Fore
SplineSet
620 0 m 1
 0 0 l 1
 0 450 l 1
 70 450 l 1
 70 35 l 1
 620 35 l 1
 620 0 l 1
EndSplineSet
EndChar

StartChar: u0B9F_u0BBF
Encoding: 88 -1 88
Width: 640
Flags: HW
AnchorPoint: "V" 318 455 basechar 0
AnchorPoint: "N" 318 0 basechar 0
LayerCount: 2
Fore
SplineSet
540 0 m 1
 440 0 l 1
 440 -215 l 1
 370 -215 l 1
 370 0 l 1
 0 0 l 1
 0 450 l 1
 70 450 l 1
 70 30 l 1
 307 30 l 1
 289.666666667 42.6666666667 273.333333333 58.3333333333 258 77 c 0
 238.666666667 101 222.333333333 127.666666667 209 157 c 0
 201 175 194.5 194.5 189.5 215.5 c 128
 184.5 236.5 182 258.333333333 182 281 c 0
 182 305.666666667 185.166666667 328 191.5 348 c 128
 197.833333333 368 209 386.666666667 225 404 c 0
 237.666666667 418 253.5 429.166666667 272.5 437.5 c 128
 291.5 445.833333333 312.333333333 450 335 450 c 0
 368.333333333 450 394.666666667 438.666666667 414 416 c 0
 431.333333333 395.333333333 440 369.666666667 440 339 c 2
 440 30 l 1
 540 30 l 1
 540 0 l 1
370 30 m 1
 370 344 l 2
 370 359.333333333 365 371.333333333 355 380 c 128
 345 388.666666667 334.333333333 393 323 393 c 0
 293.666666667 393 270.666666667 381.333333333 254 358 c 0
 234.666666667 333.333333333 225 300 225 258 c 0
 225 221.333333333 232.666666667 188.166666667 248 158.5 c 128
 263.333333333 128.833333333 281.666666667 102.666666667 303 80 c 128
 324.333333333 57.3333333333 346.666666667 40.6666666667 370 30 c 1
EndSplineSet
EndChar

StartChar: u0B9F_u0BC0
Encoding: 89 -1 89
Width: 600
Flags: HW
AnchorPoint: "V" 318 455 basechar 0
AnchorPoint: "N" 318 0 basechar 0
LayerCount: 2
Fore
SplineSet
226 30 m 1
 500 30 l 1
 500 0 l 1
 0 0 l 1
 0 450 l 1
 70 450 l 1
 70 30 l 1
 198 30 l 1
 181.333333333 41.3333333333 166.666666667 57.3333333333 154 78 c 0
 139.333333333 102 132 127 132 153 c 0
 132 215.666666667 152.666666667 263.333333333 194 296 c 0
 228 322.666666667 268.333333333 336 315 336 c 0
 364.333333333 336 405 327.333333333 437 310 c 0
 480.333333333 286.666666667 502 249.666666667 502 199 c 0
 502 168.333333333 491.333333333 142.666666667 470 122 c 128
 448.666666667 101.333333333 421 91 387 91 c 0
 353.666666667 91 327.833333333 100.5 309.5 119.5 c 128
 291.166666667 138.5 282 161.333333333 282 188 c 0
 282 204.666666667 285.833333333 221.333333333 293.5 238 c 128
 301.166666667 254.666666667 311.666666667 266.666666667 325 274 c 1
 288 277 l 1
 253.333333333 277 225.166666667 263 203.5 235 c 128
 181.833333333 207 171 175.666666667 171 141 c 0
 171 117 176 95.5 186 76.5 c 128
 196 57.5 209.333333333 42 226 30 c 1
443 188 m 0
 443 207.333333333 436.5 223.833333333 423.5 237.5 c 128
 410.5 251.166666667 393.666666667 258 373 258 c 1
 355.666666667 254.666666667 341.666666667 246.333333333 331 233 c 128
 320.333333333 219.666666667 315 204.333333333 315 187 c 256
 315 169.666666667 321.166666667 154.5 333.5 141.5 c 128
 345.833333333 128.5 360.333333333 122 377 122 c 0
 395 122 410.5 128.5 423.5 141.5 c 128
 436.5 154.5 443 170 443 188 c 0
EndSplineSet
EndChar

StartChar: u0B9F_u0BC1
Encoding: 90 -1 90
Width: 755
Flags: HW
AnchorPoint: "V" 318 659.98 basechar 0
AnchorPoint: "N" 318 0 basechar 0
LayerCount: 2
Fore
SplineSet
625 0 m 1
 595 0 l 1
 609.666666667 57.3333333333 617 124 617 200 c 0
 617 245.333333333 614.5 286 609.5 322 c 128
 604.5 358 596.333333333 390 585 418 c 0
 561.666666667 475.333333333 528.166666667 516.666666667 484.5 542 c 128
 440.833333333 567.333333333 385.333333333 580 318 580 c 0
 228.666666667 580 159.166666667 547.333333333 109.5 482 c 128
 59.8333333333 416.666666667 35 330 35 222 c 0
 35 112.666666667 52.3333333333 27 87 -35 c 0
 127 -107 188 -143 270 -143 c 0
 330.666666667 -143 378.666666667 -116.666666667 414 -64 c 0
 444.666666667 -18 460 37.3333333333 460 102 c 0
 460 129.333333333 453.333333333 154.333333333 440 177 c 0
 422.666666667 207 397.666666667 222 365 222 c 256
 332.333333333 222 310.666666667 211.666666667 300 191 c 1
 300 0 l 1
 225 0 l 1
 225 450 l 1
 300 450 l 1
 300 235 l 1
 306.666666667 245.666666667 317.666666667 254.166666667 333 260.5 c 128
 348.333333333 266.833333333 364.333333333 270 381 270 c 0
 429.666666667 270 468.333333333 251.666666667 497 215 c 0
 522.333333333 182.333333333 535 145.333333333 535 104 c 0
 535 12 512.666666667 -58 468 -106 c 128
 423.333333333 -154 360 -178 278 -178 c 0
 180.666666667 -178 108.666666667 -139 62 -61 c 0
 20.6666666667 7.66666666667 0 105 0 231 c 0
 0 358.333333333 25.6666666667 459.666666667 77 535 c 0
 133.666666667 618.333333333 215.333333333 660 322 660 c 0
 397.333333333 660 461.333333333 642.666666667 514 608 c 0
 564 575.333333333 599.666666667 529.333333333 621 470 c 0
 630.333333333 443.333333333 637.5 410.5 642.5 371.5 c 128
 647.5 332.5 650 290.666666667 650 246 c 0
 650 202.666666667 647.666666667 158.666666667 643 114 c 128
 638.333333333 69.3333333333 632.333333333 31.3333333333 625 0 c 1
EndSplineSet
EndChar

StartChar: u0B9F_u0BC2
Encoding: 91 -1 91
Width: 750
Flags: HW
AnchorPoint: "V" 318 659.603 basechar 0
AnchorPoint: "N" 318 0 basechar 0
LayerCount: 2
Fore
SplineSet
670 379 m 0
 670 346.333333333 661.333333333 319.333333333 644 298 c 0
 624.666666667 274 596.333333333 262 559 262 c 0
 520.333333333 262 490.333333333 271.666666667 469 291 c 128
 447.666666667 310.333333333 437 335.666666667 437 367 c 0
 437 395.666666667 445 419.333333333 461 438 c 0
 480.333333333 460.666666667 507.666666667 472 543 472 c 0
 555 472 564.333333333 471.333333333 571 470 c 1
 551.666666667 508 520.666666667 538.666666667 478 562 c 0
 432 587.333333333 380.333333333 600 323 600 c 0
 229.666666667 600 157.333333333 563.333333333 106 490 c 0
 58.6666666667 422 35 332.666666667 35 222 c 0
 35 112.666666667 52.3333333333 27 87 -35 c 0
 127 -107 188 -143 270 -143 c 0
 330.666666667 -143 378.666666667 -116.666666667 414 -64 c 0
 444.666666667 -18 460 37.3333333333 460 102 c 0
 460 129.333333333 453.333333333 154.333333333 440 177 c 0
 422.666666667 207 397.666666667 222 365 222 c 256
 332.333333333 222 310.666666667 211.666666667 300 191 c 1
 300 0 l 1
 225 0 l 1
 225 450 l 1
 300 450 l 1
 300 235 l 1
 306.666666667 245.666666667 317.666666667 254.166666667 333 260.5 c 128
 348.333333333 266.833333333 364.333333333 270 381 270 c 0
 429.666666667 270 468.333333333 251.666666667 497 215 c 0
 522.333333333 182.333333333 535 145.333333333 535 104 c 0
 535 12 512.666666667 -58 468 -106 c 128
 423.333333333 -154 360 -178 278 -178 c 0
 180.666666667 -178 108.666666667 -139 62 -61 c 0
 20.6666666667 7.66666666667 0 105 0 231 c 0
 0 364.333333333 27.6666666667 468 83 542 c 0
 141.666666667 620.666666667 226.333333333 660 337 660 c 0
 436.333333333 660 517.666666667 631.333333333 581 574 c 0
 640.333333333 520 670 455 670 379 c 0
594 340 m 0
 598.666666667 350 601 361 601 373 c 0
 601 395 592.666666667 413.333333333 576 428 c 1
 564 432 553 434 543 434 c 0
 514.333333333 434 493 421 479 395 c 0
 474.333333333 386.333333333 472 377 472 367 c 0
 472 339 483.666666667 320 507 310 c 0
 513.666666667 306.666666667 522.333333333 305 533 305 c 0
 547 305 559.5 308 570.5 314 c 128
 581.5 320 589.333333333 328.666666667 594 340 c 0
EndSplineSet
EndChar

StartChar: u0B9F_u0BCD
Encoding: 92 -1 92
Width: 720
Flags: HW
AnchorPoint: "N" 318 0 basechar 0
LayerCount: 2
Fore
SplineSet
620 0 m 1
 0 0 l 1
 0 450 l 1
 70 450 l 1
 70 35 l 1
 620 35 l 1
 620 0 l 1
318 639 m 256
 333.333333333 639 346.666666667 633.333333333 358 622 c 128
 369.333333333 610.666666667 375 597.333333333 375 582 c 0
 375 567.333333333 369.5 555.5 358.5 546.5 c 128
 347.5 537.5 334 533 318 533 c 0
 303.333333333 533 290.166666667 537.5 278.5 546.5 c 128
 266.833333333 555.5 261 567.333333333 261 582 c 0
 261 597.333333333 266.666666667 610.666666667 278 622 c 128
 289.333333333 633.333333333 302.666666667 639 318 639 c 256
EndSplineSet
EndChar

StartChar: u0BA3
Encoding: 93 2979 93
Width: 1300
Flags: HW
AnchorPoint: "V" 623 455 basechar 0
AnchorPoint: "N" 623 0 basechar 0
LayerCount: 2
Fore
SplineSet
189 152 m 0
 189 176 181.166666667 197.833333333 165.5 217.5 c 128
 149.833333333 237.166666667 131.666666667 247 111 247 c 0
 91 247 74.6666666667 242 62 232 c 128
 49.3333333333 222 40.3333333333 208.333333333 35 191 c 1
 35 153.666666667 42.3333333333 122.5 57 97.5 c 128
 71.6666666667 72.5 92.6666666667 60 120 60 c 0
 142 60 159 69.1666666667 171 87.5 c 128
 183 105.833333333 189 127.333333333 189 152 c 0
781 361 m 1
 727 318.333333333 700 261.666666667 700 191 c 0
 700 144.333333333 707 106.666666667 721 78 c 128
 735 49.3333333333 753.666666667 35 777 35 c 0
 805.666666667 35 825.666666667 48.5 837 75.5 c 128
 848.333333333 102.5 854 144.666666667 854 202 c 0
 854 231.333333333 848 260.166666667 836 288.5 c 128
 824 316.833333333 805.666666667 341 781 361 c 1
451 361 m 1
 397 318.333333333 370 261.666666667 370 191 c 0
 370 144.333333333 377 106.666666667 391 78 c 128
 405 49.3333333333 423.666666667 35 447 35 c 0
 475.666666667 35 495.666666667 48.5 507 75.5 c 128
 518.333333333 102.5 524 144.666666667 524 202 c 0
 524 231.333333333 518 260.166666667 506 288.5 c 128
 494 316.833333333 475.666666667 341 451 361 c 1
747 385 m 1
 729 394.333333333 709 401.666666667 687 407 c 128
 665 412.333333333 640.333333333 415 613 415 c 0
 571 415 533.333333333 407 500 391 c 1
 533.333333333 368.333333333 558 340.666666667 574 308 c 128
 590 275.333333333 598 240 598 202 c 0
 598 132 588 80.8333333333 568 48.5 c 128
 548 16.1666666667 514.333333333 0 467 0 c 0
 421.666666667 0 388.333333333 16.6666666667 367 50 c 128
 345.666666667 83.3333333333 335 130.333333333 335 191 c 0
 335 231.666666667 342 268.166666667 356 300.5 c 128
 370 332.833333333 390.333333333 361 417 385 c 1
 399 394.333333333 379 401.666666667 357 407 c 128
 335 412.333333333 310.333333333 415 283 415 c 0
 217.666666667 415 160 396.666666667 110 360 c 0
 64.6666666667 326.666666667 40 291.666666667 36 255 c 1
 44 267 56.8333333333 276.833333333 74.5 284.5 c 128
 92.1666666667 292.166666667 111.666666667 296 133 296 c 0
 171.666666667 296 203.166666667 282.833333333 227.5 256.5 c 128
 251.833333333 230.166666667 264 196 264 154 c 0
 264 106.666666667 254.666666667 70 236 44 c 0
 215.333333333 14.6666666667 183.666666667 0 141 0 c 0
 100.333333333 0 66.6666666667 18.5 40 55.5 c 128
 13.3333333333 92.5 0 143 0 207 c 0
 0 281.666666667 27.6666666667 341.666666667 83 387 c 0
 134.333333333 429 198.333333333 450 275 450 c 0
 313 450 347 447 377 441 c 128
 407 435 434.333333333 426.333333333 459 415 c 1
 502.333333333 438.333333333 551 450 605 450 c 0
 677.666666667 450 739 438 789 414 c 1
 831 438 879.666666667 450 935 450 c 2
 1200 450 l 1
 1200 415 l 1
 1100 415 l 1
 1100 0 l 1
 1025 0 l 1
 1025 415 l 1
 943 415 l 2
 903 415 865 407 829 391 c 1
 861.666666667 368.333333333 886.333333333 340.333333333 903 307 c 128
 919.666666667 273.666666667 928 238.666666667 928 202 c 0
 928 132 918 80.8333333333 898 48.5 c 128
 878 16.1666666667 844.333333333 0 797 0 c 0
 751.666666667 0 718.333333333 16.6666666667 697 50 c 128
 675.666666667 83.3333333333 665 130.333333333 665 191 c 0
 665 231.666666667 672 268.166666667 686 300.5 c 128
 700 332.833333333 720.333333333 361 747 385 c 1
EndSplineSet
EndChar

StartChar: u0BA3_u0BBE.old
Encoding: 95 -1 95
Width: 1405
Flags: HW
AnchorPoint: "V" 623 455 basechar 0
AnchorPoint: "N" 623 0 basechar 0
LayerCount: 2
Fore
SplineSet
309 152 m 0
 309 176 301.166666667 197.833333333 285.5 217.5 c 128
 269.833333333 237.166666667 251.666666667 247 231 247 c 0
 211 247 194.666666667 242 182 232 c 128
 169.333333333 222 160.333333333 208.333333333 155 191 c 1
 155 153.666666667 162.333333333 122.5 177 97.5 c 128
 191.666666667 72.5 212.666666667 60 240 60 c 0
 262 60 279 69.1666666667 291 87.5 c 128
 303 105.833333333 309 127.333333333 309 152 c 0
901 362 m 1
 876.333333333 341.333333333 856.666666667 316.333333333 842 287 c 128
 827.333333333 257.666666667 820 225.666666667 820 191 c 0
 820 144.333333333 827 106.666666667 841 78 c 128
 855 49.3333333333 873.666666667 35 897 35 c 0
 925.666666667 35 945.666666667 48.5 957 75.5 c 128
 968.333333333 102.5 974 144.666666667 974 202 c 0
 974 231.333333333 968 260.166666667 956 288.5 c 128
 944 316.833333333 925.666666667 341.333333333 901 362 c 1
571 361 m 1
 517 318.333333333 490 261.666666667 490 191 c 0
 490 144.333333333 497 106.666666667 511 78 c 128
 525 49.3333333333 543.666666667 35 567 35 c 0
 595.666666667 35 615.666666667 48.5 627 75.5 c 128
 638.333333333 102.5 644 144.666666667 644 202 c 0
 644 231.333333333 638 260.166666667 626 288.5 c 128
 614 316.833333333 595.666666667 341 571 361 c 1
867 385 m 1
 849 394.333333333 829 401.666666667 807 407 c 128
 785 412.333333333 760.333333333 415 733 415 c 0
 691 415 653.333333333 407 620 391 c 1
 653.333333333 368.333333333 678 340.666666667 694 308 c 128
 710 275.333333333 718 240 718 202 c 0
 718 132 708 80.8333333333 688 48.5 c 128
 668 16.1666666667 634.333333333 0 587 0 c 0
 541.666666667 0 508.333333333 16.6666666667 487 50 c 128
 465.666666667 83.3333333333 455 130.333333333 455 191 c 0
 455 231.666666667 462 268.166666667 476 300.5 c 128
 490 332.833333333 510.333333333 361 537 385 c 1
 519 394.333333333 499 401.666666667 477 407 c 128
 455 412.333333333 430.333333333 415 403 415 c 0
 337.666666667 415 280 396.666666667 230 360 c 0
 184.666666667 326.666666667 160 291.666666667 156 255 c 1
 164 267 176.833333333 276.833333333 194.5 284.5 c 128
 212.166666667 292.166666667 231.666666667 296 253 296 c 0
 291.666666667 296 323.166666667 282.833333333 347.5 256.5 c 128
 371.833333333 230.166666667 384 196 384 154 c 0
 384 106.666666667 374.666666667 70 356 44 c 0
 335.333333333 14.6666666667 303.666666667 0 261 0 c 0
 220.333333333 0 186.666666667 18.5 160 55.5 c 128
 133.333333333 92.5 120 143 120 207 c 0
 120 281.666666667 147.666666667 341.666666667 203 387 c 0
 254.333333333 429 318.333333333 450 395 450 c 0
 433 450 467 447 497 441 c 128
 527 435 554.333333333 426.333333333 579 415 c 1
 622.333333333 438.333333333 671 450 725 450 c 0
 761.666666667 450 795 447 825 441 c 128
 855 435 882.666666667 426.333333333 908 415 c 1
 948.666666667 438.333333333 994.333333333 450 1045 450 c 0
 1125.66666667 450 1190 424 1238 372 c 0
 1282.66666667 323.333333333 1305 262.333333333 1305 189 c 0
 1305 55 1250.33333333 -51 1141 -129 c 0
 1027.66666667 -209.666666667 868.666666667 -250 664 -250 c 0
 548 -250 445.333333333 -238.666666667 356 -216 c 0
 248 -188.666666667 164 -146.666666667 104 -90 c 0
 34.6666666667 -24.6666666667 0 58.6666666667 0 160 c 0
 0 222.666666667 9.16666666667 279.333333333 27.5 330 c 128
 45.8333333333 380.666666667 71 420.666666667 103 450 c 1
 125 430 l 1
 95 400 72.5 361.5 57.5 314.5 c 128
 42.5 267.5 35 215 35 157 c 0
 35 64.3333333333 69.6666666667 -12 139 -72 c 0
 197.666666667 -122.666666667 279 -160.333333333 383 -185 c 0
 467 -205 559.333333333 -215 660 -215 c 0
 832.666666667 -215 970.833333333 -176.333333333 1074.5 -99 c 128
 1178.16666667 -21.6666666667 1230 78 1230 200 c 0
 1230 262 1213.16666667 313.333333333 1179.5 354 c 128
 1145.83333333 394.666666667 1102 415 1048 415 c 0
 1014 415 980.666666667 407.333333333 948 392 c 1
 982 368.666666667 1007.16666667 340.5 1023.5 307.5 c 128
 1039.83333333 274.5 1048 239.333333333 1048 202 c 0
 1048 132 1038 80.8333333333 1018 48.5 c 128
 998 16.1666666667 964.333333333 0 917 0 c 0
 871.666666667 0 838.333333333 16.6666666667 817 50 c 128
 795.666666667 83.3333333333 785 130.333333333 785 191 c 0
 785 231 792.166666667 267.5 806.5 300.5 c 128
 820.833333333 333.5 841 361.666666667 867 385 c 1
EndSplineSet
EndChar

StartChar: u0BA3_u0BBF
Encoding: 96 -1 96
Width: 1410
Flags: HW
AnchorPoint: "V" 623 455 basechar 0
AnchorPoint: "N" 623 0 basechar 0
LayerCount: 2
Fore
SplineSet
189 152 m 0
 189 176 181.166666667 197.833333333 165.5 217.5 c 128
 149.833333333 237.166666667 131.666666667 247 111 247 c 0
 91 247 74.6666666667 242 62 232 c 128
 49.3333333333 222 40.3333333333 208.333333333 35 191 c 1
 35 153.666666667 42.3333333333 122.5 57 97.5 c 128
 71.6666666667 72.5 92.6666666667 60 120 60 c 0
 142 60 159 69.1666666667 171 87.5 c 128
 183 105.833333333 189 127.333333333 189 152 c 0
781 361 m 1
 727 318.333333333 700 261.666666667 700 191 c 0
 700 144.333333333 707 106.666666667 721 78 c 128
 735 49.3333333333 753.666666667 35 777 35 c 0
 805.666666667 35 825.666666667 48.5 837 75.5 c 128
 848.333333333 102.5 854 144.666666667 854 202 c 0
 854 231.333333333 848 260.166666667 836 288.5 c 128
 824 316.833333333 805.666666667 341 781 361 c 1
451 361 m 1
 397 318.333333333 370 261.666666667 370 191 c 0
 370 144.333333333 377 106.666666667 391 78 c 128
 405 49.3333333333 423.666666667 35 447 35 c 0
 475.666666667 35 495.666666667 48.5 507 75.5 c 128
 518.333333333 102.5 524 144.666666667 524 202 c 0
 524 231.333333333 518 260.166666667 506 288.5 c 128
 494 316.833333333 475.666666667 341 451 361 c 1
747 385 m 1
 729 394.333333333 709 401.666666667 687 407 c 128
 665 412.333333333 640.333333333 415 613 415 c 0
 571 415 533.333333333 407 500 391 c 1
 533.333333333 368.333333333 558 340.666666667 574 308 c 128
 590 275.333333333 598 240 598 202 c 0
 598 132 588 80.8333333333 568 48.5 c 128
 548 16.1666666667 514.333333333 0 467 0 c 0
 421.666666667 0 388.333333333 16.6666666667 367 50 c 128
 345.666666667 83.3333333333 335 130.333333333 335 191 c 0
 335 231.666666667 342 268.166666667 356 300.5 c 128
 370 332.833333333 390.333333333 361 417 385 c 1
 399 394.333333333 379 401.666666667 357 407 c 128
 335 412.333333333 310.333333333 415 283 415 c 0
 217.666666667 415 160 396.666666667 110 360 c 0
 64.6666666667 326.666666667 40 291.666666667 36 255 c 1
 44 267 56.8333333333 276.833333333 74.5 284.5 c 128
 92.1666666667 292.166666667 111.666666667 296 133 296 c 0
 171.666666667 296 203.166666667 282.833333333 227.5 256.5 c 128
 251.833333333 230.166666667 264 196 264 154 c 0
 264 106.666666667 254.666666667 70 236 44 c 0
 215.333333333 14.6666666667 183.666666667 0 141 0 c 0
 100.333333333 0 66.6666666667 18.5 40 55.5 c 128
 13.3333333333 92.5 0 143 0 207 c 0
 0 281.666666667 27.6666666667 341.666666667 83 387 c 0
 134.333333333 429 198.333333333 450 275 450 c 0
 313 450 347 447 377 441 c 128
 407 435 434.333333333 426.333333333 459 415 c 1
 502.333333333 438.333333333 551 450 605 450 c 0
 677.666666667 450 739 438 789 414 c 1
 831 438 879.666666667 450 935 450 c 2
 1059 450 l 1
 1052.33333333 462.666666667 1046.66666667 477.333333333 1042 494 c 128
 1037.33333333 510.666666667 1035 525.666666667 1035 539 c 0
 1035 593 1046.83333333 635 1070.5 665 c 128
 1094.16666667 695 1128.66666667 710 1174 710 c 0
 1224.66666667 710 1260.66666667 692.666666667 1282 658 c 0
 1300.66666667 628 1310 580.666666667 1310 516 c 2
 1310 0 l 1
 1280 0 l 1
 1280 505 l 2
 1280 551.666666667 1273 585 1259 605 c 0
 1243 628.333333333 1214.33333333 640 1173 640 c 0
 1143 640 1118.33333333 630.333333333 1099 611 c 128
 1079.66666667 591.666666667 1070 564.333333333 1070 529 c 0
 1070 511.666666667 1072.33333333 496 1077 482 c 128
 1081.66666667 468 1087.66666667 457.333333333 1095 450 c 1
 1200 450 l 1
 1200 415 l 1
 1100 415 l 1
 1100 0 l 1
 1025 0 l 1
 1025 415 l 1
 943 415 l 2
 903 415 865 407 829 391 c 1
 861.666666667 368.333333333 886.333333333 340.333333333 903 307 c 128
 919.666666667 273.666666667 928 238.666666667 928 202 c 0
 928 132 918 80.8333333333 898 48.5 c 128
 878 16.1666666667 844.333333333 0 797 0 c 0
 751.666666667 0 718.333333333 16.6666666667 697 50 c 128
 675.666666667 83.3333333333 665 130.333333333 665 191 c 0
 665 231.666666667 672 268.166666667 686 300.5 c 128
 700 332.833333333 720.333333333 361 747 385 c 1
EndSplineSet
EndChar

StartChar: u0BA3_u0BC0
Encoding: 97 -1 97
Width: 1330
Flags: HW
AnchorPoint: "V" 623 455 basechar 0
AnchorPoint: "N" 623 0 basechar 0
LayerCount: 2
Fore
SplineSet
189 152 m 0
 189 176 181.166666667 197.833333333 165.5 217.5 c 128
 149.833333333 237.166666667 131.666666667 247 111 247 c 0
 91 247 74.6666666667 242 62 232 c 128
 49.3333333333 222 40.3333333333 208.333333333 35 191 c 1
 35 153.666666667 42.3333333333 122.5 57 97.5 c 128
 71.6666666667 72.5 92.6666666667 60 120 60 c 0
 142 60 159 69.1666666667 171 87.5 c 128
 183 105.833333333 189 127.333333333 189 152 c 0
1279 602 m 0
 1279 621.333333333 1272.5 637.833333333 1259.5 651.5 c 128
 1246.5 665.166666667 1229.66666667 672 1209 672 c 1
 1191.66666667 668.666666667 1177.66666667 660.333333333 1167 647 c 128
 1156.33333333 633.666666667 1151 618.333333333 1151 601 c 256
 1151 583.666666667 1157.16666667 568.5 1169.5 555.5 c 128
 1181.83333333 542.5 1196.33333333 536 1213 536 c 0
 1231 536 1246.5 542.5 1259.5 555.5 c 128
 1272.5 568.5 1279 584 1279 602 c 0
781 361 m 1
 727 318.333333333 700 261.666666667 700 191 c 0
 700 144.333333333 707 106.666666667 721 78 c 128
 735 49.3333333333 753.666666667 35 777 35 c 0
 805.666666667 35 825.666666667 48.5 837 75.5 c 128
 848.333333333 102.5 854 144.666666667 854 202 c 0
 854 231.333333333 848 260.166666667 836 288.5 c 128
 824 316.833333333 805.666666667 341 781 361 c 1
451 361 m 1
 397 318.333333333 370 261.666666667 370 191 c 0
 370 144.333333333 377 106.666666667 391 78 c 128
 405 49.3333333333 423.666666667 35 447 35 c 0
 475.666666667 35 495.666666667 48.5 507 75.5 c 128
 518.333333333 102.5 524 144.666666667 524 202 c 0
 524 231.333333333 518 260.166666667 506 288.5 c 128
 494 316.833333333 475.666666667 341 451 361 c 1
747 385 m 1
 729 394.333333333 709 401.666666667 687 407 c 128
 665 412.333333333 640.333333333 415 613 415 c 0
 571 415 533.333333333 407 500 391 c 1
 533.333333333 368.333333333 558 340.666666667 574 308 c 128
 590 275.333333333 598 240 598 202 c 0
 598 132 588 80.8333333333 568 48.5 c 128
 548 16.1666666667 514.333333333 0 467 0 c 0
 421.666666667 0 388.333333333 16.6666666667 367 50 c 128
 345.666666667 83.3333333333 335 130.333333333 335 191 c 0
 335 231.666666667 342 268.166666667 356 300.5 c 128
 370 332.833333333 390.333333333 361 417 385 c 1
 399 394.333333333 379 401.666666667 357 407 c 128
 335 412.333333333 310.333333333 415 283 415 c 0
 217.666666667 415 160 396.666666667 110 360 c 0
 64.6666666667 326.666666667 40 291.666666667 36 255 c 1
 44 267 56.8333333333 276.833333333 74.5 284.5 c 128
 92.1666666667 292.166666667 111.666666667 296 133 296 c 0
 171.666666667 296 203.166666667 282.833333333 227.5 256.5 c 128
 251.833333333 230.166666667 264 196 264 154 c 0
 264 106.666666667 254.666666667 70 236 44 c 0
 215.333333333 14.6666666667 183.666666667 0 141 0 c 0
 100.333333333 0 66.6666666667 18.5 40 55.5 c 128
 13.3333333333 92.5 0 143 0 207 c 0
 0 281.666666667 27.6666666667 341.666666667 83 387 c 0
 134.333333333 429 198.333333333 450 275 450 c 0
 313 450 347 447 377 441 c 128
 407 435 434.333333333 426.333333333 459 415 c 1
 502.333333333 438.333333333 551 450 605 450 c 0
 677.666666667 450 739 438 789 414 c 1
 831 438 879.666666667 450 935 450 c 2
 1026 450 l 1
 1010.66666667 463.333333333 997.666666667 479.333333333 987 498 c 0
 974.333333333 520.666666667 968 543.666666667 968 567 c 0
 968 629.666666667 988.666666667 677.333333333 1030 710 c 0
 1064 736.666666667 1104.33333333 750 1151 750 c 0
 1200.33333333 750 1241 741.333333333 1273 724 c 0
 1316.33333333 700.666666667 1338 663.666666667 1338 613 c 0
 1338 582.333333333 1327.33333333 556.666666667 1306 536 c 128
 1284.66666667 515.333333333 1257 505 1223 505 c 0
 1189.66666667 505 1163.83333333 514.5 1145.5 533.5 c 128
 1127.16666667 552.5 1118 575.333333333 1118 602 c 0
 1118 618.666666667 1121.83333333 635.333333333 1129.5 652 c 128
 1137.16666667 668.666666667 1147.66666667 680.666666667 1161 688 c 1
 1124 691 l 1
 1089.33333333 691 1061.16666667 677 1039.5 649 c 128
 1017.83333333 621 1007 589.666666667 1007 555 c 0
 1007 534.333333333 1011.5 514.833333333 1020.5 496.5 c 128
 1029.5 478.166666667 1041 462.666666667 1055 450 c 1
 1200 450 l 1
 1200 415 l 1
 1100 415 l 1
 1100 0 l 1
 1025 0 l 1
 1025 415 l 1
 943 415 l 2
 903 415 865 407 829 391 c 1
 861.666666667 368.333333333 886.333333333 340.333333333 903 307 c 128
 919.666666667 273.666666667 928 238.666666667 928 202 c 0
 928 132 918 80.8333333333 898 48.5 c 128
 878 16.1666666667 844.333333333 0 797 0 c 0
 751.666666667 0 718.333333333 16.6666666667 697 50 c 128
 675.666666667 83.3333333333 665 130.333333333 665 191 c 0
 665 231.666666667 672 268.166666667 686 300.5 c 128
 700 332.833333333 720.333333333 361 747 385 c 1
EndSplineSet
EndChar

StartChar: u0BA3_u0BC1
Encoding: 98 -1 98
Width: 1475
Flags: HW
AnchorPoint: "V" 623 455 basechar 0
AnchorPoint: "N" 623 0 basechar 0
LayerCount: 2
Fore
SplineSet
189 152 m 0
 189 176 181.166666667 197.833333333 165.5 217.5 c 128
 149.833333333 237.166666667 131.666666667 247 111 247 c 0
 91 247 74.6666666667 242 62 232 c 128
 49.3333333333 222 40.3333333333 208.333333333 35 191 c 1
 35 153.666666667 42.3333333333 122.5 57 97.5 c 128
 71.6666666667 72.5 92.6666666667 60 120 60 c 0
 142 60 159 69.1666666667 171 87.5 c 128
 183 105.833333333 189 127.333333333 189 152 c 0
994 -75 m 1
 74 -75 l 2
 60 -75 53 -78.6666666667 53 -86 c 0
 53 -88.6666666667 54.3333333333 -92 57 -96 c 0
 87.6666666667 -129.333333333 151.333333333 -157.5 248 -180.5 c 128
 344.666666667 -203.5 456 -215 582 -215 c 0
 671.333333333 -215 750.666666667 -202.833333333 820 -178.5 c 128
 889.333333333 -154.166666667 947.333333333 -119.666666667 994 -75 c 1
781 362 m 1
 756.333333333 341.333333333 736.666666667 316.333333333 722 287 c 128
 707.333333333 257.666666667 700 225.666666667 700 191 c 0
 700 144.333333333 707 106.666666667 721 78 c 128
 735 49.3333333333 753.666666667 35 777 35 c 0
 805.666666667 35 825.666666667 48.5 837 75.5 c 128
 848.333333333 102.5 854 144.666666667 854 202 c 0
 854 231.333333333 848 260.166666667 836 288.5 c 128
 824 316.833333333 805.666666667 341.333333333 781 362 c 1
451 361 m 1
 397 318.333333333 370 261.666666667 370 191 c 0
 370 144.333333333 377 106.666666667 391 78 c 128
 405 49.3333333333 423.666666667 35 447 35 c 0
 475.666666667 35 495.666666667 48.5 507 75.5 c 128
 518.333333333 102.5 524 144.666666667 524 202 c 0
 524 231.333333333 518 260.166666667 506 288.5 c 128
 494 316.833333333 475.666666667 341 451 361 c 1
1026 -40 m 1
 1082 29.3333333333 1110 109.333333333 1110 200 c 0
 1110 262 1093.16666667 313.333333333 1059.5 354 c 128
 1025.83333333 394.666666667 982 415 928 415 c 0
 894 415 860.666666667 407.333333333 828 392 c 1
 862 368.666666667 887.166666667 340.5 903.5 307.5 c 128
 919.833333333 274.5 928 239.333333333 928 202 c 0
 928 132 918 80.8333333333 898 48.5 c 128
 878 16.1666666667 844.333333333 0 797 0 c 0
 751.666666667 0 718.333333333 16.6666666667 697 50 c 128
 675.666666667 83.3333333333 665 130.333333333 665 191 c 0
 665 231 672.166666667 267.5 686.5 300.5 c 128
 700.833333333 333.5 721 361.666666667 747 385 c 1
 729 394.333333333 709 401.666666667 687 407 c 128
 665 412.333333333 640.333333333 415 613 415 c 0
 571 415 533.333333333 407 500 391 c 1
 533.333333333 368.333333333 558 340.666666667 574 308 c 128
 590 275.333333333 598 240 598 202 c 0
 598 132 588 80.8333333333 568 48.5 c 128
 548 16.1666666667 514.333333333 0 467 0 c 0
 421.666666667 0 388.333333333 16.6666666667 367 50 c 128
 345.666666667 83.3333333333 335 130.333333333 335 191 c 0
 335 231.666666667 342 268.166666667 356 300.5 c 128
 370 332.833333333 390.333333333 361 417 385 c 1
 399 394.333333333 379 401.666666667 357 407 c 128
 335 412.333333333 310.333333333 415 283 415 c 0
 218.333333333 415 160.666666667 396.333333333 110 359 c 0
 64.6666666667 325.666666667 40 291 36 255 c 1
 44 267 56.8333333333 276.833333333 74.5 284.5 c 128
 92.1666666667 292.166666667 111.666666667 296 133 296 c 0
 171.666666667 296 203.166666667 282.833333333 227.5 256.5 c 128
 251.833333333 230.166666667 264 196 264 154 c 0
 264 106.666666667 254.666666667 70 236 44 c 0
 215.333333333 14.6666666667 183.666666667 0 141 0 c 0
 100.333333333 0 66.6666666667 18.5 40 55.5 c 128
 13.3333333333 92.5 0 143 0 207 c 0
 0 281.666666667 27.6666666667 341.666666667 83 387 c 0
 134.333333333 429 198.333333333 450 275 450 c 0
 313 450 347 447 377 441 c 128
 407 435 434.333333333 426.333333333 459 415 c 1
 502.333333333 438.333333333 551 450 605 450 c 0
 641.666666667 450 675 447 705 441 c 128
 735 435 762.666666667 426.333333333 788 415 c 1
 828.666666667 438.333333333 874.333333333 450 925 450 c 0
 1005.66666667 450 1070 424 1118 372 c 0
 1162.66666667 323.333333333 1185 262.333333333 1185 189 c 0
 1185 100.333333333 1165.66666667 24 1127 -40 c 1
 1300 -40 l 1
 1300 450 l 1
 1375 450 l 1
 1375 -75 l 1
 1102 -75 l 1
 1007.33333333 -191.666666667 836.666666667 -250 590 -250 c 0
 435.333333333 -250 305.666666667 -234.166666667 201 -202.5 c 128
 96.3333333333 -170.833333333 31 -130.333333333 5 -81 c 0
 2.33333333333 -75.6666666667 1 -71 1 -67 c 0
 1 -59 3.5 -52.5 8.5 -47.5 c 128
 13.5 -42.5 21.6666666667 -40 33 -40 c 2
 1026 -40 l 1
EndSplineSet
EndChar

StartChar: u0BA3_u0BC2
Encoding: 99 -1 99
Width: 1725
Flags: HW
AnchorPoint: "V" 623 455 basechar 0
AnchorPoint: "N" 623 0 basechar 0
LayerCount: 2
Fore
SplineSet
189 152 m 0
 189 176 181.166666667 197.833333333 165.5 217.5 c 128
 149.833333333 237.166666667 131.666666667 247 111 247 c 0
 91 247 74.6666666667 242 62 232 c 128
 49.3333333333 222 40.3333333333 208.333333333 35 191 c 1
 35 153.666666667 42.3333333333 122.5 57 97.5 c 128
 71.6666666667 72.5 92.6666666667 60 120 60 c 0
 142 60 159 69.1666666667 171 87.5 c 128
 183 105.833333333 189 127.333333333 189 152 c 0
994 -75 m 1
 74 -75 l 2
 60 -75 53 -78.6666666667 53 -86 c 0
 53 -88.6666666667 54.3333333333 -92 57 -96 c 0
 87.6666666667 -129.333333333 151.333333333 -157.5 248 -180.5 c 128
 344.666666667 -203.5 456 -215 582 -215 c 0
 671.333333333 -215 750.666666667 -202.833333333 820 -178.5 c 128
 889.333333333 -154.166666667 947.333333333 -119.666666667 994 -75 c 1
781 362 m 1
 756.333333333 341.333333333 736.666666667 316.333333333 722 287 c 128
 707.333333333 257.666666667 700 225.666666667 700 191 c 0
 700 144.333333333 707 106.666666667 721 78 c 128
 735 49.3333333333 753.666666667 35 777 35 c 0
 805.666666667 35 825.666666667 48.5 837 75.5 c 128
 848.333333333 102.5 854 144.666666667 854 202 c 0
 854 231.333333333 848 260.166666667 836 288.5 c 128
 824 316.833333333 805.666666667 341.333333333 781 362 c 1
451 361 m 1
 397 318.333333333 370 261.666666667 370 191 c 0
 370 144.333333333 377 106.666666667 391 78 c 128
 405 49.3333333333 423.666666667 35 447 35 c 0
 475.666666667 35 495.666666667 48.5 507 75.5 c 128
 518.333333333 102.5 524 144.666666667 524 202 c 0
 524 231.333333333 518 260.166666667 506 288.5 c 128
 494 316.833333333 475.666666667 341 451 361 c 1
1026 -40 m 1
 1082 29.3333333333 1110 109.333333333 1110 200 c 0
 1110 262 1093.16666667 313.333333333 1059.5 354 c 128
 1025.83333333 394.666666667 982 415 928 415 c 0
 894 415 860.666666667 407.333333333 828 392 c 1
 862 368.666666667 887.166666667 340.5 903.5 307.5 c 128
 919.833333333 274.5 928 239.333333333 928 202 c 0
 928 132 918 80.8333333333 898 48.5 c 128
 878 16.1666666667 844.333333333 0 797 0 c 0
 751.666666667 0 718.333333333 16.6666666667 697 50 c 128
 675.666666667 83.3333333333 665 130.333333333 665 191 c 0
 665 231 672.166666667 267.5 686.5 300.5 c 128
 700.833333333 333.5 721 361.666666667 747 385 c 1
 729 394.333333333 709 401.666666667 687 407 c 128
 665 412.333333333 640.333333333 415 613 415 c 0
 571 415 533.333333333 407 500 391 c 1
 533.333333333 368.333333333 558 340.666666667 574 308 c 128
 590 275.333333333 598 240 598 202 c 0
 598 132 588 80.8333333333 568 48.5 c 128
 548 16.1666666667 514.333333333 0 467 0 c 0
 421.666666667 0 388.333333333 16.6666666667 367 50 c 128
 345.666666667 83.3333333333 335 130.333333333 335 191 c 0
 335 231.666666667 342 268.166666667 356 300.5 c 128
 370 332.833333333 390.333333333 361 417 385 c 1
 399 394.333333333 379 401.666666667 357 407 c 128
 335 412.333333333 310.333333333 415 283 415 c 0
 218.333333333 415 160.666666667 396.333333333 110 359 c 0
 64.6666666667 325.666666667 40 291 36 255 c 1
 44 267 56.8333333333 276.833333333 74.5 284.5 c 128
 92.1666666667 292.166666667 111.666666667 296 133 296 c 0
 171.666666667 296 203.166666667 282.833333333 227.5 256.5 c 128
 251.833333333 230.166666667 264 196 264 154 c 0
 264 106.666666667 254.666666667 70 236 44 c 0
 215.333333333 14.6666666667 183.666666667 0 141 0 c 0
 100.333333333 0 66.6666666667 18.5 40 55.5 c 128
 13.3333333333 92.5 0 143 0 207 c 0
 0 281.666666667 27.6666666667 341.666666667 83 387 c 0
 134.333333333 429 198.333333333 450 275 450 c 0
 313 450 347 447 377 441 c 128
 407 435 434.333333333 426.333333333 459 415 c 1
 502.333333333 438.333333333 551 450 605 450 c 0
 641.666666667 450 675 447 705 441 c 128
 735 435 762.666666667 426.333333333 788 415 c 1
 828.666666667 438.333333333 874.333333333 450 925 450 c 0
 1005.66666667 450 1070 424 1118 372 c 0
 1162.66666667 323.333333333 1185 262.333333333 1185 189 c 0
 1185 100.333333333 1165.66666667 24 1127 -40 c 1
 1300 -40 l 1
 1300 450 l 1
 1625 450 l 1
 1625 415 l 1
 1525 415 l 1
 1525 -75 l 1
 1450 -75 l 1
 1450 415 l 1
 1335 415 l 1
 1335 -75 l 1
 1102 -75 l 1
 1007.33333333 -191.666666667 836.666666667 -250 590 -250 c 0
 435.333333333 -250 305.666666667 -234.166666667 201 -202.5 c 128
 96.3333333333 -170.833333333 31 -130.333333333 5 -81 c 0
 2.33333333333 -75.6666666667 1 -71 1 -67 c 0
 1 -59 3.5 -52.5 8.5 -47.5 c 128
 13.5 -42.5 21.6666666667 -40 33 -40 c 2
 1026 -40 l 1
EndSplineSet
EndChar

StartChar: u0BA3_u0BCD
Encoding: 102 -1 102
Width: 1300
Flags: HW
AnchorPoint: "N" 623 0 basechar 0
LayerCount: 2
Fore
SplineSet
189 152 m 0
 189 176 181.166666667 197.833333333 165.5 217.5 c 128
 149.833333333 237.166666667 131.666666667 247 111 247 c 0
 91 247 74.6666666667 242 62 232 c 128
 49.3333333333 222 40.3333333333 208.333333333 35 191 c 1
 35 153.666666667 42.3333333333 122.5 57 97.5 c 128
 71.6666666667 72.5 92.6666666667 60 120 60 c 0
 142 60 159 69.1666666667 171 87.5 c 128
 183 105.833333333 189 127.333333333 189 152 c 0
781 361 m 1
 727 318.333333333 700 261.666666667 700 191 c 0
 700 144.333333333 707 106.666666667 721 78 c 128
 735 49.3333333333 753.666666667 35 777 35 c 0
 805.666666667 35 825.666666667 48.5 837 75.5 c 128
 848.333333333 102.5 854 144.666666667 854 202 c 0
 854 231.333333333 848 260.166666667 836 288.5 c 128
 824 316.833333333 805.666666667 341 781 361 c 1
451 361 m 1
 397 318.333333333 370 261.666666667 370 191 c 0
 370 144.333333333 377 106.666666667 391 78 c 128
 405 49.3333333333 423.666666667 35 447 35 c 0
 475.666666667 35 495.666666667 48.5 507 75.5 c 128
 518.333333333 102.5 524 144.666666667 524 202 c 0
 524 231.333333333 518 260.166666667 506 288.5 c 128
 494 316.833333333 475.666666667 341 451 361 c 1
747 385 m 1
 729 394.333333333 709 401.666666667 687 407 c 128
 665 412.333333333 640.333333333 415 613 415 c 0
 571 415 533.333333333 407 500 391 c 1
 533.333333333 368.333333333 558 340.666666667 574 308 c 128
 590 275.333333333 598 240 598 202 c 0
 598 132 588 80.8333333333 568 48.5 c 128
 548 16.1666666667 514.333333333 0 467 0 c 0
 421.666666667 0 388.333333333 16.6666666667 367 50 c 128
 345.666666667 83.3333333333 335 130.333333333 335 191 c 0
 335 231.666666667 342 268.166666667 356 300.5 c 128
 370 332.833333333 390.333333333 361 417 385 c 1
 399 394.333333333 379 401.666666667 357 407 c 128
 335 412.333333333 310.333333333 415 283 415 c 0
 217.666666667 415 160 396.666666667 110 360 c 0
 64.6666666667 326.666666667 40 291.666666667 36 255 c 1
 44 267 56.8333333333 276.833333333 74.5 284.5 c 128
 92.1666666667 292.166666667 111.666666667 296 133 296 c 0
 171.666666667 296 203.166666667 282.833333333 227.5 256.5 c 128
 251.833333333 230.166666667 264 196 264 154 c 0
 264 106.666666667 254.666666667 70 236 44 c 0
 215.333333333 14.6666666667 183.666666667 0 141 0 c 0
 100.333333333 0 66.6666666667 18.5 40 55.5 c 128
 13.3333333333 92.5 0 143 0 207 c 0
 0 281.666666667 27.6666666667 341.666666667 83 387 c 0
 134.333333333 429 198.333333333 450 275 450 c 0
 313 450 347 447 377 441 c 128
 407 435 434.333333333 426.333333333 459 415 c 1
 502.333333333 438.333333333 551 450 605 450 c 0
 677.666666667 450 739 438 789 414 c 1
 831 438 879.666666667 450 935 450 c 2
 1200 450 l 1
 1200 415 l 1
 1100 415 l 1
 1100 0 l 1
 1025 0 l 1
 1025 415 l 1
 943 415 l 2
 903 415 865 407 829 391 c 1
 861.666666667 368.333333333 886.333333333 340.333333333 903 307 c 128
 919.666666667 273.666666667 928 238.666666667 928 202 c 0
 928 132 918 80.8333333333 898 48.5 c 128
 878 16.1666666667 844.333333333 0 797 0 c 0
 751.666666667 0 718.333333333 16.6666666667 697 50 c 128
 675.666666667 83.3333333333 665 130.333333333 665 191 c 0
 665 231.666666667 672 268.166666667 686 300.5 c 128
 700 332.833333333 720.333333333 361 747 385 c 1
623 639 m 256
 638.333333333 639 651.666666667 633.333333333 663 622 c 128
 674.333333333 610.666666667 680 597.333333333 680 582 c 256
 680 566.666666667 674.333333333 553.333333333 663 542 c 128
 651.666666667 530.666666667 638.333333333 525 623 525 c 256
 607.666666667 525 594.333333333 530.666666667 583 542 c 128
 571.666666667 553.333333333 566 566.666666667 566 582 c 256
 566 597.333333333 571.666666667 610.666666667 583 622 c 128
 594.333333333 633.333333333 607.666666667 639 623 639 c 256
EndSplineSet
EndChar

StartChar: u0BA4
Encoding: 103 2980 103
Width: 650
Flags: HW
AnchorPoint: "V" 255 455 basechar 0
AnchorPoint: "N" 255 -250 basechar 0
LayerCount: 2
Fore
SplineSet
550 88 m 0
 550 48 537.833333333 12.1666666667 513.5 -19.5 c 128
 489.166666667 -51.1666666667 456.666666667 -74 416 -88 c 0
 380.666666667 -100 327.833333333 -106.833333333 257.5 -108.5 c 128
 187.166666667 -110.166666667 138.666666667 -120 112 -138 c 0
 97.3333333333 -148 88.5 -158.166666667 85.5 -168.5 c 128
 82.5 -178.833333333 81 -193 81 -211 c 0
 81 -225 79.3333333333 -234.333333333 76 -239 c 0
 70.6666666667 -246.333333333 58.6666666667 -250 40 -250 c 0
 28.6666666667 -250 19.3333333333 -243.166666667 12 -229.5 c 128
 4.66666666667 -215.833333333 1 -199.333333333 1 -180 c 0
 1 -166 3.16666666667 -153.166666667 7.5 -141.5 c 128
 11.8333333333 -129.833333333 19 -120 29 -112 c 0
 63 -84.6666666667 122.666666667 -70 208 -68 c 128
 293.333333333 -66 355 -58.6666666667 393 -46 c 0
 413 -39.3333333333 432.5 -24 451.5 0 c 128
 470.5 24 480 49.6666666667 480 77 c 0
 480 102.333333333 478.833333333 122.833333333 476.5 138.5 c 128
 474.166666667 154.166666667 469.666666667 167.666666667 463 179 c 0
 454.333333333 193.666666667 440.166666667 205 420.5 213 c 128
 400.833333333 221 376 225 346 225 c 1
 346 106 l 2
 346 82.6666666667 332 60 304 38 c 0
 271.333333333 12.6666666667 231.666666667 0 185 0 c 0
 137.666666667 0 100.666666667 11 74 33 c 0
 44.6666666667 57.6666666667 30 93.6666666667 30 141 c 0
 30 177.666666667 42.3333333333 207.666666667 67 231 c 0
 86.3333333333 249.666666667 104.333333333 259 121 259 c 1
 121 450 l 1
 446 450 l 1
 446 415 l 1
 346 415 l 1
 346 260 l 1
 424 260 479.333333333 242.333333333 512 207 c 0
 537.333333333 179.666666667 550 140 550 88 c 0
271 260 m 1
 271 415 l 1
 156 415 l 1
 156 260 l 1
 271 260 l 1
271 103 m 2
 271 225 l 1
 140 225 l 2
 123.333333333 225 108 218.666666667 94 206 c 0
 74.6666666667 188.666666667 65 164 65 132 c 0
 65 99.3333333333 74.3333333333 75 93 59 c 128
 111.666666667 43 138.666666667 35 174 35 c 0
 194.666666667 35 216 42 238 56 c 128
 260 70 271 85.6666666667 271 103 c 2
EndSplineSet
EndChar

StartChar: u0BA4_u0BBF
Encoding: 104 -1 104
Width: 760
Flags: HW
AnchorPoint: "V" 255 715.709 basechar 0
AnchorPoint: "N" 255 -250 basechar 0
LayerCount: 2
Fore
SplineSet
660 0 m 1
 630 0 l 1
 630 452 l 2
 630 510 604.833333333 557.666666667 554.5 595 c 128
 504.166666667 632.333333333 440 651 362 651 c 0
 266.666666667 651 193.333333333 632 142 594 c 128
 90.6666666667 556 65 504.333333333 65 439 c 0
 65 407 69.6666666667 376.666666667 79 348 c 128
 88.3333333333 319.333333333 102.333333333 296.333333333 121 279 c 1
 121 450 l 1
 446 450 l 1
 446 415 l 1
 346 415 l 1
 346 260 l 1
 424 260 479.333333333 242.333333333 512 207 c 0
 537.333333333 179.666666667 550 140 550 88 c 0
 550 48 537.833333333 12.1666666667 513.5 -19.5 c 128
 489.166666667 -51.1666666667 456.666666667 -74 416 -88 c 0
 380.666666667 -100 327.833333333 -106.833333333 257.5 -108.5 c 128
 187.166666667 -110.166666667 138.666666667 -120 112 -138 c 0
 97.3333333333 -148 88.5 -158.166666667 85.5 -168.5 c 128
 82.5 -178.833333333 81 -193 81 -211 c 0
 81 -225 79.3333333333 -234.333333333 76 -239 c 0
 70.6666666667 -246.333333333 58.6666666667 -250 40 -250 c 0
 28.6666666667 -250 19.3333333333 -243.166666667 12 -229.5 c 128
 4.66666666667 -215.833333333 1 -199.333333333 1 -180 c 0
 1 -166 3.16666666667 -153.166666667 7.5 -141.5 c 128
 11.8333333333 -129.833333333 19 -120 29 -112 c 0
 63 -84.6666666667 122.666666667 -70 208 -68 c 128
 293.333333333 -66 355 -58.6666666667 393 -46 c 0
 413 -39.3333333333 432.5 -24 451.5 0 c 128
 470.5 24 480 49.6666666667 480 77 c 0
 480 102.333333333 478.833333333 122.833333333 476.5 138.5 c 128
 474.166666667 154.166666667 469.666666667 167.666666667 463 179 c 0
 454.333333333 193.666666667 440.166666667 205 420.5 213 c 128
 400.833333333 221 376 225 346 225 c 1
 346 106 l 2
 346 82.6666666667 332 60 304 38 c 0
 271.333333333 12.6666666667 231.666666667 0 185 0 c 0
 137.666666667 0 100.666666667 11 74 33 c 0
 44.6666666667 57.6666666667 30 93.6666666667 30 141 c 0
 30 171.666666667 38 197.333333333 54 218 c 0
 66.6666666667 234 82.3333333333 246 101 254 c 1
 75.6666666667 275.333333333 57.5 301.5 46.5 332.5 c 128
 35.5 363.5 30 397.333333333 30 434 c 0
 30 519.333333333 55 587.333333333 105 638 c 0
 163 696.666666667 248.333333333 726 361 726 c 0
 462.333333333 726 537.5 702.5 586.5 655.5 c 128
 635.5 608.5 660 538.333333333 660 445 c 2
 660 0 l 1
271 260 m 1
 271 415 l 1
 156 415 l 1
 156 260 l 1
 271 260 l 1
271 103 m 2
 271 225 l 1
 140 225 l 2
 123.333333333 225 108 218.666666667 94 206 c 0
 74.6666666667 188.666666667 65 164 65 132 c 0
 65 99.3333333333 74.3333333333 75 93 59 c 128
 111.666666667 43 138.666666667 35 174 35 c 0
 194.666666667 35 216 42 238 56 c 128
 260 70 271 85.6666666667 271 103 c 2
EndSplineSet
EndChar

StartChar: u0BA4_u0BC0
Encoding: 105 -1 105
Width: 650
Flags: HW
AnchorPoint: "V" 255 738.312 basechar 0
AnchorPoint: "N" 255 -250 basechar 0
LayerCount: 2
Fore
SplineSet
479 602 m 0
 479 621.333333333 472.5 637.833333333 459.5 651.5 c 128
 446.5 665.166666667 429.666666667 672 409 672 c 1
 391.666666667 668.666666667 377.666666667 660.333333333 367 647 c 128
 356.333333333 633.666666667 351 618.333333333 351 601 c 256
 351 583.666666667 357.166666667 568.5 369.5 555.5 c 128
 381.833333333 542.5 396.333333333 536 413 536 c 0
 431 536 446.5 542.5 459.5 555.5 c 128
 472.5 568.5 479 584 479 602 c 0
271 260 m 1
 271 415 l 1
 156 415 l 1
 156 260 l 1
 271 260 l 1
271 103 m 2
 271 225 l 1
 140 225 l 2
 123.333333333 225 108 218.666666667 94 206 c 0
 74.6666666667 188.666666667 65 164 65 132 c 0
 65 99.3333333333 74.3333333333 75 93 59 c 128
 111.666666667 43 138.666666667 35 174 35 c 0
 194.666666667 35 216 42 238 56 c 128
 260 70 271 85.6666666667 271 103 c 2
101 254 m 1
 75.6666666667 275.333333333 57.5 301.5 46.5 332.5 c 128
 35.5 363.5 30 397.333333333 30 434 c 0
 30 527.333333333 60 603.333333333 120 662 c 128
 180 720.666666667 257 750 351 750 c 0
 400.333333333 750 441 741.333333333 473 724 c 0
 516.333333333 700.666666667 538 663.666666667 538 613 c 0
 538 582.333333333 527.333333333 556.666666667 506 536 c 128
 484.666666667 515.333333333 457 505 423 505 c 0
 389.666666667 505 363.833333333 514.5 345.5 533.5 c 128
 327.166666667 552.5 318 575.333333333 318 602 c 0
 318 618.666666667 321.833333333 635.333333333 329.5 652 c 128
 337.166666667 668.666666667 347.666666667 680.666666667 361 688 c 1
 324 691 l 1
 248.666666667 691 185.666666667 663.666666667 135 609 c 0
 88.3333333333 559 65 502.333333333 65 439 c 0
 65 407 69.6666666667 376.666666667 79 348 c 128
 88.3333333333 319.333333333 102.333333333 296.333333333 121 279 c 1
 121 450 l 1
 446 450 l 1
 446 415 l 1
 346 415 l 1
 346 260 l 1
 424 260 479.333333333 242.333333333 512 207 c 0
 537.333333333 179.666666667 550 140 550 88 c 0
 550 48 537.833333333 12.1666666667 513.5 -19.5 c 128
 489.166666667 -51.1666666667 456.666666667 -74 416 -88 c 0
 380.666666667 -100 327.833333333 -106.833333333 257.5 -108.5 c 128
 187.166666667 -110.166666667 138.666666667 -120 112 -138 c 0
 97.3333333333 -148 88.5 -158.166666667 85.5 -168.5 c 128
 82.5 -178.833333333 81 -193 81 -211 c 0
 81 -225 79.3333333333 -234.333333333 76 -239 c 0
 70.6666666667 -246.333333333 58.6666666667 -250 40 -250 c 0
 28.6666666667 -250 19.3333333333 -243.166666667 12 -229.5 c 128
 4.66666666667 -215.833333333 1 -199.333333333 1 -180 c 0
 1 -166 3.16666666667 -153.166666667 7.5 -141.5 c 128
 11.8333333333 -129.833333333 19 -120 29 -112 c 0
 63 -84.6666666667 122.666666667 -70 208 -68 c 128
 293.333333333 -66 355 -58.6666666667 393 -46 c 0
 413 -39.3333333333 432.5 -24 451.5 0 c 128
 470.5 24 480 49.6666666667 480 77 c 0
 480 102.333333333 478.833333333 122.833333333 476.5 138.5 c 128
 474.166666667 154.166666667 469.666666667 167.666666667 463 179 c 0
 454.333333333 193.666666667 440.166666667 205 420.5 213 c 128
 400.833333333 221 376 225 346 225 c 1
 346 106 l 2
 346 82.6666666667 332 60 304 38 c 0
 271.333333333 12.6666666667 231.666666667 0 185 0 c 0
 137.666666667 0 100.666666667 11 74 33 c 0
 44.6666666667 57.6666666667 30 93.6666666667 30 141 c 0
 30 171.666666667 38 197.333333333 54 218 c 0
 66.6666666667 234 82.3333333333 246 101 254 c 1
EndSplineSet
EndChar

StartChar: u0BA4_u0BC1
Encoding: 106 -1 106
Width: 855
Flags: HW
AnchorPoint: "V" 255 455 basechar 0
AnchorPoint: "N" 255 -250 basechar 0
LayerCount: 2
Fore
SplineSet
281 260 m 1
 281 415 l 1
 166 415 l 1
 166 260 l 1
 281 260 l 1
281 103 m 2
 281 225 l 1
 150 225 l 2
 133.333333333 225 118 218.666666667 104 206 c 0
 84.6666666667 188.666666667 75 164 75 132 c 0
 75 99.3333333333 84.3333333333 75 103 59 c 128
 121.666666667 43 148.666666667 35 184 35 c 0
 204.666666667 35 226 42 248 56 c 128
 270 70 281 85.6666666667 281 103 c 2
436 -75 m 1
 69 -75 l 2
 55 -75 48 -78.6666666667 48 -86 c 0
 48 -88.6666666667 49.3333333333 -92 52 -96 c 0
 64 -115.333333333 87.6666666667 -132.666666667 123 -148 c 0
 164.333333333 -166 210.666666667 -175 262 -175 c 0
 300 -175 333.333333333 -166.166666667 362 -148.5 c 128
 390.666666667 -130.833333333 415.333333333 -106.333333333 436 -75 c 1
517 -75 m 1
 492.333333333 -116.333333333 460.666666667 -148.333333333 422 -171 c 0
 378 -197 327.333333333 -210 270 -210 c 0
 202.666666667 -210 144 -195.666666667 94 -167 c 0
 52.6666666667 -143 23 -114.333333333 5 -81 c 0
 2.33333333333 -76.3333333333 1 -70.6666666667 1 -64 c 256
 1 -57.3333333333 3.66666666667 -51.6666666667 9 -47 c 128
 14.3333333333 -42.3333333333 22.3333333333 -40 33 -40 c 2
 456 -40 l 1
 478.666666667 7.33333333333 490 54.6666666667 490 102 c 0
 490 142.666666667 480.666666667 172.666666667 462 192 c 0
 440.666666667 214 405.333333333 225 356 225 c 1
 356 106 l 2
 356 82.6666666667 342 60 314 38 c 0
 281.333333333 12.6666666667 241.666666667 0 195 0 c 0
 147.666666667 0 110.666666667 11 84 33 c 0
 54.6666666667 57.6666666667 40 93.6666666667 40 141 c 0
 40 177.666666667 52.3333333333 207.666666667 77 231 c 0
 96.3333333333 249.666666667 114.333333333 259 131 259 c 1
 131 450 l 1
 456 450 l 1
 456 415 l 1
 356 415 l 1
 356 260 l 1
 426.666666667 260 477.666666667 249.666666667 509 229 c 0
 546.333333333 204.333333333 565 162.666666667 565 104 c 0
 565 54 555 6 535 -40 c 1
 680 -40 l 1
 680 450 l 1
 755 450 l 1
 755 -75 l 1
 517 -75 l 1
EndSplineSet
EndChar

StartChar: u0BA4_u0BC2
Encoding: 107 -1 107
Width: 1105
Flags: HW
AnchorPoint: "V" 255 455 basechar 0
AnchorPoint: "N" 255 -250 basechar 0
LayerCount: 2
Fore
SplineSet
281 260 m 1
 281 415 l 1
 166 415 l 1
 166 260 l 1
 281 260 l 1
281 103 m 2
 281 225 l 1
 150 225 l 2
 133.333333333 225 118 218.666666667 104 206 c 0
 84.6666666667 188.666666667 75 164 75 132 c 0
 75 99.3333333333 84.3333333333 75 103 59 c 128
 121.666666667 43 148.666666667 35 184 35 c 0
 204.666666667 35 226 42 248 56 c 128
 270 70 281 85.6666666667 281 103 c 2
436 -75 m 1
 69 -75 l 2
 55 -75 48 -78.6666666667 48 -86 c 0
 48 -88.6666666667 49.3333333333 -92 52 -96 c 0
 64 -115.333333333 87.6666666667 -132.666666667 123 -148 c 0
 164.333333333 -166 210.666666667 -175 262 -175 c 0
 300 -175 333.333333333 -166.166666667 362 -148.5 c 128
 390.666666667 -130.833333333 415.333333333 -106.333333333 436 -75 c 1
456 -40 m 1
 478.666666667 7.33333333333 490 54.6666666667 490 102 c 0
 490 142.666666667 480.666666667 172.666666667 462 192 c 0
 440.666666667 214 405.333333333 225 356 225 c 1
 356 106 l 2
 356 82.6666666667 342 60 314 38 c 0
 281.333333333 12.6666666667 241.666666667 0 195 0 c 0
 147.666666667 0 110.666666667 11 84 33 c 0
 54.6666666667 57.6666666667 40 93.6666666667 40 141 c 0
 40 177.666666667 52.3333333333 207.666666667 77 231 c 0
 96.3333333333 249.666666667 114.333333333 259 131 259 c 1
 131 450 l 1
 456 450 l 1
 456 415 l 1
 356 415 l 1
 356 260 l 1
 426.666666667 260 477.666666667 249.666666667 509 229 c 0
 546.333333333 204.333333333 565 162.666666667 565 104 c 0
 565 79.3333333333 562.5 54.8333333333 557.5 30.5 c 128
 552.5 6.16666666667 545 -17.3333333333 535 -40 c 1
 680 -40 l 1
 680 450 l 1
 1005 450 l 1
 1005 415 l 1
 905 415 l 1
 905 -75 l 1
 830 -75 l 1
 830 415 l 1
 715 415 l 1
 715 -75 l 1
 517 -75 l 1
 492.333333333 -116.333333333 460.666666667 -148.333333333 422 -171 c 0
 378 -197 327.333333333 -210 270 -210 c 0
 202.666666667 -210 144 -195.666666667 94 -167 c 0
 52.6666666667 -143 23 -114.333333333 5 -81 c 0
 2.33333333333 -76.3333333333 1 -70.6666666667 1 -64 c 256
 1 -57.3333333333 3.66666666667 -51.6666666667 9 -47 c 128
 14.3333333333 -42.3333333333 22.3333333333 -40 33 -40 c 2
 456 -40 l 1
EndSplineSet
EndChar

